<?xml version="1.0" encoding="iso-8859-1"?>
<!-- Generator: Adobe Illustrator 25.4.4, SVG Export Plug-In . SVG Version: 6.00 Build 0)  -->
<svg version="1.1" id="Layer_1" xmlns="http://www.w3.org/2000/svg" xmlns:xlink="http://www.w3.org/1999/xlink" x="0px" y="0px"
	 viewBox="0 0 809.675 462.577" style="enable-background:new 0 0 809.675 462.577;" xml:space="preserve">
<path style="fill:#F0F0F0;" d="M133.088,210.327v-130c0-3.866,3.134-7,7-7s7,3.134,7,7v130c0,3.866-3.134,7-7,7
	S133.088,214.193,133.088,210.327z"/>
<path style="fill:#F0F0F0;" d="M116.338,210.327v-130c0-3.866,3.134-7,7-7s7,3.134,7,7v130c0,3.866-3.134,7-7,7
	S116.338,214.193,116.338,210.327z"/>
<path style="fill:#F0F0F0;" d="M99.588,210.327v-130c0-3.866,3.134-7,7-7s7,3.134,7,7v130c0,3.866-3.134,7-7,7
	S99.588,214.193,99.588,210.327z"/>
<path style="fill:#E6E6E6;" d="M731.992,417.964c-2.819,0.002-5.617-0.484-8.271-1.436l-0.409-0.147l0.188-0.905
	c-4.752-9.601-3.091-22.753,4.253-33.567c6.677-9.831,16.829-16.979,25.786-23.284c3.146-2.214,7.492-1.459,9.707,1.688
	c1.092,1.551,1.504,3.48,1.141,5.342l-3.203,16.434c-2.312,11.855-5.062,23.076-13.217,30.073
	C743.488,415.908,737.833,417.962,731.992,417.964z"/>
<path style="fill:#E6E6E6;" d="M752.969,446.361c-6.303-0.037-12.16-3.26-15.563-8.565l-0.232-0.361l0.554-0.488
	c1.433-7.818,8.173-14.784,17.223-17.78c8.226-2.723,17.306-2.277,25.312-1.886l0,0c2.951,0.144,5.226,2.652,5.083,5.603
	c-0.069,1.422-0.702,2.758-1.76,3.712l-9.008,8.131c-6.546,5.907-13.074,11.241-20.949,11.623
	C753.407,446.357,753.188,446.361,752.969,446.361z"/>
<path style="fill:#F2F2F2;" d="M725.013,455.053c-1.33-9.905-2.698-19.938-1.765-29.949c0.829-8.891,3.482-17.576,8.884-24.696
	c2.854-3.76,6.343-6.992,10.31-9.551c1.031-0.665,1.98,1.005,0.953,1.667c-6.877,4.464-12.167,10.988-15.112,18.64
	c-3.29,8.555-3.818,17.88-3.251,26.968c0.343,5.496,1.07,10.955,1.802,16.408c0.122,0.507-0.164,1.024-0.66,1.188
	c-0.506,0.135-1.026-0.165-1.161-0.671C725.014,455.055,725.014,455.054,725.013,455.053L725.013,455.053z"/>
<path style="fill:#F2F2F2;" d="M721.254,460.747c6.403-11.581,13.829-24.453,27.099-28.567c3.685-1.139,7.557-1.548,11.398-1.203
	c1.21,0.107,0.908,2.014-0.3,1.907c-6.452-0.542-12.89,1.199-18.19,4.92c-5.129,3.569-9.122,8.53-12.502,13.792
	c-2.07,3.223-3.925,6.582-5.78,9.938C722.387,462.606,720.654,461.832,721.254,460.747L721.254,460.747z"/>
<path style="fill:#CACACA;" d="M718.373,460.578l6.465,0.148l-38.98-208.238l-6.465,1.218l10.179,54.02h-32.793l10.179-54.02
	l-6.464-1.218l-38.655,208.238l6.139-0.148l20.322-107.852h49.751L718.373,460.578z M649.806,344.725l5.464-29h35.808l5.464,29
	H649.806z"/>
<path style="fill:#F0F0F0;" d="M436.088,213.644v-68.385c0-2.03,3.14-3.682,7-3.682s7,1.652,7,3.682v68.385
	c0,2.03-3.14,3.682-7,3.682S436.088,215.675,436.088,213.644z"/>
<path style="fill:#F0F0F0;" d="M419.338,213.644v-68.385c0-2.03,3.14-3.682,7-3.682s7,1.652,7,3.682v68.385
	c0,2.03-3.14,3.682-7,3.682S419.338,215.675,419.338,213.644z"/>
<path style="fill:#F0F0F0;" d="M402.588,213.644v-68.385c0-2.03,3.14-3.682,7-3.682s7,1.652,7,3.682v68.385
	c0,2.03-3.14,3.682-7,3.682S402.588,215.675,402.588,213.644z"/>
<path style="fill:#CCCCCC;" d="M543.502,163.354c-0.063-0.42-0.302-0.794-0.656-1.028l-52.773-34.839
	c0.795-0.332,1.46-0.915,1.894-1.659h0c1.097-1.914,0.443-4.355-1.464-5.464l-4.33-2.5c-1.914-1.098-4.355-0.444-5.464,1.464
	c-0.288,0.504-0.461,1.065-0.507,1.643l-38.094-25.148c-2.59-6.271-7.81-11.084-14.27-13.156V71.577h-14v11.088
	c-9.531,3.048-15.999,11.906-16,21.912v3h14c0,4.971,4.029,9,9,9s9-4.029,9-9h14v-3c-0.001-1.438-0.137-2.873-0.405-4.286
	l96.369,63.62l-40.031,48.67c-0.311-0.001-0.62-0.004-0.933-0.004c-3.194,0-6.289,0.076-9.237,0.206
	c0.178-0.494,0.256-1.019,0.229-1.544c-0.121-2.203-1.999-3.895-4.203-3.786l-4.993,0.26c-2.203,0.121-3.895,1.999-3.787,4.203
	c0.037,0.625,0.223,1.233,0.542,1.772c-8.829,0.938-14.551,2.232-14.551,2.89c0,1.078,15.363,0.052,34.592,0.002
	c0.275,0.779,1.128,1.187,1.907,0.913c0.258-0.091,0.486-0.251,0.659-0.462l0.371-0.45c19.172,0.053,34.471,1.073,34.471-0.003
	c0-1.015-13.602-3.538-31.226-3.943l39.566-48.104C543.447,164.202,543.565,163.774,543.502,163.354z"/>
<path style="fill:#E4E4E4;" d="M544.945,461.078H421.729c-5.185-0.006-9.386-4.208-9.392-9.393V249.469
	c-0.005-4.633-3.76-8.386-8.392-8.392H115.73c-4.633,0.005-8.387,3.759-8.392,8.392v202.216c-0.006,5.185-4.207,9.386-9.392,9.393
	H93.73c-5.185-0.006-9.386-4.208-9.392-9.393V238.578c0.014-12.421,10.079-22.486,22.5-22.5h425
	c12.421,0.014,22.486,10.079,22.5,22.5v213.107C554.332,456.87,550.13,461.072,544.945,461.078z"/>
<rect x="412.838" y="268.577" style="fill:#FFFFFF;" width="141" height="6"/>
<rect x="412.838" y="349.577" style="fill:#FFFFFF;" width="141" height="6"/>
<path style="fill:#E6E6E6;" d="M296.121,215.09l-4.052-1.706l-2.78-20.315h-37.02l-3.013,20.232l-3.626,1.813
	c-0.425,0.213-0.598,0.73-0.385,1.155c0.146,0.292,0.444,0.476,0.77,0.476h49.772c0.475,0,0.861-0.385,0.861-0.861
	C296.648,215.537,296.441,215.224,296.121,215.09z"/>
<path style="fill:#CCCCCC;" d="M361.909,195.772H180.055c-1.987-0.004-3.595-1.616-3.595-3.603v-25.644h189.043v25.644
	C365.504,194.155,363.895,195.767,361.909,195.772z"/>
<path style="fill:#3F3D56;" d="M365.694,178.645H176.294V68.921c0.003-2.398,1.946-4.34,4.343-4.343H361.35
	c2.398,0.003,4.341,1.946,4.343,4.343V178.645z"/>
<path style="fill:#FFFFFF;" d="M354.382,170.681H187.606c-1.848-0.002-3.346-1.5-3.348-3.348V75.89
	c0.002-1.848,1.5-3.346,3.348-3.348h166.775c1.848,0.002,3.346,1.5,3.348,3.348v91.443
	C357.728,169.181,356.23,170.679,354.382,170.681z"/>
<path style="fill:#9E616A;" d="M541.339,83.039c6.027-0.868,11.617,3.313,12.485,9.34c0.093,0.643,0.128,1.292,0.107,1.941
	l36.565,14.074l-16.566,11.836l-32.183-15.18c-6.092-0.609-10.536-6.041-9.928-12.133C532.329,87.821,536.264,83.736,541.339,83.039
	L541.339,83.039z"/>
<path style="fill:#E4E4E4;" d="M680.177,76.13l6.186,11.247c-1.495,7.133-5.358,13.551-10.963,18.211
	c-9.471,7.988-58.992,37.737-58.992,37.737l-62.517-31.385l10.937-14.533l49.082,16.449l0,0
	c18.207-17.193,40.179-29.895,64.164-37.094L680.177,76.13z"/>
<ellipse style="fill:#CACACA;" cx="668.674" cy="246.336" rx="48.791" ry="15.898"/>
<polygon style="fill:#9E616A;" points="559.217,447.105 546.261,443.524 553.909,391.846 573.031,397.133 "/>
<path style="fill:#2F2E41;" d="M559.049,460.578l-41.776-11.548l0.146-0.528c2.483-8.98,11.774-14.247,20.755-11.766l0.001,0
	l25.515,7.053L559.049,460.578z"/>
<polygon style="fill:#9E616A;" points="521.653,447.273 509.356,441.843 524.448,391.831 542.596,399.844 "/>
<path style="fill:#2F2E41;" d="M519.526,460.578l-39.649-17.508l0.221-0.502c3.764-8.523,13.723-12.381,22.247-8.619l0.001,0
	l24.216,10.693L519.526,460.578z"/>
<path style="fill:#2F2E41;" d="M706.646,207.467c0,0,6.517,20.193-33.471,45.73l-51.501,51.319l-53.513,128.006l-31.77-14.243
	l6.231-16.632l4.181-11.16l2.139-5.71l2.293-6.121l34.012-90.787l28.57-50.023l0.829-27.143l7.027-19.134l50.983-18.091
	L706.646,207.467z"/>
<path style="fill:#2F2E41;" d="M680.646,208.467c0,0,6.517,20.193-33.471,45.73l-51.501,51.319l-53.513,128.006l-31.77-14.243
	l6.231-16.632l4.181-11.16l2.139-5.71l2.293-6.121l34.012-90.787l9.566-16.749c12.62-22.096,27.954-42.526,45.646-60.815
	l9.378-9.694l1-15l21.82-12.133L680.646,208.467z"/>
<path style="fill:#E4E4E4;" d="M649.838,109.611l16-34l27.922-3.809c0,0,21.803,27.777,16.078,66.809
	c-2.147,14.637-3.896,29.209-4,42c-0.028,3.403,2.95,4.923,3,8c0.049,3.023-5.643,7.946-4,10c2.35,2.831,3.749,6.33,4,10
	c-1.981,4.716-61.956-20.834-87.164-17.042L649.838,109.611z"/>
<circle style="fill:#9E616A;" cx="667.787" cy="41.781" r="25.255"/>
<path style="fill:#2F2E41;" d="M683.933,32.713c-0.048,0.665-0.115,1.545-0.192,2.54c-0.078,2.726,0.69,5.409,2.199,7.68
	c1.413,2.389-0.273,16.821-0.273,16.821c41.368-28.836,8.681-57.807-4.105-55.232c0.267-3.667-10.161-2.214-10.161-2.214
	c-3.973-6.188-12.682,2.026-12.682,2.026l1.68-2.827c-6.761,1.72-13.443,22.615-13.443,22.615
	C649.248,33.137,684.2,29.046,683.933,32.713z"/>
<path style="fill:#CCCCCC;" d="M523.453,122.986c14.215-18.909,25.453-39.882,33.323-62.191c0.942-2.756-0.248-5.788-2.812-7.169
	l-48.645-26.065c-1.595-0.861-3.497-0.938-5.157-0.209c-1.69,0.734-2.947,2.207-3.407,3.992
	c-5.662,21.498-16.305,41.361-31.067,57.982c-1.232,1.371-1.762,3.233-1.437,5.047c0.312,1.785,1.43,3.327,3.03,4.177l48.645,26.065
	C518.496,125.985,521.68,125.296,523.453,122.986z"/>
<path style="fill:#FFFFFF;" d="M520.133,120.492c-0.54,0.674-1.482,0.868-2.245,0.464L469.243,94.89
	c-0.479-0.25-0.813-0.709-0.903-1.242c-0.103-0.562,0.064-1.14,0.45-1.561c15.198-17.111,26.154-37.559,31.983-59.69
	c0.137-0.554,0.525-1.013,1.049-1.239c0.494-0.221,1.063-0.197,1.537,0.064l48.644,26.065c0.76,0.411,1.12,1.304,0.858,2.128
	C545.131,81.324,534.095,101.921,520.133,120.492z"/>
<path style="fill:#F89939;" d="M503.115,55.986l33.552,19.666c3.338,1.957,6.361-3.227,3.028-5.181l-33.552-19.666
	C502.805,48.848,499.782,54.032,503.115,55.986L503.115,55.986z"/>
<path style="fill:#F89939;" d="M497.115,66.986l33.552,19.666c3.338,1.957,6.361-3.227,3.028-5.181l-33.552-19.666
	C496.805,59.848,493.782,65.032,497.115,66.986L497.115,66.986z"/>
<path style="fill:#F89939;" d="M490.115,78.986l33.552,19.666c3.338,1.957,6.361-3.227,3.028-5.181l-33.552-19.666
	C489.805,71.848,486.782,77.032,490.115,78.986L490.115,78.986z"/>
<path style="fill:#F89939;" d="M483.115,88.986l33.552,19.666c3.338,1.957,6.361-3.227,3.028-5.181l-33.552-19.666
	C482.805,81.848,479.782,87.032,483.115,88.986L483.115,88.986z"/>
<path style="fill:#F89939;" d="M636.069,204.664l12.596,28.325c0.617,1.378,0.497,2.974-0.319,4.243
	c-0.967,1.528-2.758,2.324-4.54,2.019c-0.297-0.045-0.588-0.123-0.868-0.232c-1.113-0.43-2.011-1.284-2.496-2.374l-12.596-28.325
	c-1.013-2.27,0.006-4.93,2.276-5.943c2.27-1.013,4.93,0.006,5.943,2.276C636.066,204.657,636.068,204.661,636.069,204.664
	L636.069,204.664z"/>
<path style="fill:#3F3D56;" d="M647.65,230.705l2.524,5.717l1.29,8.105c0.214,1.337-0.697,2.593-2.033,2.807
	c-0.868,0.139-1.744-0.198-2.295-0.882l-5.222-6.497l-2.487-5.592L647.65,230.705z"/>
<path style="fill:#3F3D56;" d="M625.047,196.783l1.805,11.34c0.213,1.338,1.469,2.249,2.807,2.037
	c0.211-0.034,0.416-0.094,0.611-0.181l1.789-0.796l3.454,7.767c0.225,0.504,0.817,0.731,1.321,0.505
	c0.503-0.225,0.73-0.814,0.507-1.318l-3.454-7.767l1.79-0.796c1.235-0.55,1.793-1.995,1.248-3.232
	c-0.088-0.197-0.201-0.381-0.336-0.549l-7.212-8.936c-0.851-1.054-2.395-1.219-3.449-0.368
	C625.245,195.041,624.909,195.916,625.047,196.783z"/>
<path style="fill:#9E616A;" d="M630.272,217.252c1.072-5.994,6.801-9.984,12.795-8.911c0.639,0.114,1.267,0.285,1.876,0.51
	l24.866-30.278l6.021,19.449l-24.536,25.771c-2.495,5.591-9.05,8.1-14.64,5.605C631.976,227.309,629.337,222.288,630.272,217.252
	L630.272,217.252z"/>
<path style="fill:#E4E4E4;" d="M661.577,215.284l-10.952-15.819l31.099-41.465l-16.021-34.33l1.167-40.835l13.239-2.446l0.164,0.082
	c6.436,3.705,11.411,9.5,14.099,16.423c3.303,8.256,10.675,39.25,14.776,56.99c1.638,6.99-0.467,14.33-5.561,19.389L661.577,215.284
	z"/>
<path style="fill:#FFB6B6;" d="M353.214,138.846c-0.091,0.768-0.121,1.543-0.091,2.316l-56.073,40.794l-15.405-6.817l-13.327,21.903
	l26.098,14.719c4.331,2.443,9.754,1.733,13.311-1.741l56.435-55.123c7.856,1.996,15.843-2.754,17.84-10.611
	c1.996-7.856-2.754-15.843-10.611-17.84c-7.856-1.996-15.843,2.754-17.84,10.611C353.402,137.645,353.289,138.243,353.214,138.846
	L353.214,138.846z"/>
<path style="fill:#6C63FF;" d="M295.237,183.447l-16.352,27.248c-1.788,2.98-5.653,3.945-8.633,2.157
	c-0.264-0.159-0.517-0.337-0.755-0.532l-24.483-20.107c-8.244-5.017-10.86-15.767-5.843-24.011
	c4.994-8.206,15.675-10.842,23.914-5.902l29.17,12.099c3.209,1.332,4.731,5.014,3.399,8.224
	C295.535,182.906,295.396,183.182,295.237,183.447L295.237,183.447z"/>
<rect x="225.174" y="367.167" style="fill:#CACACA;" width="32.052" height="53.115"/>
<rect x="288.363" y="377.922" transform="matrix(0.5615 -0.8275 0.8275 0.5615 -223.1309 427.7472)" style="fill:#CACACA;" width="7.327" height="92.965"/>
<rect x="143.892" y="420.741" transform="matrix(0.8275 -0.5615 0.5615 0.8275 -205.4593 180.1154)" style="fill:#CACACA;" width="92.965" height="7.327"/>
<circle style="fill:#CACACA;" cx="330.489" cy="450.504" r="10.074"/>
<circle style="fill:#CACACA;" cx="240.742" cy="450.504" r="10.074"/>
<circle style="fill:#CACACA;" cx="151.911" cy="450.504" r="10.074"/>
<rect x="237.079" y="398.304" style="fill:#CACACA;" width="7.326" height="52.2"/>
<rect x="234.332" y="320.463" style="fill:#CACACA;" width="13.737" height="70.515"/>
<path style="fill:#3F3D56;" d="M201.822,331.452v-16.484c0.007-6.319,5.128-11.44,11.447-11.447h61.358
	c6.319,0.007,11.44,5.128,11.447,11.447v16.484c-0.007,6.319-5.128,11.44-11.447,11.447h-61.358
	C206.95,342.892,201.829,337.771,201.822,331.452z"/>
<polygon style="fill:#FFB8B8;" points="312.641,444.129 329.609,444.128 337.683,400.117 312.639,400.118 "/>
<path style="fill:#2F2E41;" d="M308.313,460.578l54.715-0.002v-0.692c0-11.762-9.534-21.296-21.296-21.296l0,0h-0.002l-33.418,0.001
	L308.313,460.578z"/>
<path style="fill:#2F2E41;" d="M338.021,416.837l33.829-75.86c5.857-13.259,0.544-28.793-12.206-35.688l-73.377-39.347
	l-33.484-2.848l-30.886-2.807l-0.223,0.377c-0.285,0.481-6.926,11.952-2.437,24.529c3.405,9.54,12.262,16.992,26.324,22.149
	c32.824,12.035,70.741,22.322,85.52,26.185c1.321,0.338,2.435,1.224,3.061,2.436c0.627,1.197,0.726,2.601,0.272,3.874l-31.429,70.61
	c-1.184,3.23,0.475,6.808,3.704,7.991c0.505,0.185,1.032,0.304,1.568,0.354l23.484,1.71c0.199,0.019,0.398,0.028,0.595,0.028
	C334.795,420.528,337.021,419.081,338.021,416.837z"/>
<polygon style="fill:#FFB8B8;" points="301.568,444.129 318.536,444.128 326.61,400.117 301.566,400.118 "/>
<path style="fill:#2F2E41;" d="M297.24,460.578l54.715-0.002v-0.692c0-11.762-9.534-21.296-21.296-21.296l0,0h-0.002l-33.418,0.001
	L297.24,460.578z"/>
<path style="fill:#2F2E41;" d="M325.564,420.989l33.829-75.86c5.857-13.259,0.544-28.793-12.206-35.688l-73.377-39.347
	l-33.484-2.848l-24.192-2.099l0.003-0.332c-0.285,0.481-6.926,11.952-2.437,24.529c3.405,9.54,5.341,16.992,19.404,22.149
	c32.824,12.035,70.741,22.322,85.52,26.185c1.321,0.338,2.435,1.224,3.061,2.436c0.627,1.197,0.726,2.601,0.272,3.874l-31.429,70.61
	c-1.184,3.23,0.475,6.808,3.705,7.991c0.505,0.185,1.032,0.304,1.568,0.354l23.484,1.71c0.199,0.019,0.398,0.028,0.595,0.028
	C322.338,424.68,324.564,423.234,325.564,420.989z"/>
<circle style="fill:#FFB8B8;" cx="271.271" cy="86.373" r="33.995"/>
<path style="fill:#CCCCCC;" d="M388.453,216.986c14.215-18.909,25.453-39.882,33.323-62.191c0.942-2.756-0.248-5.788-2.812-7.169
	l-48.645-26.065c-1.595-0.861-3.497-0.938-5.157-0.209c-1.69,0.734-2.947,2.207-3.407,3.992
	c-5.662,21.498-16.305,41.361-31.067,57.982c-1.232,1.371-1.762,3.233-1.437,5.047c0.312,1.785,1.43,3.327,3.03,4.177l48.645,26.065
	C383.496,219.985,386.68,219.296,388.453,216.986z"/>
<path style="fill:#FFFFFF;" d="M385.133,214.492c-0.54,0.674-1.482,0.868-2.245,0.464l-48.646-26.066
	c-0.479-0.25-0.813-0.709-0.903-1.242c-0.103-0.562,0.064-1.14,0.45-1.561c15.198-17.111,26.154-37.559,31.983-59.69
	c0.137-0.554,0.525-1.013,1.049-1.239c0.494-0.221,1.063-0.197,1.537,0.064l48.644,26.065c0.76,0.411,1.12,1.304,0.858,2.128
	C410.131,175.324,399.095,195.921,385.133,214.492z"/>
<path style="fill:#CCCCCC;" d="M368.115,149.986l33.552,19.666c3.338,1.957,6.361-3.227,3.028-5.181l-33.552-19.666
	C367.805,142.848,364.782,148.032,368.115,149.986L368.115,149.986z"/>
<path style="fill:#CCCCCC;" d="M362.115,160.986l33.552,19.666c3.338,1.957,6.361-3.227,3.028-5.181l-33.552-19.666
	C361.805,153.848,358.782,159.032,362.115,160.986L362.115,160.986z"/>
<path style="fill:#CCCCCC;" d="M357.401,171.943l30.514,18.115c3.036,1.802,6.283-1.924,3.252-3.723l-30.514-18.115
	C357.616,166.417,354.369,170.143,357.401,171.943z"/>
<path style="fill:#CCCCCC;" d="M348.115,182.986l33.552,19.666c3.338,1.957,6.361-3.227,3.028-5.181l-33.552-19.666
	C347.805,175.848,344.782,181.032,348.115,182.986L348.115,182.986z"/>
<path style="fill:#F89939;" d="M290.872,268.694l-67.274-0.402l-0.018-0.479c-1.283-33.754,2.843-64.33,12.612-93.475
	c0.138-1.091,0.287-2.257,0.434-3.401c1.669-13.039,2.994-23.392,15.393-27.247c-1.033-1.374-1.642-3.019-1.752-4.734
	c-0.158-2.302,0.615-4.572,2.145-6.3c1.464-1.669,3.536-2.68,5.753-2.807l23.945-0.815c1.258-0.009,2.483,0.407,3.477,1.179
	c3.766,2.797,4.945,7.914,2.784,12.077c-0.282,0.562-0.39,0.817-0.431,0.929c0.851,4.46,3.377,9.758,6.05,15.364
	c3.827,8.027,8.165,17.125,9.28,26.858c0.602,5.255,0.352,10.573-0.741,15.749c-0.499,2.789-0.614,5.633-0.342,8.453
	c0.219,4.182,0.425,8.13-1.938,11.948c-0.603,1.035-1.292,2.139-2.101,3.361l-3.325,7.948L290.872,268.694z"/>
<path style="fill:#3F3D56;" d="M189.916,315.931V178.469c0.01-9.327,7.569-16.885,16.895-16.895h4.673
	c9.327,0.01,16.885,7.569,16.895,16.895v137.462c-0.01,9.327-7.569,16.885-16.895,16.895h-4.673
	C197.485,332.815,189.927,325.257,189.916,315.931z"/>
<path style="fill:#FFB6B6;" d="M370.32,192.189c-0.483,0.604-0.917,1.246-1.299,1.919l-69.158,5.05l-9.485-13.922l-22.881,11.569
	l14.396,26.277c2.389,4.361,7.37,6.621,12.224,5.548l77.03-17.029c5.619,5.842,14.91,6.024,20.753,0.405
	c5.842-5.619,6.024-14.91,0.405-20.753c-5.619-5.842-14.91-6.024-20.753-0.405C371.114,191.269,370.703,191.717,370.32,192.189z"/>
<path style="fill:#F89939;" d="M297.536,199.467l-28.271,14.511c-3.092,1.587-6.884,0.367-8.471-2.725
	c-0.141-0.274-0.261-0.559-0.36-0.851l-10.181-30.001c-4.346-8.574-0.945-19.049,7.608-23.436
	c-12.532,6.433,13.568-11.839,23.53,7.568l18.388,25.673c2.023,2.826,1.371,6.756-1.454,8.779
	C298.074,199.165,297.81,199.326,297.536,199.467L297.536,199.467z"/>
<path style="fill:#2F2E41;" d="M255.913,119.438c-2.046,0-4.304-0.986-6.849-2.984c-15.395-12.089-20.824-32.969-13.265-51.025
	c1.851-4.421,5.312-10.43,11.292-13.951c4.299-2.53,9.349-3.444,13.745-4.103c3.806-0.57,7.659-1.024,11.453-1.348
	c4.533-0.388,9.77-0.649,14.546,1.165c3.499,1.33,6.478,3.679,9.358,5.95c1.004,0.791,2.042,1.61,3.082,2.368
	c2.519,1.965,5.425,3.377,8.528,4.142c1.325,0.275,2.465,1.11,3.126,2.29c0.675,1.2,0.796,2.633,0.334,3.929
	c-0.449,1.26-0.855,2.396-0.034,3.626c0.617,0.88,1.631,1.397,2.706,1.379c0.568-0.009,1.101,0.269,1.418,0.74
	c0.321,0.466,0.391,1.062,0.186,1.59l-0.132,0.339c0.714,0.067,1.35,0.48,1.701,1.106c0.529,0.905,0.358,2.056-0.411,2.768
	c-3.034,2.888-6.816,4.867-10.918,5.714c-2.807,0.551-5.695,0.544-8.499-0.02l-0.451-0.088l0.055-0.5
	c-11.344-4.046-21.584,2.82-27.422,10.67l-0.843-0.532c0.293-0.591,0.332-1.276,0.107-1.896c-0.237-0.744-0.761-1.363-1.455-1.721
	c-1.422-0.586-3.057-0.26-4.144,0.827c-1.095,1.148-1.658,2.703-1.55,4.286c0.153,1.659,0.576,3.282,1.251,4.806
	c0.274,0.729,0.558,1.482,0.789,2.242c1.292,4.316,0.948,8.957-0.968,13.035c-0.884,1.86-2.481,4.232-5.076,4.968
	C257.034,119.363,256.475,119.439,255.913,119.438z"/>
<path style="fill:#CACACA;" d="M808.485,462.578H1.191c-0.658-0.003-1.188-0.539-1.184-1.197c0.003-0.653,0.532-1.181,1.184-1.184
	h807.294c0.658,0.002,1.189,0.537,1.187,1.195C809.669,462.045,809.139,462.575,808.485,462.578z"/>
</svg>
