<?xml version="1.0" encoding="iso-8859-1"?>
<!-- Generator: Adobe Illustrator 25.4.4, SVG Export Plug-In . SVG Version: 6.00 Build 0)  -->
<svg version="1.1" id="Layer_1" xmlns="http://www.w3.org/2000/svg" xmlns:xlink="http://www.w3.org/1999/xlink" x="0px" y="0px"
	 viewBox="0 0 740.675 597.175" style="enable-background:new 0 0 740.675 597.175;" xml:space="preserve">
<path style="fill:#E6E6E6;" d="M421.949,528.307c-5.122-7.172-12.055-12.419-20.771-14.383c-7.601-1.713-15.416-1.421-23.142-1.361
	l-97.692,0.753c-8.367,0.065-16.389,7.313-16,16c0.386,8.614,7.032,16.069,16,16c28.617-0.221,57.234-0.441,85.851-0.662
	c6.747-0.052,13.497-0.174,20.244-0.152c1.515,0.005,3.024,0.085,4.538,0.102c0.367,0.004,0.631,0.001,0.818-0.007
	c0.047,0.014,0.086,0.027,0.147,0.044c0.79,0.217,1.6,0.366,2.394,0.572c-0.278,0.008,0.515,0.503,0.914,0.671
	c0.055,0.108,0.171,0.299,0.366,0.595c0.272,0.51,1.077,2.059,1.11,2.01c1.21,3.059,2.208,6.197,2.987,9.393
	c1.859,7.047,2.268,8.52,2.536,15.132c0.338,8.352,7.117,16.398,16,16c8.379-0.375,16.363-7.042,16-16
	C433.638,557.92,430.988,540.965,421.949,528.307z"/>
<path style="fill:#E6E6E6;" d="M286.087,564.413c-1.835-11.12-3.635-22.246-5.505-33.359c-1.898-11.274-5.774-21.598-14.548-28.997
	c-2.344-1.977-4.775-3.823-7.216-5.663c-0.858-0.647-1.715-1.295-2.563-1.956c-0.051-0.039-0.083-0.064-0.127-0.099
	c-0.093-0.08-0.205-0.176-0.355-0.303c-3.657-3.095-7.19-6.327-10.556-9.763c-2.989-3.052-5.847-6.233-8.575-9.545
	c-0.682-0.827-1.354-1.662-2.019-2.504c-0.114-0.145-0.729-0.94-1.135-1.459c-0.377-0.519-1.066-1.457-1.182-1.621
	c-0.776-1.097-1.538-2.204-2.286-3.322c-5.096-7.635-9.509-15.705-13.187-24.115c-0.365-0.834-0.721-1.673-1.068-2.517
	c-0.093-0.258-0.214-0.588-0.374-1.029c-0.741-2.038-1.481-4.074-2.159-6.137c-1.44-4.381-2.678-8.826-3.714-13.336
	c-0.512-2.227-0.973-4.465-1.383-6.715c-0.211-1.157-0.409-2.316-0.593-3.478c-0.03-0.193-0.21-1.446-0.316-2.154
	c-0.078-0.712-0.224-1.972-0.243-2.166c-0.117-1.171-0.221-2.343-0.312-3.516c-0.205-2.64-0.343-5.285-0.415-7.933
	c-0.123-4.708-0.039-9.415,0.253-14.122c0.166-2.645,0.402-5.282,0.693-7.915c0.018-0.162,0.031-0.29,0.044-0.406
	c0.018-0.118,0.038-0.251,0.062-0.417c0.215-1.455,0.442-2.908,0.695-4.356c0.96-5.5,2.208-10.945,3.739-16.313
	c0.725-2.539,1.513-5.057,2.363-7.555c0.379-1.109,0.77-2.213,1.173-3.314c-0.026,0.071,1.182-3.016,1.198-3.119
	c4.795-11.329,12.638-21.657,12.648-34.526c0.007-8.713-7.364-17.06-16-16.657c-8.949,0.337-16.024,7.702-16,16.657
	c0,0.196-0.001,0.363-0.001,0.525c-0.081,0.271-0.148,0.498-0.208,0.698c-0.935,2.032-2.081,3.963-3.107,5.944
	c-2.811,5.423-5.209,11.025-7.488,16.708c-3.731,9.256-6.586,18.84-8.529,28.628c-4.224,21.446-4.551,43.478-0.968,65.04
	c6.204,37.813,26.662,74.009,55.103,98.339c2.468,2.111,4.997,4.152,7.549,6.151c1.056,0.827,2.121,1.639,3.191,2.446
	c0.506,0.381,2.602,2.034,1.68,1.233c1.982,1.692,2.817,2.543,3.326,3.789c0.074,0.288,0.174,0.678,0.311,1.211
	c0.359,1.405,0.7,2.807,0.983,4.233c2.476,12.451,4.196,25.112,6.264,37.644c1.421,8.611,12.022,14.215,19.682,11.634
	C283.828,581.899,287.609,573.639,286.087,564.413z"/>
<path style="fill:#3F3D56;" d="M423.568,596.708c-13.991,0.036-25.371-11.259-25.44-25.25v-18.251
	c-19.109,2.139-84.543,1.644-103.3-1.37v18.892c-0.105,14.05-11.581,25.355-25.631,25.249
	c-13.901-0.104-25.145-11.348-25.249-25.249v-37.092c-51.73-28.738-83.866-83.212-84-142.388c0-49.83,22.583-96.314,61.959-127.534
	c25.602-20.367,56.708-32.616,89.323-35.173c4.427-0.347,8.881-0.523,13.239-0.523c15.352,0,84.619,2.372,101.998,7.372
	l39.628-39.322c1.192-1.198,2.99-1.557,4.55-0.907c1.573,0.626,2.6,2.154,2.584,3.847v6.252l7.716-7.642
	c1.189-1.2,2.987-1.559,4.546-0.908c1.574,0.625,2.602,2.154,2.587,3.848v69.865c66.764,60.189,72.094,163.104,11.905,229.868
	c-14.329,15.894-31.651,28.806-50.976,37.998v33.169C448.939,585.449,437.559,596.744,423.568,596.708z M400.128,550.938v20.52
	c0.106,12.945,10.685,23.354,23.631,23.249c12.797-0.104,23.145-10.452,23.249-23.249v-34.433l0.571-0.271
	c27.128-12.873,50.157-33.012,66.531-58.182c43.114-66.368,31.349-154.266-27.699-206.96l-0.332-0.298v-70.757
	c0.015-0.881-0.521-1.677-1.342-1.996c-0.815-0.349-1.761-0.161-2.381,0.473l-11.127,11.021v-11.048
	c0.015-0.881-0.521-1.677-1.342-1.996c-0.817-0.348-1.764-0.159-2.385,0.477l-40.476,40.164l-0.575-0.18
	c-16.156-5.057-86.513-7.454-101.982-7.454c-4.306,0-8.707,0.174-13.082,0.517c-32.219,2.526-62.947,14.626-88.237,34.746
	c-38.895,30.838-61.202,76.751-61.202,125.967c0.135,58.66,32.103,112.623,83.484,140.925l0.516,0.286v38.27
	c0.108,12.946,10.69,23.353,23.636,23.245c12.793-0.107,23.138-10.451,23.245-23.245v-21.286l1.185,0.223
	c16.856,3.171,87.832,3.671,104.985,1.421L400.128,550.938z"/>
<path style="fill:#F89939;" d="M282.158,149.858l2.03-0.61c0.411-10.461,3.249-20.684,8.29-29.86c-0.633-0.285-1.309-0.46-2-0.52
	c-0.835-0.081-1.678,0.004-2.48,0.25"/>
<path style="fill:#2F2E41;" d="M280.116,147.007"/>
<path style="fill:#2F2E41;" d="M264.345,121.669"/>
<path style="fill:#3F3D56;" d="M352.128,82.008c-37.817,0.015-68.792,30.051-69.97,67.85c-0.02,0.71-0.03,1.43-0.03,2.15
	c0,38.66,31.34,70,70,70s70-31.34,70-70S390.788,82.008,352.128,82.008L352.128,82.008L352.128,82.008z M352.128,220.008
	c-37.539-0.039-67.961-30.461-68-68c0-0.93,0.02-1.85,0.06-2.76c1.525-37.523,33.181-66.705,70.704-65.18
	s66.705,33.181,65.18,70.704C418.59,191.222,388.608,220.009,352.128,220.008L352.128,220.008z"/>
<path style="fill:#E6E6E6;" d="M411.128,152.008c0,32.585-26.415,59-59,59s-59-26.415-59-59c0-1.87,0.09-3.71,0.26-5.53
	c3.054-32.441,31.829-56.264,64.271-53.21C387.966,96.121,411.128,121.565,411.128,152.008z"/>
<path style="fill:#F89939;" d="M369.698,155.928c-1.43-1.88-3.311-3.37-5.47-4.33c-2.662-1.122-5.411-2.025-8.22-2.7v-16.06
	c4.318,0.651,8.367,2.497,11.69,5.33l3.26-6.95c-1.875-1.67-4.028-3-6.36-3.93c-2.586-1.047-5.3-1.743-8.07-2.07v-8.14h-7.55v8.22
	c-2.915,0.327-5.728,1.272-8.25,2.77c-2.279,1.349-4.197,3.229-5.59,5.48c-1.33,2.197-2.019,4.722-1.99,7.29
	c-0.13,2.783,0.676,5.529,2.29,7.8c1.485,1.966,3.447,3.522,5.7,4.52c2.705,1.155,5.501,2.082,8.36,2.77v15.39
	c-5.095-0.384-9.95-2.321-13.91-5.55l-3.26,6.96c2.214,1.831,4.732,3.259,7.44,4.22c2.967,1.062,6.066,1.708,9.21,1.92v8.07h7.55
	v-8.22c4.194-0.458,8.126-2.261,11.21-5.14c2.746-2.633,4.262-6.297,4.18-10.1C372.043,160.783,371.261,158.125,369.698,155.928z
	 M349.498,147.198c-1.839-0.558-3.549-1.476-5.03-2.7c-1.188-1.057-1.841-2.591-1.78-4.18c-0.055-1.781,0.6-3.511,1.82-4.81
	c1.352-1.363,3.097-2.268,4.99-2.59V147.198z M360.748,168.478c-1.276,1.308-2.937,2.174-4.74,2.47v-13.24
	c1.724,0.462,3.336,1.269,4.74,2.37c1.078,0.921,1.678,2.283,1.63,3.7C362.447,165.494,361.865,167.173,360.748,168.478
	L360.748,168.478z"/>
<path style="fill:#3F3D56;" d="M166.848,341.258c-13.952-2.061-27.296-7.107-39.122-14.792c-5.859-3.805-11.283-8.241-16.174-13.228
	c-4.828-4.924-9.447-10.521-11.838-17.079c-2.301-6.067-2.182-12.787,0.331-18.769c2.479-5.946,7.215-10.666,13.169-13.125
	c5.99-2.389,13.226-2.644,19.055-0.028c2.778,1.218,5.181,3.152,6.964,5.606c0.829,1.131,1.442,2.405,1.81,3.758
	c0.341,1.226,0.372,2.518,0.09,3.759c-0.692,2.507-2.432,4.593-4.774,5.723c-2.548,1.307-5.308,2.149-8.152,2.486
	c-2.86,0.39-6.969,0.745-9.268-1.551c-0.473-0.454-0.846-1.003-1.093-1.611c-0.173-0.465-0.232-0.965-0.172-1.458
	c-0.034,0.217,0.139-0.472,0.129-0.445c-0.036,0.102-0.194,0.35,0.03-0.031c0.07-0.126,0.148-0.247,0.233-0.363
	c-0.076,0.098-0.243,0.262,0.055-0.019c0.246-0.27,0.563-0.465,0.914-0.564c0.138-0.04,0.279-0.072,0.418-0.11
	c0.353-0.096-0.352,0.005,0.009-0.006c0.139-0.004,0.28-0.001,0.419-0.007c0.354-0.016-0.349-0.097-0.01-0.011
	c0.132,0.033,0.262,0.065,0.392,0.106c0.282,0.089-0.2-0.207-0.009,0.014c0.224,0.259-0.235-0.252,0.019-0.001
	c0.127,0.124,0.246,0.256,0.358,0.394c0.919,0.907,2.396,0.907,3.315,0c0.886-0.927,0.886-2.388,0-3.315
	c-2.311-2.865-6.877-2.157-9.215,0.264c-2.982,3.088-1.801,7.983,1.1,10.678c3.284,3.051,7.934,3.263,12.158,2.751
	c3.57-0.342,7.048-1.325,10.269-2.902c3.2-1.572,5.703-4.276,7.024-7.588c1.206-3.575,0.822-7.496-1.056-10.769
	c-3.729-7.011-11.452-10.606-19.084-11.228c-7.938-0.622-15.794,1.957-21.819,7.163c-5.749,5.176-9.289,12.363-9.888,20.075
	c-0.666,7.996,2.436,15.761,6.959,22.214c4.735,6.557,10.386,12.4,16.779,17.353c12.499,9.979,27.161,16.894,42.812,20.191
	c1.862,0.385,3.733,0.714,5.615,0.988c1.243,0.301,2.505-0.416,2.883-1.637C168.819,342.894,168.09,341.61,166.848,341.258
	L166.848,341.258z"/>
<path style="fill:#CCCCCC;" d="M390.233,239.382c-20.442-0.289-40.82,0.23-61.133,1.556c-6.943,0.453-12.951,2.907-12.951,7.032
	c0,3.449,5.96,7.489,12.951,7.032c20.303-1.326,40.681-1.845,61.133-1.556C406.907,253.681,406.897,239.617,390.233,239.382z"/>
<path style="fill:#3F3D56;" d="M360.019,252.749c-2.209,0-54.106-0.083-54.106-7.251c0-7.168,51.896-7.25,54.106-7.25
	s54.106,0.083,54.106,7.25C414.125,252.667,362.229,252.749,360.019,252.749z M307.943,245.498
	c1.42,2.173,20.496,5.251,52.076,5.251s50.656-3.078,52.076-5.251c-1.42-2.173-20.496-5.25-52.076-5.25
	S309.363,243.326,307.943,245.498L307.943,245.498z"/>
<path style="fill:#3F3D56;" d="M524.673,441.2c11.488-0.319,25.786-0.718,36.801-8.764c6.639-5.049,10.709-12.773,11.121-21.103
	c0.225-6.355-2.071-11.901-6.465-15.614c-5.753-4.861-14.154-6.002-23.207-3.341l9.38-68.548l-6.886-0.943l-11.027,80.587
	l5.75-2.639c6.666-3.058,15.817-4.614,21.504,0.192c2.83,2.547,4.312,6.267,4.006,10.062c-0.341,6.198-3.361,11.941-8.275,15.735
	c-8.572,6.261-19.969,7.069-32.895,7.43L524.673,441.2z"/>
<rect x="468.203" y="329.741" style="fill:#3F3D56;" width="37.432" height="6.95"/>
<path style="fill:#E6E6E6;" d="M255.125,221.008"/>
<path style="fill:#3F3D56;" d="M739.485,597.175H1.191c-0.658-0.003-1.188-0.539-1.184-1.197c0.003-0.653,0.532-1.181,1.184-1.184
	h738.294c0.658,0.002,1.189,0.537,1.187,1.195C740.669,596.643,740.139,597.173,739.485,597.175z"/>
</svg>
