<?xml version="1.0" encoding="iso-8859-1"?>
<!-- Generator: Adobe Illustrator 25.4.4, SVG Export Plug-In . SVG Version: 6.00 Build 0)  -->
<svg version="1.1" id="Layer_1" xmlns="http://www.w3.org/2000/svg" xmlns:xlink="http://www.w3.org/1999/xlink" x="0px" y="0px"
	 viewBox="0 0 879.125 631.485" style="enable-background:new 0 0 879.125 631.485;" xml:space="preserve">
<rect id="b93b1ef9-49b5-4354-905b-d9dddde45a10" x="0.275" y="0.365" style="fill:#E6E6E6;" width="644.725" height="412.91"/>
<rect id="ef7485f9-8ecd-46d9-949e-abdd8aa9e360" x="18.711" y="52.154" style="fill:#FFFFFF;" width="607.853" height="336.693"/>
<rect id="b4c2a7ec-beab-40bc-b587-23a202562f78" style="fill:#F89939;" width="644.725" height="27.39"/>
<circle id="bd6d3ebf-cb6f-4fcb-b7cd-ad5a287d3324" style="fill:#FFFFFF;" cx="20.355" cy="14.004" r="5.077"/>
<circle id="efb1158e-7a7d-4adb-9063-fc7dc50c76d5" style="fill:#FFFFFF;" cx="39.624" cy="14.004" r="5.077"/>
<circle id="b51f9e19-f36b-4f29-afd5-008bb0fc20dd" style="fill:#FFFFFF;" cx="58.893" cy="14.004" r="5.077"/>
<rect id="b636d421-4358-445b-b124-1d058e78c733" x="93.5" y="79.848" style="fill:#E6E6E6;" width="118.887" height="128.982"/>
<rect id="ab9c902d-64a9-4a2b-a9ec-6dc7022c80f6" x="263.193" y="79.848" style="fill:#E6E6E6;" width="118.887" height="128.982"/>
<rect id="f4a232af-026e-479b-8040-5c62e5965d9e" x="432.885" y="79.848" style="fill:#E6E6E6;" width="118.887" height="128.982"/>
<rect id="ada16aa4-f84d-4851-87ee-a2852d96226a" x="93.5" y="232.176" style="fill:#E6E6E6;" width="118.887" height="128.982"/>
<rect id="ebfcbe07-3b81-4d69-a4f5-6a8318d20e8d" x="263.193" y="232.176" style="fill:#E6E6E6;" width="118.887" height="128.982"/>
<rect id="ead16b6d-d132-49a9-a42f-1f570e523a46" x="432.885" y="232.176" style="fill:#E6E6E6;" width="118.887" height="128.982"/>
<path id="ab8ff6e3-f37e-4992-8347-ee905fdba816-1419" style="fill:#FFFFFF;" d="M291.928,265.325l21.722-8.588l2.526,42.939
	c0,0,4.546,13.134,3.031,18.186c0,0,1.01,8.588-1.516,9.093c-2.526,0.505-9.6,1.516-10.1,1.01s-0.505-2.021-0.505-2.021
	s-5.052,3.536-5.557,7.577c0,0-21.217,6.567-21.722,0.505c-0.505-6.062,10.608-11.114,10.608-11.114l8.588-13.134L291.928,265.325z"
	/>
<path id="e647835b-1773-4993-9de9-376235a5ef39-1420" style="fill:#FFFFFF;" d="M337.9,265.325l21.719-8.588l2.526,42.939
	c0,0,4.546,13.134,3.031,18.186c0,0,1.01,8.588-1.516,9.093c-2.526,0.505-9.6,1.516-10.1,1.01s-0.505-2.021-0.505-2.021
	s-5.052,3.536-5.557,7.577c0,0-21.217,6.567-21.722,0.505c-0.505-6.062,10.608-11.114,10.608-11.114l8.588-13.134L337.9,265.325z"/>
<path id="ee50e840-b8e9-4cc0-9b2e-64e12816c6e5-1421" style="fill:#F89939;" d="M340.022,99.51c0,0-4.625,12.924,0.734,18.752
	l-4.468,15.353c0,0,15.874,47.622,11.339,54.274c0,0-16.932,8.466-50.8-3.024l13.757-53.367l-1.965-22.526l2.721-10.583l6.047-0.6
	c0,0-3.628,13.606,3.024,15.723s13.141-15.383,13.141-15.383L340.022,99.51z"/>
<path id="b668efb4-5504-4326-941b-9be143c4d030-1422" style="fill:#FFFFFF;" d="M126.421,182.937l5.837,2.388l27.858-36.613
	l8.755,42.98l5.837-1.061c3.744-37.055,6.8-74.85,3.051-92.726l-21.623-0.929l-9.816,31.311l-4.776,21.225L126.421,182.937z"/>
<path id="b699d661-049e-451c-8a7e-64343ac1c335-1423" style="fill:#FFFFFF;" d="M480.678,97.612c0,0-7.966,11.074-7.577,15.543
	s5.44,77.327,5.44,77.327l11.852,0.583l-3.5-52.458l2.914-14.183l7.189,66.058l14.572,0.389l-13.017-85.681l-2.526-7.577
	L480.678,97.612z"/>
<path id="a4f25674-ecb7-42aa-ae9a-d508200b11eb-1424" style="fill:#F89939;" d="M525.7,276.018c-2.115-2.538-5.751-3.91-9.242-4.652
	c0.1-0.317-10.618-2.532-10.8-2.076l-4.041-3.219l-12.417,6.447l-6.977-4.75l-3.241,1.15c0.132-0.572-10.061,1.194-10.061,1.194
	c-1.947,0.07-4.434,0.192-7.218,0.406c-9.749,0.75-10.5,26-10.5,26c4.486-1.835,9.268-2.836,14.113-2.955l2.635,30.2
	c13.553-1.162,27.767,0.19,42.5,3.5l6.909-23.74l16.089-6.257C533.449,297.266,530.7,282.017,525.7,276.018z"/>
<path id="b6d7fb25-d94e-4ba0-9382-3f72a4c565e4-1425" style="fill:#FFFFFF;" d="M180.441,261.637
	c-1.743-2.091-4.738-3.222-7.615-3.833c0.086-0.262-8.749-2.086-8.9-1.71l-3.33-2.652l-10.229,5.312l-5.749-3.913l-2.67,0.948
	c0.109-0.471-8.29,0.983-8.29,0.983c-1.6,0.058-3.654,0.158-5.947,0.335c-8.033,0.618-8.651,21.421-8.651,21.421
	c3.696-1.512,7.637-2.337,11.629-2.435l2.171,60.914c11.167-0.958,22.879,0.157,35.015,2.884l5.692-55.59l13.257-5.155
	C186.824,279.146,184.56,266.582,180.441,261.637z"/>
<path id="abb48a01-b3b6-4bc9-9e6f-5cc93133d8eb-1426" style="fill:#2F2E41;" d="M749.45,277.851h57v-30.5
	c0-15.74-12.76-28.5-28.5-28.5s-28.5,12.76-28.5,28.5V277.851z"/>
<path id="f1b40e10-dbea-4491-93e9-bf21ee1afe95-1427" style="fill:#FFB6B6;" d="M724.005,617.195h-12.259l-5.833-47.292h18.094
	L724.005,617.195z"/>
<path id="f19e2682-d3fb-40a9-8809-be7b68a78ac9-1428" style="fill:#2F2E41;" d="M727.132,613.192h-24.145
	c-8.497,0.001-15.385,6.888-15.386,15.385v0.5h39.531V613.192z"/>
<path id="b3618d44-3857-42e4-aed2-10e127155f21-1429" style="fill:#FFB6B6;" d="M870.559,600.834l-10.676,6.027l-28.328-38.311
	l15.757-8.895L870.559,600.834z"/>
<path id="a172411a-a77d-4e4f-ac70-c8342021cfb1-1430" style="fill:#2F2E41;" d="M871.314,595.811l-21.025,11.866l0,0
	c-7.4,4.178-10.011,13.563-5.834,20.963l0.246,0.435l34.424-19.433L871.314,595.811z"/>
<path id="bd1532c7-07e2-44c0-82ff-fc8e0d37942d-1431" style="fill:#2F2E41;" d="M792.205,404.524l0.946,4.73
	c0,0,2.838,2.838,1.419,4.257s-0.946,8.042-0.946,8.042c0.794,12.076,16.573,79.936,19.395,93.189c0,0,21.76,14.191,38.789,42.1
	s17.5,35.005,17.5,35.005l-18.918,8.043l-47.3-57.238c0,0-13.245-8.042-17.976-15.137s-34.064-80.418-34.064-80.418l-16.56,76.633
	c0,0,0.946,27.909-3.311,45.885c-2.617,11.344-4.201,22.902-4.73,34.532l-22.233-2.365c0,0,1.419-67.172,3.784-74.268
	c0,0-9.934-81.836,9.934-114.476l16.012-42.687l15.682-6.036L792.205,404.524z"/>
<path id="e2a54528-859f-4f0e-9aca-6130773a8d3b-1432" style="fill:#FFB8B8;" d="M778.244,226.307
	c-29.847,0.51-29.842,44.907,0,45.412C808.089,271.209,808.085,226.812,778.244,226.307z"/>
<path id="aeace49c-5333-476f-965d-52da8fac2318-1433" style="fill:#2F2E41;" d="M755.273,247.835h5.073l1.381-3.454l-0.691,3.454
	h27.745l-0.9-7.227l6.744,7.227h6.727v-3.916c0.009-12.724-10.298-23.045-23.022-23.054c-12.724-0.009-23.045,10.298-23.054,23.022
	l0,0v0.033L755.273,247.835z"/>
<path id="aa5a3aa9-e50b-4b43-b42d-0c1415925835-1434" style="fill:#F89939;" d="M747.466,284.977l56.4,0.457L791.95,406.351
	c0,0-65.959-3.481-66-23.614l6.179-17.891L747.466,284.977z"/>
<path id="aca4d347-909c-4b66-b72e-6bb1477aee43-1435" style="fill:#FFB6B6;" d="M806.29,418.04
	c-3.275-4.012-2.678-9.919,1.333-13.194c0.427-0.349,0.885-0.66,1.367-0.928l-2.451-21.287l12.573-4.645l3.039,30.111
	c2.217,4.712,0.194,10.328-4.518,12.545C813.704,422.49,809.021,421.416,806.29,418.04z"/>
<path id="eab38d24-ad2d-4cbe-aaaa-db975580c866-1436" style="fill:#F89939;" d="M796.45,295.851l7.421-10.373
	c0,0,5.079-1.127,11.079,5.873s9.5,94.5,9.5,94.5l-22,5l-13-62L796.45,295.851z"/>
<polygon style="fill:#FFFFFF;" points="672.135,390.739 673.771,468.476 724.096,495.071 815.744,478.705 817.995,397.899 
	759.896,377.441 "/>
<path style="fill:#CACACA;" d="M723.965,495.91l-50.987-26.945l-1.661-78.916l88.658-13.433l0.189,0.066l58.651,20.652
	l-2.285,82.046L723.965,495.91z M674.565,467.986l49.662,26.245l90.732-16.202l2.216-79.566l-57.357-20.196l-86.866,13.162
	L674.565,467.986z"/>
<polygon style="fill:#CACACA;" points="722.973,411.816 722.776,411.738 671.838,391.485 672.431,389.992 723.173,410.166 
	817.885,397.103 818.105,398.695 "/>
<rect x="722.781" y="410.988" transform="matrix(0.9999 -0.0122 0.0122 0.9999 -5.457 8.835)" style="fill:#CACACA;" width="1.607" height="84.086"/>
<polygon style="fill:#CACACA;" points="716.536,407.792 698.174,400.348 786.569,386.263 804.931,393.706 "/>
<rect x="681.979" y="407.019" transform="matrix(0.3955 -0.9185 0.9185 0.3955 28.2829 880.1946)" style="fill:#CACACA;" width="1.607" height="23.186"/>
<rect x="691.623" y="433.539" transform="matrix(0.3955 -0.9185 0.9185 0.3955 9.7547 905.0846)" style="fill:#F89939;" width="1.607" height="23.186"/>
<polygon style="fill:#FFFFFF;" points="392.135,498.739 393.771,576.476 444.096,603.071 535.744,586.705 537.995,505.899 
	479.896,485.441 "/>
<path style="fill:#CACACA;" d="M443.965,603.91l-50.987-26.945l-1.661-78.916l88.658-13.433l0.189,0.066l58.651,20.652
	l-2.285,82.046L443.965,603.91z M394.565,575.986l49.662,26.245l90.732-16.202l2.216-79.566l-57.357-20.196l-86.866,13.162
	L394.565,575.986z"/>
<polygon style="fill:#CACACA;" points="442.973,519.816 442.776,519.738 391.838,499.485 392.431,497.992 443.173,518.166 
	537.885,505.103 538.105,506.695 "/>
<rect x="442.781" y="518.988" transform="matrix(0.9999 -0.0122 0.0122 0.9999 -6.7914 5.4372)" style="fill:#CACACA;" width="1.607" height="84.086"/>
<polygon style="fill:#CACACA;" points="432.088,513.962 418.174,508.348 506.569,494.263 520.482,499.877 "/>
<rect x="401.979" y="515.019" transform="matrix(0.3955 -0.9185 0.9185 0.3955 -240.1855 688.3096)" style="fill:#CACACA;" width="1.607" height="23.186"/>
<rect x="411.623" y="541.539" transform="matrix(0.3955 -0.9185 0.9185 0.3955 -258.7137 713.1996)" style="fill:#F89939;" width="1.607" height="23.186"/>
<polygon style="fill:#F89939;" points="479.563,509.397 481.463,599.638 539.882,630.51 646.271,611.512 648.883,517.709 
	581.44,493.961 "/>
<path style="fill:#3F3D56;" d="M539.729,631.484l-59.188-31.278l-1.929-91.609l102.918-15.594l0.219,0.077l68.085,23.974
	l-2.652,95.242L539.729,631.484z M482.383,599.069l57.65,30.466l105.326-18.808l2.572-92.364l-66.582-23.445l-100.837,15.278
	L482.383,599.069z"/>
<polygon style="fill:#3F3D56;" points="538.578,533.865 538.35,533.774 479.218,510.264 479.907,508.53 538.81,531.949 
	648.755,516.785 649.01,518.633 "/>
<rect x="538.355" y="532.904" transform="matrix(0.9999 -0.0122 0.0122 0.9999 -7.0359 6.6028)" style="fill:#3F3D56;" width="1.866" height="97.61"/>
<polygon style="fill:#3F3D56;" points="526.888,527.112 509.79,520.553 612.402,504.202 629.501,510.761 "/>
<rect x="490.991" y="528.296" transform="matrix(0.3955 -0.9185 0.9185 0.3955 -200.2034 779.3379)" style="fill:#3F3D56;" width="1.866" height="26.916"/>
<rect x="502.185" y="559.081" transform="matrix(0.3955 -0.9185 0.9185 0.3955 -221.7117 808.2312)" style="fill:#FFFFFF;" width="1.866" height="26.916"/>
<path id="af1e2e82-f248-43bd-a869-489ddf745161-1437" style="fill:#FFB6B6;" d="M700.668,403.593
	c4.688-2.201,6.704-7.785,4.503-12.473c-0.234-0.499-0.512-0.977-0.831-1.427l11.422-18.13l-9.324-9.628l-15.771,25.829
	c-4.043,3.281-4.66,9.219-1.379,13.262C692.034,404.407,696.737,405.469,700.668,403.593L700.668,403.593z"/>
<path id="ed6195a6-5e50-4e12-8380-54bfefa6b2ae-1438" style="fill:#F89939;" d="M756.133,289.743l-8.183-5.392
	c0,0-6.315,1.416-13.031,14.334s-33.8,70.672-33.8,70.672l11.133,11.3l29.7-45.309L756.133,289.743z"/>
</svg>
