<?xml version="1.0" encoding="iso-8859-1"?>
<!-- Generator: Adobe Illustrator 25.4.4, SVG Export Plug-In . SVG Version: 6.00 Build 0)  -->
<svg version="1.1" id="Layer_1" xmlns="http://www.w3.org/2000/svg" xmlns:xlink="http://www.w3.org/1999/xlink" x="0px" y="0px"
	 viewBox="0 0 828.078 484" style="enable-background:new 0 0 828.078 484;" xml:space="preserve">
<path style="fill:#3F3D56;" d="M502.5,269H17c-9.384-0.011-16.989-7.616-17-17V17C0.011,7.616,7.616,0.011,17,0h485.5
	c9.384,0.011,16.989,7.616,17,17v235C519.489,261.384,511.884,268.989,502.5,269z M17,2C8.72,2.009,2.009,8.72,2,17v235
	c0.009,8.28,6.72,14.991,15,15h485.5c8.28-0.009,14.991-6.72,15-15V17c-0.009-8.28-6.72-14.991-15-15H17z"/>
<circle style="fill:#CCCCCC;" cx="93.25" cy="49.5" r="9"/>
<circle style="fill:#CCCCCC;" cx="93.25" cy="83.5" r="9"/>
<circle style="fill:#CCCCCC;" cx="93.25" cy="117.5" r="9"/>
<circle style="fill:#CCCCCC;" cx="93.25" cy="151.5" r="9"/>
<circle style="fill:#CCCCCC;" cx="244.75" cy="219.5" r="9"/>
<circle style="fill:#CCCCCC;" cx="179.75" cy="219.5" r="9"/>
<circle style="fill:#CCCCCC;" cx="378.75" cy="219.5" r="9"/>
<circle style="fill:#CCCCCC;" cx="310.75" cy="219.5" r="9"/>
<path style="fill:#CCCCCC;" d="M434.25,50.5h-296c-0.552,0-1-0.448-1-1s0.448-1,1-1h296c0.552,0,1,0.448,1,1
	S434.802,50.5,434.25,50.5z"/>
<path style="fill:#CCCCCC;" d="M434.25,84.5h-296c-0.552,0-1-0.448-1-1s0.448-1,1-1h296c0.552,0,1,0.448,1,1
	S434.802,84.5,434.25,84.5z"/>
<path style="fill:#CCCCCC;" d="M434.25,118.5h-296c-0.552,0-1-0.448-1-1s0.448-1,1-1h296c0.552,0,1,0.448,1,1
	S434.802,118.5,434.25,118.5z"/>
<path style="fill:#CCCCCC;" d="M434.25,152.5h-296c-0.552,0-1-0.448-1-1s0.448-1,1-1h296c0.552,0,1,0.448,1,1
	S434.802,152.5,434.25,152.5z"/>
<path style="fill:#F89939;" d="M194.25,186.5h-29c-2.76-0.003-4.997-2.24-5-5v-27c0.003-2.76,2.24-4.997,5-5h29
	c2.76,0.003,4.997,2.24,5,5v27C199.247,184.26,197.01,186.497,194.25,186.5z"/>
<path style="fill:#F89939;" d="M259.25,186.5h-29c-2.76-0.003-4.997-2.24-5-5v-61c0.003-2.76,2.24-4.997,5-5h29
	c2.76,0.003,4.997,2.24,5,5v61C264.247,184.26,262.01,186.497,259.25,186.5z"/>
<path style="fill:#F89939;" d="M325.25,186.5h-29c-2.76-0.003-4.997-2.24-5-5v-95c0.003-2.76,2.24-4.997,5-5h29
	c2.76,0.003,4.997,2.24,5,5v95C330.247,184.26,328.01,186.497,325.25,186.5z"/>
<path style="fill:#F89939;" d="M393.25,186.5h-29c-2.76-0.003-4.997-2.24-5-5v-128c0.003-2.76,2.24-4.997,5-5h29
	c2.76,0.003,4.997,2.24,5,5v128C398.247,184.26,396.01,186.497,393.25,186.5z"/>
<path style="fill:#F2F2F2;" d="M663.453,478.344c-8.993-7.599-14.455-19.602-13.022-31.288c1.432-11.686,10.305-22.428,21.813-24.91
	s24.628,4.388,28.123,15.63c1.924-21.674,4.141-44.257,15.664-62.715c10.434-16.713,28.507-28.672,48.093-30.811
	c19.586-2.139,40.208,5.941,52.424,21.4s15.206,37.934,6.651,55.682c-6.302,13.075-17.914,22.805-30.079,30.721
	c-39.312,25.364-86.461,35.679-132.772,29.046L663.453,478.344z"/>
<path style="fill:#FFFFFF;" d="M797.179,350.639c-16.161,13.164-30.987,27.886-44.264,43.954
	c-20.778,25.061-37.592,53.158-49.856,83.314c-0.898,2.2,2.675,3.158,3.562,0.982c20.066-49.009,52.099-92.206,93.17-125.638
	C801.636,351.749,799.008,349.149,797.179,350.639L797.179,350.639z"/>
<path style="fill:#3F3D56;" d="M568.61,203.058c-1.137-0.003-2.271-0.117-3.386-0.339h0c-0.204-0.041-0.407-0.084-0.611-0.131
	l-244.897-57.02c-2.66-0.62-4.427-2.293-4.11-3.893c0.272-0.96,1.06-1.687,2.039-1.882c1.182-0.326,2.427-0.353,3.622-0.081
	l246.418,51.462c5.548,1.158,9.4,4.563,8.769,7.751c-0.331,1.668-1.8,2.962-4.137,3.643
	C571.11,202.904,569.862,203.069,568.61,203.058z"/>
<path style="fill:#FFB8B8;" d="M516.732,195.169c4.788,2.814,10.95,1.214,13.765-3.574c0.3-0.51,0.554-1.047,0.76-1.602
	l35.727,0.745l-9.898-15.712l-32.41,1.701c-5.353-1.589-10.981,1.461-12.57,6.814C510.777,188.021,512.689,192.827,516.732,195.169
	L516.732,195.169z"/>
<path style="fill:#3F3D56;" d="M532.25,189.462l-0.186-10.951c-0.028-2.343,1.737-4.319,4.068-4.556l64.201-6.196l53.49-17.538
	c6.727-2.206,13.969,1.46,16.174,8.187s-1.46,13.969-8.187,16.174c-0.118,0.039-0.236,0.075-0.354,0.111l-59.206,17.53
	l-65.387,1.661c-2.032,0.049-3.845-1.267-4.428-3.213C532.318,190.278,532.256,189.871,532.25,189.462z"/>
<polygon style="fill:#FFB8B8;" points="627.258,471.782 614.998,471.781 609.166,424.493 627.26,424.494 "/>
<path style="fill:#2F2E41;" d="M630.385,483.666l-39.531-0.001v-0.5c0-8.497,6.888-15.386,15.386-15.386c0,0,0,0,0.001,0h0.001
	l24.144,0.001L630.385,483.666z"/>
<polygon style="fill:#FFB8B8;" points="663.258,471.782 650.998,471.781 645.166,424.493 663.26,424.494 "/>
<path style="fill:#2F2E41;" d="M666.385,483.666l-39.531-0.001v-0.5c0-8.497,6.888-15.386,15.386-15.386c0,0,0,0,0.001,0h0.001
	l24.144,0.001L666.385,483.666z"/>
<path style="fill:#2F2E41;" d="M671.486,280.674l-2.927,173.694c-0.037,2.209-1.858,3.969-4.067,3.932
	c-0.098-0.002-0.197-0.007-0.295-0.016l-14.346-1.304c-1.943-0.177-3.475-1.729-3.626-3.674l-8.399-108.345
	c-0.043-0.551-0.524-0.962-1.074-0.92c-0.506,0.039-0.903,0.452-0.922,0.959l-4.198,110.826c-0.081,2.149-1.847,3.849-3.997,3.849
	h-15.386c-2.114,0-3.864-1.646-3.993-3.756l-10.77-176.244l64-16L671.486,280.674z"/>
<circle style="fill:#FFB8B8;" cx="625.065" cy="93.016" r="24.561"/>
<path style="fill:#3F3D56;" d="M595.295,285.841c-0.86-0.83-1.351-1.97-1.365-3.165l-1.657-118.442
	c-0.204-12.361,7.583-23.444,19.282-27.441c2.301-10.439,14.548-11.747,21.687-11.591c3.616,0.078,6.968,1.915,8.978,4.923
	l5.118,7.677l11.28,6.612c10.711,6.252,16.156,18.708,13.47,30.816l-1.737,7.899c-6.115,27.959-5.534,56.968,1.698,84.66
	l3.495,13.324c0.631,2.404-0.807,4.863-3.21,5.494c-0.485,0.127-0.988,0.173-1.488,0.134l-4.059-0.312
	c-2.175-0.165-3.918-1.868-4.133-4.038l-0.672-6.717c-0.028-0.275-0.273-0.475-0.547-0.448c-0.237,0.024-0.424,0.211-0.448,0.448
	l-0.65,6.503c-0.227,2.274-2.123,4.017-4.408,4.052l-57.431,0.884c-0.024,0-0.048,0.001-0.072,0.001
	C597.257,287.116,596.132,286.659,595.295,285.841z"/>
<path style="fill:#2F2E41;" d="M626.986,107.174c0.101,3.472,2.511,5.481,5.47,7.299s6.419,2.607,9.808,3.368
	c1.463,0.777,3.278,0.221,4.055-1.242c0.226-0.426,0.346-0.901,0.35-1.383l3.108-11.823c1.1-3.777,1.9-7.634,2.393-11.537
	c0.749-7.509-1.031-15.587-6.272-21.016s-14.331-7.358-20.612-3.175c-7.454-9.52-41.523,11.513-33.119,18.133
	c1.495,1.178,3.781-0.312,5.678-0.457c1.898-0.144,4.025,0.189,5.23,1.662c1.575,1.924,0.889,4.791,1.538,7.191
	c1.123,3.534,4.899,5.488,8.433,4.365c0.017-0.005,0.034-0.011,0.051-0.016c1.569-0.773,3.045-1.722,4.4-2.829
	c1.456-0.97,3.295-1.686,4.934-1.074c2.16,0.806,2.927,3.45,3.122,5.748C625.883,102.678,626.362,104.945,626.986,107.174z"/>
<path style="fill:#3F3D56;" d="M808.931,484h-381c-0.552,0-1-0.448-1-1s0.448-1,1-1h381c0.552,0,1,0.448,1,1
	S809.483,484,808.931,484z"/>
<polygon style="opacity:0.2;enable-background:new    ;" points="621.25,173 617.25,222 596.25,273 627.25,223 "/>
<path style="fill:#FFB8B8;" d="M591.339,291.992c4.33-3.477,5.022-9.806,1.545-14.137c-0.371-0.462-0.781-0.89-1.228-1.279
	l13.379-33.136l-18.202,3.676l-9.914,30.903c-3.386,4.44-2.531,10.784,1.908,14.17C582.543,295.022,587.715,294.941,591.339,291.992
	L591.339,291.992z"/>
<path style="fill:#3F3D56;" d="M590.365,277.378l-10.304-3.713c-2.2-0.805-3.422-3.157-2.815-5.42l16.997-62.219l2.591-56.233
	c0.326-7.072,6.323-12.541,13.395-12.216c7.072,0.326,12.541,6.323,12.216,13.395c-0.006,0.124-0.013,0.248-0.022,0.372
	l-4.628,61.573l-21.658,61.718c-0.675,1.917-2.549,3.145-4.576,2.999C591.153,277.604,590.75,277.518,590.365,277.378z"/>
<path style="fill:#3F3D56;" d="M434.25,186.5h-296c-0.552,0-1-0.448-1-1s0.448-1,1-1h296c0.552,0,1,0.448,1,1
	S434.802,186.5,434.25,186.5z"/>
</svg>
