<?xml version="1.0" encoding="iso-8859-1"?>
<!-- Generator: Adobe Illustrator 25.4.4, SVG Export Plug-In . SVG Version: 6.00 Build 0)  -->
<svg version="1.1" id="Layer_1" xmlns="http://www.w3.org/2000/svg" xmlns:xlink="http://www.w3.org/1999/xlink" x="0px" y="0px"
	 viewBox="0 0 896.675 462.272" style="enable-background:new 0 0 896.675 462.272;" xml:space="preserve">
<path style="fill:#3F3D56;" d="M895.485,462.169H1.191c-0.658-0.003-1.188-0.539-1.184-1.197c0.003-0.653,0.532-1.181,1.184-1.184
	h894.294c0.658,0.003,1.188,0.539,1.184,1.197C896.666,461.637,896.137,462.165,895.485,462.169z"/>
<circle style="fill:#F2F2F2;" cx="280.353" cy="50.98" r="6.467"/>
<circle style="fill:#F2F2F2;" cx="254.58" cy="50.98" r="6.467"/>
<circle style="fill:#F2F2F2;" cx="228.807" cy="50.98" r="6.467"/>
<circle style="fill:#F2F2F2;" cx="203.033" cy="50.98" r="6.467"/>
<circle style="fill:#F2F2F2;" cx="280.353" cy="77.98" r="6.467"/>
<circle style="fill:#F2F2F2;" cx="254.58" cy="77.98" r="6.467"/>
<circle style="fill:#F2F2F2;" cx="228.807" cy="77.98" r="6.467"/>
<circle style="fill:#F2F2F2;" cx="203.033" cy="77.98" r="6.467"/>
<circle style="fill:#F2F2F2;" cx="280.353" cy="104.98" r="6.467"/>
<circle style="fill:#F2F2F2;" cx="254.58" cy="104.98" r="6.467"/>
<circle style="fill:#F2F2F2;" cx="228.807" cy="104.98" r="6.467"/>
<circle style="fill:#F2F2F2;" cx="203.033" cy="104.98" r="6.467"/>
<circle style="fill:#F2F2F2;" cx="280.353" cy="131.98" r="6.467"/>
<circle style="fill:#F2F2F2;" cx="254.58" cy="131.98" r="6.467"/>
<circle style="fill:#F2F2F2;" cx="228.807" cy="131.98" r="6.467"/>
<circle style="fill:#F2F2F2;" cx="203.033" cy="131.98" r="6.467"/>
<circle style="fill:#F2F2F2;" cx="280.353" cy="158.98" r="6.467"/>
<circle style="fill:#F2F2F2;" cx="254.58" cy="158.98" r="6.467"/>
<circle style="fill:#F2F2F2;" cx="228.807" cy="158.98" r="6.467"/>
<circle style="fill:#F2F2F2;" cx="203.033" cy="158.98" r="6.467"/>
<circle style="fill:#F2F2F2;" cx="280.353" cy="185.98" r="6.467"/>
<circle style="fill:#F2F2F2;" cx="254.58" cy="185.98" r="6.467"/>
<circle style="fill:#F2F2F2;" cx="228.807" cy="185.98" r="6.467"/>
<circle style="fill:#F2F2F2;" cx="203.033" cy="185.98" r="6.467"/>
<path style="fill:#CCCCCC;" d="M223.528,362.4v2c0.006,6.901,5.599,12.494,12.5,12.5h90c6.902-0.003,12.497-5.597,12.5-12.5v-2
	c0.006-2.925-1.021-5.758-2.9-8c-0.625-0.744-1.333-1.415-2.11-2c0,0-49.48-1.12-49.48-2.5h-48.01
	C229.129,349.909,223.538,355.5,223.528,362.4z"/>
<rect x="275.252" y="376.403" style="fill:#CCCCCC;" width="13" height="84"/>
<path style="fill:#CCCCCC;" d="M325.252,459.947c0,1.405-19.699,0.543-44,0.543s-44,0.861-44-0.543s19.699-12.543,44-12.543
	C305.552,447.403,325.252,458.542,325.252,459.947z"/>
<path style="fill:#A0616A;" d="M307.379,360.703c3.545-4.757,2.563-11.488-2.195-15.033c-0.507-0.378-1.047-0.71-1.612-0.993
	l-27.553-93.885l-20.981,10.276l33.681,89.055c-2.31,5.5,0.275,11.831,5.774,14.141
	C299.095,366.197,304.422,364.725,307.379,360.703L307.379,360.703z"/>
<path style="fill:#6C63FF;" d="M282.261,266.47l-23.483,6.357c-2.568,0.695-5.213-0.823-5.908-3.391
	c-0.062-0.228-0.107-0.46-0.134-0.695l-2.838-24.087c-1.889-7.143,2.37-14.464,9.513-16.353c7.113-1.881,14.41,2.335,16.333,9.438
	l9.674,22.156c1.064,2.438-0.051,5.277-2.489,6.341C282.712,266.33,282.489,266.409,282.261,266.47L282.261,266.47z"/>
<polygon style="fill:#A0616A;" points="313.516,450.101 325.776,450.1 331.609,418.304 313.514,418.304 "/>
<path style="fill:#2F2E41;" d="M310.389,446.098l24.144-0.001h0.001c8.497,0,15.386,6.888,15.386,15.386c0,0,0,0,0,0.001v0.5
	l-39.531,0.001L310.389,446.098z"/>
<path style="fill:#2F2E41;" d="M327.746,433.05c-0.143,0-0.286-0.007-0.43-0.021l-16.967-1.235c-2.475-0.23-4.295-2.422-4.065-4.896
	c0.036-0.387,0.122-0.768,0.256-1.133l22.707-51.015c0.328-0.919,0.257-1.934-0.196-2.799c-0.452-0.875-1.257-1.516-2.211-1.76
	c-10.677-2.791-38.072-10.223-61.786-18.918c-10.16-3.726-16.559-9.109-19.019-16.002c-3.243-9.087,1.555-17.374,1.76-17.722
	l0.161-0.272l22.315,2.028l24.191,2.058l53.013,28.428c9.212,4.982,13.05,16.205,8.819,25.784l-24.441,54.808
	C331.13,432.005,329.522,433.05,327.746,433.05z"/>
<circle style="fill:#A0616A;" cx="274.15" cy="193.816" r="24.561"/>
<polygon style="fill:#A0616A;" points="306.516,449.101 318.776,449.1 324.609,417.304 306.514,417.304 "/>
<path style="fill:#2F2E41;" d="M303.389,445.098l24.144-0.001h0.001c8.497,0,15.386,6.888,15.386,15.386c0,0,0,0,0,0.001v0.5
	l-39.531,0.001L303.389,445.098z"/>
<path style="fill:#2F2E41;" d="M320.746,436.05c-0.143,0-0.286-0.007-0.43-0.021l-16.967-1.235c-2.475-0.23-4.295-2.422-4.065-4.896
	c0.036-0.387,0.122-0.768,0.256-1.133l22.707-51.015c0.328-0.919,0.257-1.934-0.196-2.799c-0.452-0.875-1.257-1.516-2.211-1.76
	c-10.677-2.791-38.072-10.223-61.786-18.918c-10.16-3.726-16.559-9.109-19.019-16.002c-3.243-9.087,1.555-17.374,1.76-17.722
	l0.161-0.272l22.315,2.028l24.191,2.058l53.013,28.428c9.212,4.982,13.05,16.205,8.819,25.784l-24.441,54.808
	C324.13,435.005,322.522,436.05,320.746,436.05z"/>
<path style="fill:#2F2E41;" d="M281.725,232.304l-26-9c0,0-16.322,12.54-8.481,43.649c4.093,16.053,2.901,32.999-3.4,48.32
	c-0.759,1.896-1.633,3.743-2.619,5.531c0,0,29,35,56,9l-10.5-50.5C286.725,279.304,303.225,245.804,281.725,232.304z"/>
<path style="fill:#2F2E41;" d="M277.2,219.212c-3.496-5.232-6.254-12.488-2.406-17.466c3.799-4.914,11.292-4.19,17.111-6.365
	c8.104-3.029,12.804-12.549,11.338-21.076s-8.31-15.594-16.464-18.486c-8.154-2.892-17.348-1.951-25.333,1.379
	c-9.829,4.1-18.261,12.03-21.797,22.076s-1.646,22.108,5.689,29.83c7.864,8.278,20.206,10.485,31.623,10.351"/>
<path style="fill:#2F2E41;" d="M254.353,174.58c-4.405,3.586-11.125,1.993-15.854-1.154s-8.565-7.628-13.681-10.096
	c-9.019-4.35-19.924-1.458-28.702,3.36s-16.559,11.475-25.831,15.256s-21.104,3.968-28.125-3.172
	c-4.637,13.434,2.495,28.083,15.929,32.719c7.248,2.502,15.233,1.641,21.782-2.348c10.159-6.188,15.771-19.164,27.166-22.579
	c6.306-1.89,13.076-0.368,19.449,1.281s13.018,3.43,19.449,2.027s12.447-7.183,11.629-13.715L254.353,174.58z"/>
<path style="fill:#F89939;" d="M334.307,406.007c-2.601-16.892-2.601-34.083,0-50.975c0.341-2.076,2.133-3.602,4.237-3.606h39.873
	c1.309-0.004,2.547,0.596,3.355,1.626c0.826,1.044,1.124,2.411,0.807,3.705c-3.73,15.622-3.73,31.903,0,47.525
	c0.316,1.293,0.019,2.66-0.807,3.705c-0.808,1.03-2.046,1.63-3.355,1.626h-39.872C336.44,409.608,334.647,408.083,334.307,406.007z"
	/>
<path style="fill:#FFFFFF;" d="M366.146,376.102h-20.924c-1.656-0.002-2.998-1.344-3-3v-1.172c0.002-1.656,1.344-2.998,3-3h20.924
	c1.656,0.002,2.998,1.344,3,3v1.172C369.144,374.758,367.802,376.1,366.146,376.102z"/>
<path style="fill:#FFFFFF;" d="M366.146,388.447h-20.924c-1.656-0.002-2.998-1.344-3-3v-1.172c0.002-1.656,1.344-2.998,3-3h20.924
	c1.656,0.002,2.998,1.344,3,3v1.172C369.144,387.103,367.802,388.445,366.146,388.447z"/>
<path style="fill:#A0616A;" d="M344.792,356.204c2.244-5.492-0.389-11.764-5.881-14.008c-0.586-0.239-1.191-0.426-1.81-0.559
	l-50.135-84.024l-17.748,15.192l54.862,77.816c-0.863,5.902,3.222,11.387,9.125,12.25
	C338.143,363.593,342.934,360.837,344.792,356.204L344.792,356.204z"/>
<path style="fill:#2F2E41;" d="M296.927,271.235l-21.15,12.022c-2.313,1.315-5.253,0.505-6.568-1.807
	c-0.117-0.205-0.218-0.419-0.303-0.639l-8.766-22.615c-3.613-6.444-1.318-14.597,5.126-18.211
	c6.418-3.598,14.536-1.339,18.172,5.058l14.903,19.036c1.639,2.095,1.27,5.123-0.826,6.762
	C297.329,270.987,297.132,271.118,296.927,271.235L296.927,271.235z"/>
<path style="fill:#3F3D56;" d="M521.967,300.75h-406c-3.59,0-6.5,2.91-6.5,6.5s2.91,6.5,6.5,6.5h11.5v141.5c0,3.59,2.91,6.5,6.5,6.5
	s6.5-2.91,6.5-6.5V326.24l72.871,132.078c1.801,3.105,5.779,4.163,8.884,2.362c3.097-1.796,4.158-5.758,2.374-8.862L148.421,313.75
	h348.046v0.084l-76.129,137.984c-1.795,3.109-0.73,7.084,2.379,8.879s7.084,0.73,8.879-2.379l64.871-117.578v114.51
	c0,3.59,2.91,6.5,6.5,6.5s6.5-2.91,6.5-6.5V317.177l1.891-3.427h10.609c3.59,0,6.5-2.91,6.5-6.5S525.557,300.75,521.967,300.75z"/>
<path style="fill:#CCCCCC;" d="M274.967,296.75h79c1.933,0,3.5,1.567,3.5,3.5l0,0c0,1.933-1.567,3.5-3.5,3.5h-79
	c-1.933,0-3.5-1.567-3.5-3.5l0,0C271.467,298.317,273.034,296.75,274.967,296.75z"/>
<path style="fill:#CCCCCC;" d="M406.967,303.75h-89c-3.588-0.004-6.496-2.912-6.5-6.5v-49c0.004-3.588,2.912-6.496,6.5-6.5h89
	c3.588,0.004,6.496,2.912,6.5,6.5v49C413.463,300.838,410.555,303.745,406.967,303.75z"/>
<circle style="fill:#FFFFFF;" cx="362.467" cy="272.75" r="6"/>
<path style="fill:#E6E6E6;" d="M474.888,183.021V7.521c0.005-4.152,3.369-7.517,7.521-7.521h138.729
	c4.152,0.005,7.517,3.369,7.521,7.521v175.5c-0.005,4.152-3.369,7.517-7.521,7.521H482.409
	C478.257,190.538,474.893,187.173,474.888,183.021z M482.409,1.671c-3.229,0.004-5.846,2.621-5.85,5.85v175.5
	c0.004,3.229,2.621,5.846,5.85,5.85h138.729c3.229-0.004,5.846-2.621,5.85-5.85V7.521c-0.004-3.229-2.621-5.846-5.85-5.85H482.409z"
	/>
<path style="fill:#F89939;" d="M559.553,80.598V44.562c0.002-2.076,1.685-3.758,3.761-3.761h30.537
	c2.076,0.002,3.758,1.685,3.761,3.761v36.036c-0.002,2.076-1.685,3.758-3.761,3.761h-30.537
	C561.238,84.356,559.555,82.674,559.553,80.598z"/>
<path style="fill:#CCCCCC;" d="M500.217,97.312V61.276c0.002-2.076,1.685-3.758,3.761-3.761h30.537
	c2.076,0.002,3.758,1.685,3.761,3.761v36.036c-0.002,2.076-1.685,3.758-3.761,3.761h-30.537
	C501.902,101.07,500.22,99.388,500.217,97.312z"/>
<path style="fill:#FF6584;" d="M547.853,148.291v-36.036c0.002-2.076,1.685-3.758,3.761-3.761h30.537
	c2.076,0.002,3.758,1.685,3.761,3.761v36.036c-0.002,2.076-1.685,3.758-3.761,3.761h-30.537
	C549.538,152.049,547.855,150.367,547.853,148.291z"/>
<circle style="fill:#F2F2F2;" cx="780.741" cy="11.82" r="6.467"/>
<circle style="fill:#F2F2F2;" cx="780.741" cy="37.594" r="6.467"/>
<circle style="fill:#F2F2F2;" cx="780.741" cy="63.367" r="6.467"/>
<circle style="fill:#F2F2F2;" cx="780.741" cy="89.14" r="6.467"/>
<circle style="fill:#F2F2F2;" cx="753.741" cy="11.82" r="6.467"/>
<circle style="fill:#F2F2F2;" cx="753.741" cy="37.594" r="6.467"/>
<circle style="fill:#F2F2F2;" cx="753.741" cy="63.367" r="6.467"/>
<circle style="fill:#F2F2F2;" cx="753.741" cy="89.14" r="6.467"/>
<circle style="fill:#F2F2F2;" cx="726.741" cy="11.82" r="6.467"/>
<circle style="fill:#F2F2F2;" cx="726.741" cy="37.594" r="6.467"/>
<circle style="fill:#F2F2F2;" cx="726.741" cy="63.367" r="6.467"/>
<circle style="fill:#F2F2F2;" cx="726.741" cy="89.14" r="6.467"/>
<circle style="fill:#F2F2F2;" cx="699.741" cy="11.82" r="6.467"/>
<circle style="fill:#F2F2F2;" cx="699.741" cy="37.594" r="6.467"/>
<circle style="fill:#F2F2F2;" cx="699.741" cy="63.367" r="6.467"/>
<circle style="fill:#F2F2F2;" cx="699.741" cy="89.14" r="6.467"/>
<circle style="fill:#F2F2F2;" cx="672.741" cy="11.82" r="6.467"/>
<circle style="fill:#F2F2F2;" cx="672.741" cy="37.594" r="6.467"/>
<circle style="fill:#F2F2F2;" cx="672.741" cy="63.367" r="6.467"/>
<circle style="fill:#F2F2F2;" cx="672.741" cy="89.14" r="6.467"/>
<circle style="fill:#F2F2F2;" cx="645.741" cy="11.82" r="6.467"/>
<circle style="fill:#F2F2F2;" cx="645.741" cy="37.594" r="6.467"/>
<circle style="fill:#F2F2F2;" cx="645.741" cy="63.367" r="6.467"/>
<circle style="fill:#F2F2F2;" cx="645.741" cy="89.14" r="6.467"/>
<path style="fill:#FFB8B8;" d="M671.795,241.252c-2.08-5.71,0.863-12.024,6.573-14.104c0.391-0.142,0.79-0.263,1.195-0.36
	c0.478-0.112,0.963-0.191,1.451-0.236l24.303-42.599l-6.137-10.542l15.275-11.785l11.687,16.232
	c2.862,4.007,2.756,9.417-0.26,13.309l-33.365,42.714c0.121,0.339,0.225,0.685,0.311,1.035c1.419,5.909-2.222,11.849-8.131,13.268
	c-0.405,0.097-0.815,0.171-1.229,0.222c-0.447,0.056-0.896,0.085-1.347,0.084C677.504,248.475,673.384,245.587,671.795,241.252z"/>
<polygon style="fill:#FFB8B8;" points="624.38,450.888 612.12,450.887 606.288,403.599 624.382,403.6 "/>
<path style="fill:#2F2E41;" d="M603.363,447.384h23.644l0,0v14.887l0,0h-38.531l0,0l0,0
	C588.476,454.049,595.141,447.384,603.363,447.384z"/>
<polygon style="fill:#FFB8B8;" points="725.38,450.888 713.12,450.887 707.288,403.599 725.382,403.6 "/>
<path style="fill:#2F2E41;" d="M704.363,447.384h23.644l0,0v14.887l0,0h-38.531l0,0l0,0
	C689.476,454.049,696.141,447.384,704.363,447.384z"/>
<path style="fill:#6C63FF;" d="M717.855,163.929l-27.525,10.459l-6.72-18.667c-1.842-5.118,0.27-10.818,5.002-13.5l0,0
	c4.791-2.715,10.845-1.533,14.262,2.784L717.855,163.929z"/>
<path style="fill:#2F2E41;" d="M625.438,412.588l-23.084-5.265c-2.547-0.585-4.21-3.037-3.812-5.619
	c9.263-58.709,18.174-93.091,41.14-136.752c0.321-0.814,3.907-17.338,6.247-28.285c-0.055-2.495,1.747-4.644,4.214-5.024
	l43.044-6.625c0.649-0.225,1.335-0.328,2.021-0.304l0.43,0.082l-0.005,0.423c-0.005,0.438-0.441,0.504-0.604,0.53l-0.572,0.088
	c0.653,0.304,1.252,0.711,1.775,1.207c18.86,22.684,28.667,97.04,41.123,179.185c0.14,1.35-0.339,2.692-1.304,3.647
	c-0.911,0.995-2.189,1.573-3.538,1.601l-27.501,0.67c-2.499,0.056-4.652-1.748-5.035-4.218l-18.524-107.049
	c-0.331-2.17-2.359-3.66-4.529-3.329c-1.284,0.196-2.392,1.008-2.966,2.173c-14.944,30.435-28.881,56.755-42.606,109.266
	c-0.56,2.19-2.532,3.723-4.792,3.726C626.182,412.715,625.806,412.673,625.438,412.588z"/>
<path style="fill:#F89939;" d="M647.846,237.889c-1.172-0.829-1.931-2.122-2.083-3.549c-3.525-32.91-1.07-58.664,7.506-78.735
	c3.06-7.014,9.165-12.239,16.567-14.18l22.25-1.123l0.115,0.056c10.31,5.05,16.088,16.262,14.219,27.588
	c-7.156,18.863-13.148,38.503-8.579,54.346c0.387,1.338,0.212,2.777-0.484,3.983c-0.675,1.167-1.803,2.002-3.116,2.309
	l-42.378,10.081C650.474,238.997,649.011,238.714,647.846,237.889z"/>
<path style="fill:#FFB8B8;" d="M638.268,190.662l-42.674-33.666c-0.34,0.12-0.686,0.222-1.036,0.306
	c-3.046,0.713-6.252,0.098-8.818-1.691c-2.584-1.791-4.27-4.609-4.626-7.733c-0.589-5.082,2.396-9.902,7.209-11.638
	c5.72-2.052,12.021,0.922,14.073,6.642c0.14,0.391,0.258,0.79,0.354,1.195c0.11,0.478,0.186,0.963,0.229,1.452l42.481,24.507
	l10.572-6.086l11.711,15.332l-16.414,11.699C647.382,193.769,642.073,193.64,638.268,190.662z"/>
<path style="fill:#6C63FF;" d="M672.949,184.055L648.6,167.498l11.443-16.207c3.137-4.443,9.019-5.98,13.929-3.64l0,0
	c4.97,2.369,7.473,8.007,5.894,13.283L672.949,184.055z"/>
<circle style="fill:#FFB8B8;" cx="684.659" cy="107.431" r="24.561"/>
<path style="fill:#2F2E41;" d="M675.654,103.773c-6.313,4.32-14.601,8.762-21.049,4.161c-4.234-3.021-5.567-8.615-3.851-13.525
	c3.087-8.829,11.569-12.715,19.681-15.695c10.544-3.873,22.026-6.954,32.911-4.181s20.506,13.313,18.541,24.373
	c-1.58,8.894-9.97,16.295-8.779,25.25c1.199,9.012,11.334,13.756,20.281,15.367s18.96,2.128,25.391,8.555
	c8.203,8.199,6.155,22.853-1.564,31.51s-19.367,12.58-30.654,15.248c-14.955,3.534-31.129,5.392-45.332-0.474
	s-25.256-21.654-21.141-36.46c1.738-6.254,5.832-11.539,9.789-16.685s7.963-10.526,9.472-16.839
	c1.258-5.261,0.327-11.369-3.162-15.315c-1.302-1.417-1.542-3.512-0.594-5.186L675.654,103.773z"/>
</svg>
