<?xml version="1.0" encoding="iso-8859-1"?>
<!-- Generator: Adobe Illustrator 25.4.4, SVG Export Plug-In . SVG Version: 6.00 Build 0)  -->
<svg version="1.1" id="Layer_1" xmlns="http://www.w3.org/2000/svg" xmlns:xlink="http://www.w3.org/1999/xlink" x="0px" y="0px"
	 viewBox="0 0 657.036 776.139" style="enable-background:new 0 0 657.036 776.139;" xml:space="preserve">
<path style="fill:#F0F0F0;" d="M645.501,760.668c-3.716,5.009-8.323,9.29-13.59,12.63c-1.12,0.71-2.27,1.38-3.44,2h-27.53
	c0.33-0.66,0.65-1.33,0.96-2c17.502-36.932,9.522-80.911-19.84-109.34c16.64,5.14,32.02,15.16,42.08,29.37
	c4.888,6.92,8.364,14.736,10.23,23c1.663-16.528-0.98-33.205-7.67-48.41c13.51,10.99,24.03,26.04,28.04,42.98
	C658.751,727.848,655.841,746.658,645.501,760.668z"/>
<path id="b35682e1-9f03-403a-b8b0-c3d37d0d1380-1555" style="fill:#3F3D56;" d="M656.654,776.139H398.916v-2.106h258.12
	L656.654,776.139z"/>
<path style="fill:#F89939;" d="M308.748,263.27c0,38.64-13.5,71.63-39.19,96.18c-18.23,17.43-46.31,41.86-46.31,67.69v21.37h-85.5
	v-21.37c0-26.1-28.19-50.58-46.31-67.69c-25.11-23.69-39.19-58.92-39.19-96.18v-0.79c0.226-70.831,57.829-128.066,128.66-127.84
	C251.727,134.866,308.958,192.451,308.748,263.27z"/>
<path id="ecc2cf6c-8ee8-498c-972d-3c77e28b77e9-1556" style="fill:#3F3D56;" d="M223.247,451.51c-1.657,0-3-1.343-3-3v-21.374
	c0-25.125,24.779-48.58,42.873-65.706c1.5-1.422,2.961-2.8,4.363-4.145c25.029-23.928,38.259-56.437,38.259-94.014
	c0-70.229-55.013-125.243-125.242-125.243h-0.354c-68.805,0.077-124.618,55.733-124.889,124.538v0.7
	c0,36.8,13.939,71.063,38.245,94.007c1.231,1.163,2.51,2.36,3.823,3.589c18.327,17.159,43.427,40.658,43.427,66.275v21.373
	c0,1.657-1.343,3-3,3s-3-1.343-3-3l0,0v-21.374c0-23.015-24-45.486-41.528-61.9c-1.319-1.234-2.599-2.436-3.841-3.605
	c-25.5-24.072-40.126-59.924-40.126-98.364v-0.72c0.2-72.045,58.885-130.523,130.88-130.523h0.371
	c72.104-0.375,130.859,57.773,131.234,129.876c0.002,0.457,0.002,0.914,0,1.371c0,39.255-13.871,73.264-40.112,98.351
	c-1.409,1.347-2.876,2.736-4.386,4.165c-17.3,16.377-41,38.806-41,61.349v21.374c0,1.657-1.343,3-3,3H223.247z"/>
<path id="b22bef41-3cd7-4c1e-881c-c9a642005cb0-1557" style="fill:#F89939;" d="M208.999,490.005h-57c-2.761,0-5-2.239-5-5
	s2.239-5,5-5h57c2.761,0,5,2.239,5,5S211.76,490.005,208.999,490.005z"/>
<path style="fill:#3F3D56;" d="M186.628,523.505h-12.267c-4.261,0.003-8.442-1.156-12.094-3.351
	c-1.114-0.65-1.638-1.979-1.268-3.214c0.338-1.268,1.489-2.148,2.802-2.142h33.389c1.312-0.006,2.463,0.874,2.802,2.142
	c0.37,1.236-0.154,2.564-1.269,3.214C195.07,522.349,190.889,523.508,186.628,523.505z"/>
<path style="fill:#3F3D56;" d="M209.009,505.799l-57.338-0.006l-0.178-0.381c-0.343-1.419-0.011-2.917,0.9-4.058
	c0.923-1.17,2.332-1.852,3.823-1.849h48.558c1.491-0.003,2.9,0.678,3.823,1.849c0.903,1.125,1.239,2.603,0.911,4.007l-0.09,0.386
	L209.009,505.799z"/>
<path id="e0eb6627-54a4-4797-861b-0d156b8b485b-1558" style="fill:#E4E4E4;" d="M47.899,145.411
	c-1.209,0.001-2.377-0.437-3.286-1.233L1.674,106.697c-2.062-1.837-2.244-4.997-0.407-7.059c1.811-2.032,4.915-2.243,6.983-0.474
	l42.939,37.481c2.08,1.816,2.295,4.974,0.479,7.055c-0.95,1.088-2.324,1.713-3.769,1.712L47.899,145.411z"/>
<path id="e13fc22b-cd18-4b6e-a2d4-df4b74c6b7e7-1559" style="fill:#E4E4E4;" d="M305.977,145.411
	c-2.761,0.001-5.001-2.236-5.002-4.998c-0.001-1.445,0.624-2.819,1.712-3.769l42.938-37.484c2.099-1.795,5.255-1.549,7.05,0.55
	c1.769,2.069,1.559,5.172-0.474,6.983l-42.939,37.481C308.353,144.971,307.186,145.411,305.977,145.411z"/>
<path id="a74da646-4683-465e-97fe-dd817e7fc328-1560" style="fill:#F89939;" d="M223.247,472.26h-85.5c-2.761,0-5-2.239-5-5
	s2.239-5,5-5h85.5c2.761,0,5,2.239,5,5S226.008,472.26,223.247,472.26z"/>
<path style="fill:#E6E6E6;" d="M178.398,341.639l-17.78,106.87h-10.15l18.06-108.51c0.453-2.726,3.029-4.568,5.755-4.115
	S178.851,338.914,178.398,341.639z"/>
<path style="fill:#E6E6E6;" d="M212.568,448.509h-10.15l-17.78-106.87c-0.453-2.726,1.389-5.302,4.115-5.755
	s5.302,1.389,5.755,4.115L212.568,448.509z"/>
<path id="be3a5c8a-fbb4-472c-819b-e8dd06032f6a-1561" style="fill:#E6E6E6;" d="M148.003,338.069c0-2.761,2.239-5,5-5h54.993
	c2.761,0,5,2.239,5,5s-2.239,5-5,5h-54.993C150.241,343.069,148.003,340.831,148.003,338.069z"/>
<path id="e9f776ed-f4b6-47dc-b212-c247d99ecb23-1562" style="fill:#E4E4E4;" d="M180.499,95.5c-2.761,0-5-2.239-5-5V5
	c0-2.761,2.239-5,5-5s5,2.239,5,5v85.5C185.499,93.261,183.26,95.5,180.499,95.5z"/>
<path id="eba1f826-879a-4c25-b118-6bb025be95d0-1563" style="fill:#FEB8B8;" d="M589.219,762.149h-12.258l-5.832-47.288h18.092
	L589.219,762.149z"/>
<path id="f6694a1b-3521-46e6-aa9c-51f4297aac52-1564" style="fill:#2F2E41;" d="M592.346,774.033h-39.531v-0.5
	c0.001-8.497,6.888-15.385,15.385-15.386h24.146L592.346,774.033z"/>
<path id="fae71c2d-33fb-45f7-8331-19b4de5eddc8-1565" style="fill:#FEB8B8;" d="M496.082,761.745l-11.844-3.167l6.58-47.19
	l17.48,4.674L496.082,761.745z"/>
<path id="b3b10fd6-5fa4-49f3-8270-96ad6a3a1e0e-1566" style="fill:#2F2E41;" d="M496.033,774.033l-38.189-10.212l0.129-0.483
	c2.195-8.209,10.63-13.085,18.839-10.89l0,0l23.325,6.237L496.033,774.033z"/>
<path id="f6267da0-acb1-421a-9dac-5a6151c1f955-1567" style="fill:#2F2E41;" d="M596.272,497.137l10.269,11.931l-13.28,242.442
	h-28.369l-14.3-186.551l-44.349,191.554l-29.492-7.233l26.816-243.3L596.272,497.137z"/>
<path id="ea0dabd6-18d7-4484-8048-4cddc34702bd-1568" style="fill:#E6E6E6;" d="M510.423,340.612l28.246-14.172l43.437,0.764
	l37.38,19.127l-21.268,106.218l9.187,55.38l0,0c-35.508,9.055-72.683,9.361-108.335,0.892l-0.284-0.068
	c0,0,21.114-74.916,12.126-97.779L510.423,340.612z"/>
<path id="a75b604a-8411-40e9-b5d3-81fba8b6e00c-1569" style="fill:#FEB8B8;" d="M592.139,284.004
	c-0.065-17.67-14.443-31.941-32.112-31.875c-17.67,0.065-31.941,14.443-31.875,32.112s14.443,31.941,32.112,31.875
	c17.577-0.065,31.81-14.298,31.875-31.875V284.004z"/>
<path id="b97e8772-edf1-4d51-bb40-aaab108bf113-1570" style="fill:#FEB8B8;" d="M506.525,418.053
	c2.297,5.899,8.94,8.819,14.839,6.523c0.629-0.245,1.235-0.545,1.811-0.896l57.353,30.318l1.857-13.971l-55.73-32.863
	c-3.667-5.202-10.857-6.447-16.059-2.78C506.244,407.452,504.56,413.103,506.525,418.053L506.525,418.053z"/>
<path id="b7638692-4395-4c34-bc33-e4b41c888504-1571" style="fill:#FEB8B8;" d="M582.954,420.468
	c-3.531,5.254-10.653,6.65-15.907,3.119c-0.56-0.376-1.086-0.802-1.571-1.271l-62.6,17.035l0.545-17.738l62.271-16.173
	c4.716-4.274,12.004-3.916,16.278,0.799c3.577,3.946,3.984,9.83,0.983,14.231L582.954,420.468z"/>
<path id="fb7d8996-2760-43c1-a9a4-d402d6d3756c-1572" style="fill:#E6E6E6;" d="M607.28,347.1l12.205-0.765
	c0,0,14.29,18.855,6.364,39.316c0,0,1.373,73.5-30.276,70.48c-31.649-3.02-41.65-3.019-41.65-3.019l9.5-26.5l21.253-6.562
	c0,0-6.55-28.894,5.849-40.916L607.28,347.1z"/>
<path id="a9eb06d8-8cbf-43ab-991d-4f9eccd60edd-1573" style="fill:#E6E6E6;" d="M519.148,346.455l-1.725-8.843
	c0,0-25.44-0.6-30.47,37.951c0,0-22.877,57.692-0.454,65.121s47.089,0,47.089,0l-1.857-25.444l-24.67-5.033
	c0,0,12.745-16.489,5.805-30.792L519.148,346.455z"/>
<path id="ba7ab43e-494b-455d-a87f-0e0f24cb0a47-1574" style="fill:#2F2E41;" d="M571.222,299.715
	c-2.353-0.923-4.959-0.875-7.446-1.331c-8.893-1.638-15.752-10.706-14.908-19.71c0.212-1.167,0.232-2.36,0.058-3.533
	c-0.616-2.569-3.472-3.948-6.095-4.256s-5.333,0.086-7.885-0.597c-3.939-1.055-6.883-4.648-7.881-8.603
	c-0.85-4.022-0.406-8.209,1.267-11.963l1.224,2.552c1.273-1.351,2.141-3.032,2.506-4.853c2.174,0.117,4.131,1.357,5.166,3.273
	c1.581,0.706,1.388-2.906,2.964-3.621c0.71-0.171,1.458-0.074,2.1,0.273c3.473,1.165,7.156-0.583,10.597-1.836
	c5.961-2.163,12.347-2.892,18.642-2.13c4.183,0.511,8.405,1.747,11.66,4.42c2.572,2.33,4.663,5.141,6.156,8.274
	c4.017,7.508,7.043,15.792,6.961,24.31c-0.082,6.972-2.227,13.764-6.164,19.519c-2.052,2.986-8.68,13.343-13.085,12.203
	C571.527,310.676,577.847,302.313,571.222,299.715z"/>
</svg>
