<?xml version="1.0" encoding="utf-8"?>
<!-- Generator: Adobe Illustrator 25.4.4, SVG Export Plug-In . SVG Version: 6.00 Build 0)  -->
<svg version="1.1" id="Layer_1" xmlns="http://www.w3.org/2000/svg" xmlns:xlink="http://www.w3.org/1999/xlink" x="0px" y="0px"
	 viewBox="0 0 700 700" style="enable-background:new 0 0 700 700;" xml:space="preserve">
<style type="text/css">
	.st0{fill:#F89939;}
</style>
<path class="st0" d="M496.5,312c-17.6-6.4-46.1,1.4-67.1,33.8c-1.4,2.1-2.9,4.3-4.6,6.7c-0.6,0.9-1.3,2-2,2.9l-0.9-159.2
	c-0.1-9.9-4-19.2-11-26.1c-7-7-16.1-10.6-26.2-10.7c-7.9,0.1-15.2,2.7-21.2,7v-26.1c0-19.6-15.9-35.5-35.5-35.5
	s-35.5,15.9-35.5,35.5v18c-5.7-3.9-12.6-6.2-20-6.2c-19.6,0-35.5,15.9-35.5,35.5v25.5c-5.1-3.4-11-5.5-17.4-5.5
	c-18.1,0-32.9,15.9-32.9,35.7l3.3,179.9c-1.4,65.9,29.9,128.9,43.3,155.7l2.9,5.9c3.1,6.4,9.6,10.5,16.9,10.5h143.6
	c7.7,0,14.5-4.5,17.4-11.4c4.8-11.6,17.2-33.6,17.3-33.9c16.5-29.7,37.7-84.6,43.1-121.5c1.7-11.5,10.4-27.9,18.8-43.8
	c9.3-17.5,18.1-34,19.7-47.2C514.5,326.2,508,316.2,496.5,312L496.5,312z M479.7,377.4c-9.1,17-18.4,34.7-20.5,48.8
	c-4.9,34-25.3,87.6-41.3,116.1c-0.5,0.9-12.9,23.1-18.1,35.5c-0.5,1.1-1.7,1.9-3.1,1.9H253.2c-0.8,0-2.3-0.2-3-1.8l-3-6
	c-12.9-25.8-43.1-86.4-41.7-148.8l-3.3-180.1c0-11,7.8-20,17.4-20c9.6,0,17.4,9,17.4,20v109.8c0,4.3,3.5,7.8,7.7,7.8
	c4.3,0,7.7-3.5,7.7-7.8V187.6c0-11,9-20,20-20c11,0,20,9,20,20v140.5c0,4.3,3.5,7.8,7.7,7.8c4.3,0,7.7-3.5,7.7-7.8V140.3
	c0-11,9-20,20-20c11,0,20,9,20,20v187.8c0,4.3,3.5,7.8,7.7,7.8c4.3,0,7.7-3.5,7.7-7.8v-10.5c0.4-1,0.7-2,0.7-3.2l-0.7-117.9
	c0-5.8,2.2-11.1,6.2-15.2c4.1-4.1,9.6-5.6,15.3-6.4c5.7,0,11.1,2.2,15.1,6.2c4.1,4,6.3,9.4,6.4,15.2l1.1,188.6
	c0,4.3,3.5,7.7,7.7,7.7h0c4.3,0,7.7-3.5,7.7-7.8l0-0.7c0.9-0.7,1.6-1.6,2.1-2.7c3.7-7.9,8.3-14.3,12.3-20c1.8-2.5,3.5-4.9,5-7.2
	c17.5-27,38.8-31.4,48.8-27.7c2.7,1,7.2,3.4,6.5,8.9C496.4,345.9,487.9,361.9,479.7,377.4L479.7,377.4z"/>
<path class="st0" d="M361.6,323.8c-11.5-0.8-22.9,3.3-31.8,11.3l-9.6,8.7l-9.6-8.7c-8.9-8-20.6-12.3-31.8-11.3
	c-9.3,0.7-17.7,4.2-24.3,10.3c-8.7,8-13.2,19.3-13,32.6c0.6,39.3,66.8,86.7,74.3,92c0.1,0.1,0.3,0.1,0.5,0.1
	c1.2,0.7,2.5,1.2,3.9,1.2c0,0,0,0,0.1,0c0,0,0,0,0,0c0,0,0,0,0,0c0,0,0,0,0.1,0c1.4,0,2.7-0.5,3.9-1.2c0.1-0.1,0.3,0,0.5-0.1
	c7.5-5.3,73.7-52.7,74.3-92c0.2-13.4-4.3-24.7-13-32.7C379.2,328,370.9,324.5,361.6,323.8L361.6,323.8z M320.1,442.8
	c-20.9-15.5-62.9-51.6-63.3-76.3c-0.1-9.1,2.5-15.9,8-21c4-3.7,9.2-5.8,15-6.3c7.2-0.7,14.5,2.2,20.3,7.4l14.8,13.3
	c0.3,0.3,0.7,0.4,1,0.6c0.4,0.3,0.8,0.6,1.3,0.8s0.9,0.3,1.4,0.4c0.5,0.1,1,0.2,1.5,0.2s1-0.1,1.5-0.2c0.5-0.1,1-0.2,1.4-0.4
	c0.5-0.2,0.9-0.5,1.3-0.8c0.3-0.2,0.7-0.3,1-0.6l14.8-13.3c5.8-5.2,13.1-7.9,20.3-7.4c5.8,0.4,10.9,2.6,15,6.3
	c5.5,5.1,8.1,11.9,8,21C383,391.2,341.1,427.3,320.1,442.8L320.1,442.8z"/>
</svg>
