<?xml version="1.0" encoding="utf-8"?>
<!-- Generator: Adobe Illustrator 25.4.4, SVG Export Plug-In . SVG Version: 6.00 Build 0)  -->
<svg version="1.1" id="Layer_1" xmlns="http://www.w3.org/2000/svg" xmlns:xlink="http://www.w3.org/1999/xlink" x="0px" y="0px"
	 viewBox="0 0 700 700" style="enable-background:new 0 0 700 700;" xml:space="preserve">
<style type="text/css">
	.st0{fill:#F89939;}
</style>
<g>
	<path class="st0" d="M214.1,188.5l-8.3-1.5l-4-7.4c-0.7-1.4-2.1-2.2-3.7-2.2c-1.5,0-3,0.8-3.7,2.2l-4,7.4l-8.3,1.5
		c-1.5,0.3-2.8,1.4-3.2,2.8c-0.5,1.5-0.1,3.1,1,4.2l5.8,6.1l-1.1,8.4c-0.2,1.5,0.4,3.1,1.7,4c1.2,0.9,2.9,1.1,4.3,0.4l7.6-3.7
		l7.6,3.7c0.6,0.3,1.2,0.4,1.8,0.4c0.9,0,1.7-0.3,2.5-0.8c1.3-0.9,1.9-2.4,1.7-4l-1.1-8.4l5.8-6.1c1.1-1.1,1.4-2.7,1-4.2
		C216.9,189.9,215.6,188.8,214.1,188.5L214.1,188.5z M203.1,197.3c-0.9,0.9-1.3,2.2-1.1,3.5l0.4,2.6l-2.4-1.2
		c-1.1-0.6-2.5-0.6-3.6,0l-2.4,1.2l0.4-2.6c0.2-1.3-0.2-2.5-1.1-3.5l-1.8-1.9l2.6-0.5c1.3-0.2,2.3-1,2.9-2.1l1.3-2.3l1.3,2.3
		c0.6,1.1,1.7,1.9,2.9,2.1l2.6,0.5L203.1,197.3z"/>
	<path class="st0" d="M506.4,206.4H313.4c-0.6,0-1.1,0.1-1.7,0.1l0-4.7v-16.5c0-10.3-8.4-18.7-18.7-18.7H185.3
		c-10.3,0-18.7,8.4-18.7,18.7V228c0,10.3,8.4,18.7,18.7,18.7h99.4v5.4c0,0.2,0,0.4,0,0.6v209.4h-43.6c-2.3,0-4.2,1.9-4.2,4.2v40
		c0,14.9,12.1,27,27,27h196.8c0.7,0,1.4-0.2,2-0.6c13.1-2.6,22.9-14.2,22.9-28v-17.1c0-0.2,0.1-0.4,0.1-0.6l0-209.4h43.5
		c2.3,0,4.2-1.9,4.2-4.2v-40C533.4,218.5,521.3,206.4,506.4,206.4L506.4,206.4z M303.3,197.6h-73.7v-3h73.7V197.6z M175,228v-42.7
		c0-5.7,4.6-10.3,10.3-10.3h107.6c5.7,0,10.3,4.6,10.3,10.3v0.8h-77.9c-2.3,0-4.2,1.9-4.2,4.2v11.4c0,2.3,1.9,4.2,4.2,4.2h77.9V228
		c0,5.7-4.6,10.3-10.3,10.3H185.3C179.6,238.4,175,233.7,175,228L175,228z M264.4,525h-0.5c-10.2,0-18.6-8.3-18.6-18.6v-35.8
		l168.1,0v35.8c0,7.2,2.9,13.7,7.5,18.6l-136.7,0H264.4z M477.3,486.4c0,0.2-0.1,0.4-0.1,0.6v17.8c0,11.1-9.1,20.2-20.2,20.2h-16.7
		c-10.2,0-18.6-8.3-18.6-18.6v-40c0-2.3-1.9-4.2-4.2-4.2l-124.5,0V253.4c0-0.2,0-0.4,0-0.6v-6c10.2-0.1,18.5-8.5,18.5-18.7V215
		c0.6,0,1.1-0.2,1.7-0.2h172.3c-5.2,5.2-8.4,12.3-8.4,20.2L477.3,486.4z M525,269.2h-39.3V235c0-11.1,9.1-20.2,20.3-20.2h0.4
		c10.2,0,18.6,8.3,18.6,18.6L525,269.2z"/>
	<path class="st0" d="M384,301c17.4,0,31.6-14.2,31.6-31.6c0-17.4-14.2-31.6-31.6-31.6s-31.6,14.2-31.6,31.6
		C352.4,286.8,366.6,301,384,301z M384,246.2c12.8,0,23.2,10.4,23.2,23.2s-10.4,23.2-23.2,23.2s-23.2-10.4-23.2-23.2
		S371.2,246.2,384,246.2z"/>
	<path class="st0" d="M338.5,374.9h91.1c2.3,0,4.2-1.9,4.2-4.2v-35.5c0-10.5-8.6-19.1-19.1-19.1h-61.4c-10.5,0-19.1,8.6-19.1,19.1
		v35.5C334.3,373,336.1,374.9,338.5,374.9L338.5,374.9z M342.7,335.2c0-5.9,4.8-10.7,10.7-10.7h61.4c5.9,0,10.7,4.8,10.7,10.7v31.3
		h-82.7L342.7,335.2z"/>
	<path class="st0" d="M453.3,399.7H314.7c-2.3,0-4.2,1.9-4.2,4.2c0,2.3,1.9,4.2,4.2,4.2h138.6c2.3,0,4.2-1.9,4.2-4.2
		C457.5,401.6,455.6,399.7,453.3,399.7z"/>
	<path class="st0" d="M445.2,430.3h-10.1c-2.3,0-4.2,1.9-4.2,4.2c0,2.3,1.9,4.2,4.2,4.2h10.1c2.3,0,4.2-1.9,4.2-4.2
		C449.4,432.2,447.6,430.3,445.2,430.3z"/>
	<path class="st0" d="M400.9,430.3h-78.1c-2.3,0-4.2,1.9-4.2,4.2c0,2.3,1.9,4.2,4.2,4.2h78.1c2.3,0,4.2-1.9,4.2-4.2
		C405.1,432.2,403.2,430.3,400.9,430.3L400.9,430.3z"/>
</g>
</svg>
