<?xml version="1.0" encoding="utf-8"?>
<!-- Generator: Adobe Illustrator 25.4.4, SVG Export Plug-In . SVG Version: 6.00 Build 0)  -->
<svg version="1.1" id="Layer_1" xmlns="http://www.w3.org/2000/svg" xmlns:xlink="http://www.w3.org/1999/xlink" x="0px" y="0px"
	 viewBox="0 0 793.6 662.5" style="enable-background:new 0 0 793.6 662.5;" xml:space="preserve">
<style type="text/css">
	.st0{fill:#F2F2F2;}
	.st1{fill:#FFFFFF;}
	.st2{fill:#3F3D56;}
	.st3{fill:#CCCCCC;}
	.st4{fill:#F89939;}
	.st5{fill:#2F2E41;}
	.st6{fill:#FFB8B8;}
	.st7{opacity:0.2;enable-background:new    ;}
</style>
<rect x="-35.9" y="158.4" transform="matrix(0.8603 -0.5098 0.5098 0.8603 -49.8904 166.7013)" class="st0" width="630.2" height="32"/>
<rect x="82" y="185.3" transform="matrix(0.8603 -0.5098 0.5098 0.8603 -47.1597 230.5321)" class="st0" width="630.2" height="32"/>
<rect x="186.3" y="214.8" transform="matrix(0.8603 -0.5098 0.5098 0.8603 -47.5973 287.8506)" class="st0" width="630.2" height="32"/>
<circle class="st1" cx="353.1" cy="206.8" r="169.7"/>
<path class="st2" d="M182.1,206.8c0-94.3,76.7-171,171-171s171,76.7,171,171s-76.7,171-171,171S182.1,301.1,182.1,206.8z
	 M184.6,206.8c0,92.9,75.6,168.5,168.5,168.5s168.5-75.6,168.5-168.5S446,38.4,353.1,38.4S184.6,113.9,184.6,206.8z"/>
<path class="st2" d="M322.9,207.6L322.9,207.6c0-16.7,13.5-30.3,30.3-30.3s30.3,13.5,30.3,30.3c0,16.7-13.5,30.3-30.3,30.3h0
	C336.4,237.8,322.9,224.3,322.9,207.6L322.9,207.6z M353.1,178.8c-15.9,0-28.8,12.9-28.8,28.8l0,0c0,15.9,12.9,28.8,28.8,28.8
	s28.8-12.9,28.8-28.8C381.9,191.7,369,178.8,353.1,178.8z"/>
<path class="st3" d="M295.6,207.6L295.6,207.6c0-31.8,25.8-57.6,57.6-57.6c31.8,0,57.6,25.8,57.6,57.6s-25.8,57.6-57.6,57.6
	S295.6,239.4,295.6,207.6C295.6,207.6,295.6,207.6,295.6,207.6L295.6,207.6z M353.1,151.5c-31,0-56.1,25.1-56.1,56.1
	s25.1,56.1,56.1,56.1s56.1-25.1,56.1-56.1C409.2,176.6,384.1,151.5,353.1,151.5z"/>
<path class="st3" d="M240.9,207.6c0-62,50.2-112.2,112.2-112.2s112.2,50.2,112.2,112.2c0,62-50.2,112.2-112.2,112.2
	C291.2,319.7,241,269.5,240.9,207.6z M353.1,96.9c-61.1,0-110.7,49.6-110.7,110.7S292,318.3,353.1,318.3s110.7-49.6,110.7-110.7
	C463.7,146.5,414.2,97,353.1,96.9z"/>
<circle class="st4" cx="353.1" cy="206.8" r="14"/>
<circle class="st4" cx="317" cy="247.4" r="14"/>
<circle class="st4" cx="458" cy="241.5" r="14"/>
<circle class="st5" cx="353.1" cy="206.8" r="6.6"/>
<circle class="st5" cx="458" cy="241.5" r="6.6"/>
<circle class="st5" cx="317" cy="248.2" r="6.6"/>
<circle class="st4" cx="43.2" cy="132.3" r="6.6"/>
<polygon class="st5" points="352.8,132.7 61.2,132.7 61.2,131.2 354.2,131.2 354.2,207.2 352.8,207.2 "/>
<path class="st5" d="M24,132.3c0-10.6,8.6-19.2,19.2-19.2c10.6,0,19.2,8.6,19.2,19.2c0,10.6-8.6,19.2-19.2,19.2
	C32.6,151.5,24,142.9,24,132.3C24,132.3,24,132.3,24,132.3z M43.2,114.6c-9.8,0-17.7,7.9-17.7,17.7c0,9.8,7.9,17.7,17.7,17.7
	c9.8,0,17.7-7.9,17.7-17.7c0,0,0,0,0,0C60.9,122.5,52.9,114.6,43.2,114.6L43.2,114.6z"/>
<circle class="st4" cx="87.4" cy="323.4" r="6.6"/>
<path class="st5" d="M68.3,323.4L68.3,323.4c0-10.6,8.6-19.2,19.2-19.2c10.6,0,19.2,8.6,19.2,19.2c0,10.6-8.6,19.2-19.2,19.2
	c0,0,0,0,0,0C76.8,342.6,68.3,334,68.3,323.4z M87.4,305.7c-9.8,0-17.7,7.9-17.7,17.7c0,9.8,7.9,17.7,17.7,17.7
	c9.8,0,17.7-7.9,17.7-17.7v0C105.1,313.7,97.2,305.7,87.4,305.7z"/>
<circle class="st4" cx="663.9" cy="163.3" r="6.6"/>
<path class="st5" d="M644.7,163.3c0-10.6,8.6-19.2,19.2-19.2c10.6,0,19.2,8.6,19.2,19.2c0,10.6-8.6,19.2-19.2,19.2
	S644.7,173.9,644.7,163.3C644.7,163.3,644.7,163.3,644.7,163.3z M663.9,145.6c-9.8,0-17.7,7.9-17.7,17.7l0,0
	c0,9.8,7.9,17.7,17.7,17.7c9.8,0,17.7-7.9,17.7-17.7C681.6,153.5,673.7,145.6,663.9,145.6L663.9,145.6L663.9,145.6z"/>
<polygon class="st5" points="457.3,165.5 645.5,162.6 645.5,164 458.8,167 458.8,241.5 457.3,241.5 "/>
<polygon class="st5" points="105.9,322.7 316.2,322.7 316.2,248.2 317.7,248.2 317.7,324.2 105.9,324.2 "/>
<rect x="2.6" y="167" class="st3" width="81.2" height="5.2"/>
<rect x="2.6" y="181.8" class="st3" width="81.2" height="5.2"/>
<rect x="2.6" y="196.5" class="st3" width="81.2" height="5.2"/>
<rect x="46.9" y="358.1" class="st3" width="81.2" height="5.2"/>
<rect x="46.9" y="372.9" class="st3" width="81.2" height="5.2"/>
<rect x="46.9" y="387.6" class="st3" width="81.2" height="5.2"/>
<rect x="623.3" y="198.7" class="st3" width="81.2" height="5.2"/>
<rect x="623.3" y="213.5" class="st3" width="81.2" height="5.2"/>
<rect x="623.3" y="228.2" class="st3" width="81.2" height="5.2"/>
<polygon class="st6" points="743.2,638.9 731.6,643 710.2,600.4 727.3,594.3 "/>
<path class="st5" d="M712.9,662.3l-0.2-0.5c-2.8-8,1.3-16.8,9.3-19.7l22.7-8.1l5.3,15L712.9,662.3z"/>
<polygon class="st6" points="668.1,650.3 655.8,650.3 650,603 668.1,603 "/>
<path class="st5" d="M671.2,662.2l-39.5,0v-0.5c0-8.5,6.9-15.4,15.4-15.4l0,0h0l24.1,0L671.2,662.2z"/>
<path class="st4" d="M696,348.2l-5.3-10.5c0,0-19.9,5-21.7,16.5L696,348.2z"/>
<polygon class="st5" points="718,468.6 703.5,549.5 742,617.6 719,626.6 680,560.6 675,542.6 672,636.6 651.3,636 641.8,548.2 
	657,466.6 "/>
<path class="st2" d="M648.8,483.2c-0.4-2-1.7-63.2-1.7-63.2s21.3-70,21.5-70.6l0.1-0.2l16.2-6.1c0.2-0.1,5.6-2.5,10-0.5
	c2.3,1.1,4,3.2,4.6,5.7c1.8,1.4,15.1,16.2,15.1,36.3l0.5,47.4l11.1,51.4l-0.5,0.1c-0.3,0.1-13.8,4.1-35.1,4.1
	C678.7,487.8,648.8,483.2,648.8,483.2z"/>
<circle class="st6" cx="674.1" cy="312.4" r="21.9"/>
<polygon class="st7" points="705.3,408.8 667,462.3 661.4,437.3 "/>
<path class="st6" d="M637.4,463.4c5.2-0.2,9.2-4.6,9-9.8c0-0.6-0.1-1.1-0.2-1.6l28.4-17.4l-15.7-7.3l-24.6,17.7
	c-5,1.5-7.9,6.7-6.4,11.7C629.1,460.8,633,463.6,637.4,463.4L637.4,463.4z"/>
<polygon class="st4" points="657,427.6 647.3,434.5 655.6,449.1 667,439.6 "/>
<path class="st2" d="M651.9,428.1l22.9-26.6l-8.8-36.6c-2.1-8.6,3.2-17.3,11.9-19.3c7.1-1.7,14.4,1.6,17.9,8l0.2,0.4l8.1,54.4
	L663.4,450L651.9,428.1z"/>
<path class="st5" d="M692.8,331.4l-18.2,0.7c-1.1,0-4.1-11.9-4.5-14.4c-0.6-3.3-3.7-5.7-7.1-5.5c-1.4,0.1-4.8-2.4-8.3-5.4
	c-6.7-5.7-6.4-16.4,1-21.3c0.2-0.1,0.4-0.3,0.6-0.4c4.7-2.6,10.1-3.5,15.4-3.5c4.8-0.1,9.8,0.5,14.1,2.8
	c7.6,4.1,11.7,13.1,12.1,21.7s-2.4,17.1-5.6,25.2"/>
<path class="st2" d="M792.6,662.5h-221c-0.6,0-1-0.4-1-1c0-0.6,0.4-1,1-1h221c0.6,0,1,0.4,1,1C793.6,662,793.1,662.5,792.6,662.5z"
	/>
</svg>
