<?xml version="1.0" encoding="utf-8"?>
<!-- Generator: Adobe Illustrator 25.4.4, SVG Export Plug-In . SVG Version: 6.00 Build 0)  -->
<svg version="1.1" id="Layer_1" xmlns="http://www.w3.org/2000/svg" xmlns:xlink="http://www.w3.org/1999/xlink" x="0px" y="0px"
	 viewBox="0 0 842 842.8" style="enable-background:new 0 0 842 842.8;" xml:space="preserve">
<style type="text/css">
	.st0{fill:#F2F2F2;}
	.st1{fill:#FFFFFF;}
	.st2{fill:#2F2E41;}
	.st3{fill:#9E616A;}
	.st4{fill:#FFB8B8;}
	.st5{fill:#F89939;}
	.st6{fill:#CCCCCC;}
	.st7{fill:#FFB6B6;}
	.st8{fill:#CACACA;}
	.st9{fill:#3F3D56;}
	.st10{fill:#A0616A;}
	.st11{opacity:0.2;enable-background:new    ;}
</style>
<path class="st0" d="M842,421c0.1,47.9-8.1,95.5-24.1,140.7c-0.1,0.2-0.1,0.4-0.2,0.6v0c-12,33.6-28.2,65.6-48.3,95.1
	c-3.5,5.1-7.1,10.2-10.8,15.2c-4.1,5.5-8.3,10.9-12.7,16.2c-4,4.9-8.1,9.6-12.4,14.3c-5,5.6-10.2,11-15.5,16.3
	c-12.5,12.5-25.9,24.2-39.9,35c-2.5,1.9-4.9,3.8-7.5,5.6c-5.9,4.3-11.8,8.5-17.9,12.5c-13.4,8.8-27.3,16.9-41.6,24.2
	c-2.5,1.3-5,2.5-7.5,3.7c-9.7,4.7-19.5,9-29.6,12.9c-2.9,1.1-5.8,2.2-8.7,3.3c-0.5,0.2-1,0.4-1.5,0.5
	c-34.5,12.5-70.5,20.3-107.1,23.4c-2.5,0.2-5.1,0.4-7.6,0.6c-2.7,0.2-5.4,0.3-8.1,0.5c-2.1,0.1-4.3,0.2-6.4,0.2c-0.4,0-0.9,0-1.3,0
	c-2.9,0.1-5.8,0.1-8.7,0.2c-1.2,0-2.5,0-3.7,0c-0.6,0-1.2,0-1.7,0c-8.4,0-16.7-0.3-25-0.8c-0.2,0-0.3,0-0.5,0
	c-3-0.2-5.9-0.4-8.8-0.7c-10.5-0.9-20.8-2.1-31.1-3.8c-2.4-0.4-4.7-0.8-7.1-1.2c-10.2-1.8-20.2-4-30.2-6.5c-3-0.8-5.9-1.5-8.8-2.3
	c-40.6-11.3-79.2-28.6-114.5-51.5c-6.1-3.9-12-8-17.9-12.2c-0.7-0.5-1.4-1-2.1-1.5c-14.2-10.4-27.8-21.6-40.6-33.7
	c-6.1-5.7-12-11.6-17.7-17.6C41,632-0.2,528.5,0,421C0,188.5,188.5,0,421,0S842,188.5,842,421z"/>
<path class="st1" d="M472.4,107.3c8.4-13.9,18.4-28.8,34.1-33.4c18.1-5.3,36.7,5.2,52.5,15.5c47.2,30.9,92.7,64.4,136.2,100.3l0,0.5
	c-33.9-2.3-67.7-4.7-101.6-7c-24.5-1.7-49.8-3.6-71.4-15.2c-8.2-4.4-16.2-10.3-25.5-10.7c-11.6-0.5-21.6,7.6-29.5,16
	c-46.8,49.9-60.4,126.1-112.9,169.9C387.2,261.7,426.7,182.8,472.4,107.3z"/>
<path class="st1" d="M184.5,530.3c5.2-6.5,7.3-8.1,12.4-14.7c41.6-53.8,80.7-109.4,117.3-166.8c24.9-39,48.5-78.8,70.9-119.3
	c10.7-19.3,21-38.7,31.1-58.2c7.8-15.2,15.5-30.4,22.9-45.8c2.1-4.4,4.2-8.8,6.3-13.2c4.9-10.4,9.6-20.8,14.8-31
	c5.8-11.7,13-23.9,23.7-31.7c4.9-3.7,10.7-6,16.8-6.5c8.7-0.6,16.8,3,24.4,7c55.4,28.9,107.3,65.2,154.3,106.4
	c47.1,41.3,89.1,88,125.3,139.1c1.1,1.6,3.7,0.1,2.6-1.5c-4.4-6.2-8.9-12.4-13.5-18.5c-38-50.6-81.8-96.5-130.5-136.8
	c-24.1-20-49.4-38.5-75.7-55.5c-13.4-8.7-27-16.9-40.9-24.8c-7-4-14-7.9-21.2-11.5c-7-3.6-14.4-6.8-22.4-7
	c-27.2-0.4-41.3,30.4-51,51.2c-3,6.5-6.1,13-9.2,19.5c-11.8,24.6-24,49-36.7,73.2c-7.8,14.9-15.8,29.8-24,44.5
	c-25.4,46-52.5,91-81.1,135.1c-37.9,58.4-75.5,110-118.8,164.6C181.2,529.7,183.3,531.8,184.5,530.3z"/>
<path class="st1" d="M335.2,285.1l-40.6-14.8l-20.1-7.4c-6.6-2.4-13.1-5.1-19.9-6.8c-6-1.5-12.1-1.8-18,0.2c-5.2,1.9-10,4.9-14,8.7
	c-4.1,3.8-8,7.9-11.5,12.3c-4.4,5.3-8.7,10.6-13,15.9c-17.9,21.9-35.7,43.9-53.4,66c-17.7,22.1-35.2,44.3-52.7,66.6
	c-17.5,22.3-34.8,44.8-52.1,67.3c-2.1,2.8-4.2,5.5-6.3,8.3c-1.2,1.5-3.8,0-2.6-1.5c17.4-22.7,34.9-45.4,52.5-68
	c17.7-22.6,35.4-45.1,53.3-67.6c17.9-22.4,35.9-44.7,54.1-67c4.5-5.5,9-11.1,13.6-16.6c3.8-4.7,7.6-9.4,11.8-13.7
	c7.7-8,17.3-15,28.8-15.2c6.8-0.1,13.3,2,19.6,4.3c6.8,2.5,13.5,5,20.3,7.4l40.8,14.9l10.2,3.7C337.8,282.9,337,285.8,335.2,285.1
	L335.2,285.1z"/>
<path class="st1" d="M224.1,285.3c4-4.9,8.3-9.9,14.3-11.9l5.6,0.2c-42.4,75-99.8,140.5-168.5,192.6
	C125,405.9,174.6,345.6,224.1,285.3z"/>
<path class="st2" d="M495.2,207.6c0,25.9-20.9,46.8-46.8,46.8c-25.9,0-46.8-20.9-46.8-46.8c0-12.1,4.7-23.8,13.1-32.5
	c0.1-0.1,0.1-0.1,0.2-0.2c0.4-0.4,0.7-0.8,1.1-1.2c0,0,0,0,0,0c0,0,0,0,0,0c0.5-0.4,1-0.9,1.5-1.3c19.4-17,49-15.1,66.1,4.3
	C491.1,185.3,495.2,196.3,495.2,207.6L495.2,207.6z"/>
<circle class="st3" cx="436.9" cy="218.4" r="39.3"/>
<path class="st2" d="M464.9,180.7c-12.4-11.6-30.4-15.1-46.2-9c-0.2,0.1-0.5,0.2-0.7,0.3c0,0,0,0,0,0c-0.8,0.3-1.5,0.6-2.2,1
	l-0.5,0.2v0.1c-0.1,0.1-0.2,0.1-0.3,0.2c-0.2,0.2-0.4,0.3-0.7,0.4c-7.5,0.1-13.7,2.7-18.3,7.6c-6.1,6.6-9,17.3-8.1,30.1l0,0.4
	l0.3,0.2c3.2,2,6.3,3.8,9.2,5.3c1.7,0.9,3.4,1.8,5.1,2.6c0.2,0.1,0.4,0.2,0.6,0.3c17,7.9,32.5,9.3,47.5,4.3l0.3-0.1l6.3-10.6
	c1.3,7.4,7.2,13.3,14.6,14.6l2.6,0.5l3.9,0.7l0.2-0.7C482.6,211.6,477,192.2,464.9,180.7z"/>
<path class="st2" d="M561.4,263.1c-13.4-6.9,3.8-31.9,0.4-46.6c-3.5-14.6-28.3-19.3-29.9-34.3s-5.3-30.4-15.2-41.7
	c-6.3-7.2-15.6-12.6-25.2-11.7c-12.4,1.2-21.6,12.2-20.4,24.7c0.1,1.1,0.3,2.2,0.6,3.3c-2.7-3.9-9.8-3-11.5,1.4
	c-1.6,3.9,1.9,8.6,5.9,9c5.3,6.5,11.3,13.4,19.6,14.7c2.7,0.4,5.7,0.1,7.6-1.8s2.1-5.6-0.2-7c10.4,4.1,16.5,15.4,18,26.4
	c1.5,11.1-0.6,22.3-2,33.4s-2,22.8,2.3,33c5.1,12.2,17,20.9,29.9,23.7s26.7,0.1,38.3-6.1c11.7-6.2,21.4-15.6,29.4-26.1
	C595.3,267.2,576.3,270.8,561.4,263.1z"/>
<polygon class="st4" points="409.6,428 382.5,613.2 530.5,602 486.2,419.9 "/>
<path class="st2" d="M564.5,815.2c-0.1,0.6-0.3,1.3-0.5,1.9c-17.1,6.2-34.6,11.2-52.3,15.1c-3.7-12.3-10.9-35.6-17.2-54.6
	c-5.1-15.6-9.7-28.3-11.2-29.9c-4.4-4.4,0-10.2,0-10.2l-18.8-58.3l-8.5-26.5l-2.9,55.6l-4.2,80.6l-0.1,2.3c0,0-5.8,17.5-2.9,20.4
	s-2.9,14.6-2.9,14.6l-1.7,15.3c-2.1,0.1-4.3,0.2-6.4,0.2L434,842l-0.6-0.2c-2.9,0.1-5.8,0.1-8.7,0.2c-1.2,0-2.5,0-3.7,0
	c-0.6,0-1.2,0-1.7,0c-8.4,0-16.7-0.3-25-0.8l-5.1-41.8l-5.3-43.1c0,0,5.8-11.7,0-17.5c-3.5-3.5-1.8-8.6,0.2-12.1
	c-1.2-5.4-2.9-13.7-5.1-26c-0.1-0.4-0.2-0.8-0.2-1.2c-0.7-3.9-1.3-7.7-1.9-11.5c-1-6.6-1.8-13-2.4-19c-2-19.7-2.3-39.5-0.8-59.3
	c0.6-7,1.3-12.2,1.7-15.1c0-0.3,0.5-1.8,1.2-4.3c1.1-4,2.9-10.3,4.9-17.3c1.1-3.7,2.2-7.7,3.3-11.6c2-6.8,3.9-13.6,5.5-19v0
	c1.4-4.8,2.5-8.6,3.1-10.5c0.3-1,0.4-1.5,0.4-1.5s0.3-0.1,0.9-0.2c1.8-0.4,6.3-1.4,12.6-2.8c6.5-1.4,14.9-3.1,24.2-4.9
	c7.9-1.5,16.4-3.1,24.9-4.5c3-0.5,6.1-1,9.1-1.4c18.5-2.8,35.5-4.3,43.6-2.5c0.6,0.1,1.1,0.3,1.7,0.5c0.5,0.2,1.1,0.4,1.6,0.7
	c0.2,0.2,2.7,9.6,5.8,21.9c0,0.1,0.1,0.2,0.1,0.4c0.9,3.7,1.9,7.7,2.9,11.7c1,4.1,2.1,8.3,3.1,12.4c3,12.2,5.8,23.5,7.3,29
	c0.5,2.1,0.9,3.4,1,3.5c3.4,5.6,6.1,19.4,8.4,36.7c2,15.5,3.6,33.7,4.8,51.4c0.6,8.8,1.1,17.4,1.6,25.5c1.5,27.3,2.1,48.7,2.1,48.7
	s2.2,17.8,6.7,26.2c0.5,1.1,1.2,2.1,2.1,3c3,3,3.3,5.5,2.9,7.3c-0.2,0.9-0.5,1.7-1,2.4c-0.1,0.2-0.2,0.3-0.4,0.5
	c-0.8,3.7,0.3,7.5,2.9,10.2C565.2,808.6,565,812.7,564.5,815.2z"/>
<path class="st5" d="M516,368.6c-0.2-1.3-0.3-2.5-0.5-3.8c-0.1-0.8-0.2-1.6-0.4-2.5c-1.3-8.2,4-15.2-2.8-20.8
	c-1.6-1.3-2.9-2.9-3.8-4.8l-1.6-3.2l-2.9-5.9l-6.3-12.7l-1.1-2.2c-0.3-0.6-0.7-1.2-1.1-1.8c-1.2-1.7-2.7-3.2-4.5-4.2l-15.7-9.4
	c-2.4-1.4-4.4-3.6-5.6-6.1l-0.4-0.8c-1.7-3.5-4.8-12-8.5-15.7l0,0c-0.8-0.9-1.9-1.5-3.1-1.8l-15.6-1.6c-5.1-0.5-10.1,1.7-13.1,5.8
	l-0.4,2l-2.5,11.4l-0.1,0c-0.7,0.2-1.5,0.3-2.2,0.5c-16.2,4.4-23,61.1-23,61.1s-11.3,18.7-6.9,30.3l8,18.7c0.1,0.1,0.1,0.3,0.1,0.4
	c0.7,2,1,4.2,0.7,6.4l0,0.7l0,1.6l0.1,4.1l0.2,13.7l0.2,17.1l0.2,14.6l0.1,3.9l-13.1,57c-0.4,3.8,0.7,7.6,3,10.6l0,0
	c0.3,0.4,0.6,0.7,0.9,1.1l0,0c0.3,0.3,0.6,0.6,1,0.9c3.2,2.8,7.5,4,11.7,3.4l1.8-0.3h0l25.4-3.8h0l2.9-0.4h0l28.4-4.3h0l4.9-0.7
	c0.4,0,0.8-0.1,1.2-0.1l26-1.8c0.6,0,1.2-0.1,1.8-0.2h0c4.6-0.9,8.6-4,10.5-8.4c0.4-0.9,0.7-1.8,0.9-2.7c0.2-1,0.3-2,0.4-3l0.3-24.5
	l1-79.2c0-2.6,0.8-5.2,2.2-7.5C518.1,394.2,517.7,381.9,516,368.6z"/>
<path class="st3" d="M472.3,580.2c-1.4-7.6,3.7-14.9,11.3-16.3c0.8-0.1,1.6-0.2,2.5-0.2l16.2-47.2l15.8,20.6l-17.8,41.7
	c-0.5,7.8-7.2,13.7-15,13.2C478.8,591.5,473.4,586.7,472.3,580.2L472.3,580.2z"/>
<path class="st5" d="M534.3,480.9l-3.7,9.2l-5.1,56.9c-1.6,0.4-3.1,1-4.5,1.9c-6.2,3.9-9,11.5-6.7,18.4l1.5,4.5l-11.2-3.4l-18.3-5.6
	l-21.6-6.6l3.7-11.9c1.7-5.5,0.6-11.6-3-16.1c-0.4-0.6-0.9-1.1-1.4-1.6l1.4-10.2l0.8-6.1l-9.9,7.5L437,532.4h0l-2.6,2
	c0,0-0.1-0.5-0.4-1.5c-0.5-1.9-1.4-5.6-2.6-10.7c-5.8-25.4-10.1-51.2-12.9-77.1c-0.6-5.8-1.1-11.8-1.5-17.9
	c-0.4-6.2-0.8-12.6-0.9-19c-1.4-51.9,6.5-106.4,39.9-134.2c1.6,0,3.2,0.3,4.8,0.8c13.5,4.1,28.3,24.4,38.5,38.9
	c2.4,3.4,4.6,6.5,6.4,9l4.4,6c6,8.2,10.2,17.7,12.3,27.7c0.4,2.1,0.8,4.3,1,6.4l4.8,44.5v11.5L534.3,480.9z"/>
<path class="st6" d="M24.4,560.7c8.7,10.3,18.1,20,28.1,29l737.6,1c10-9,19.4-18.7,28.1-29L24.4,560.7z"/>
<path class="st7" d="M424.7,842c-1.2,0-2.5,0-3.7,0c-0.6,0-1.2,0-1.7,0c-8.4,0-16.7-0.3-25-0.8l0.2,1.6l-0.7-1.7l-15.8-36.9
	l11.2-4.8l20.6-8.8l6.3,21.5l6,20.6l1.8,6.1L424.7,842z"/>
<path class="st7" d="M351.3,799.1l-4.5,36.3c-10.2-1.8-20.2-4-30.2-6.5v-29.8L351.3,799.1z"/>
<path class="st8" d="M193.3,732.2v43c-6.1-3.9-12-8-17.9-12.2v-30.8H193.3z"/>
<path class="st9" d="M262.6,725v21.5c0,8.2-6.7,14.9-14.9,14.9h-74.5c-14.2-10.4-27.8-21.6-40.6-33.7c-6.1-5.7-12-11.6-17.7-17.6
	h132.8C256,710.1,262.6,716.8,262.6,725L262.6,725z"/>
<path class="st2" d="M437.2,841l-2.5,0.8L434,842l-0.6-0.2c-2.9,0.1-5.8,0.1-8.7,0.2c-1.2,0-2.5,0-3.7,0c-0.6,0-1.2,0-1.7,0
	c-8.4,0-16.7-0.3-25-0.8l0.2,1.6l-0.7-1.7c-3-0.2-5.9-0.4-8.8-0.7l-23.3-39l-47.9-80.2l-5.5-9.3c0,0-18.9,5.6-45.7,11
	c-20.2,4.1-44.8,8-69.2,9.2c-6,0.3-12,0.5-17.9,0.4c-15.2-0.1-29.9-1.5-42.7-4.9c-6.1-5.7-12-11.6-17.7-17.6
	c-9.7-10.3-19-21.1-27.6-32.3c-0.1-4.1,0.1-8.2,0.6-12.3c0.1-0.7,0.2-1.4,0.3-2.1L91,617l20.3-2.7l30.9-4.1l33.4-4.4l3.7,28.8
	c0,0,26-1.3,59-0.9c53,0.7,123.8,6,133.5,28.7c0.9,2.1,1.8,4.3,2.7,6.4c18.6,44.7,35.8,92.2,47.4,126c2.2,6.4,4.2,12.4,6,17.7
	C433.7,830.1,437.2,841,437.2,841z"/>
<path class="st2" d="M380.5,688c-0.5,4.2-1,8.5-1.5,12.7c-4.8,37.2-11.4,72.8-17.3,100.9c-2.9,13.7-5.6,25.7-7.8,35.2
	c-2.4-0.4-4.7-0.8-7.1-1.2c-10.2-1.8-20.2-4-30.2-6.5c-3-0.8-5.9-1.5-8.8-2.3l5.9-105.3l2-34.8l61.1,1.4L380.5,688z"/>
<path class="st7" d="M478.7,525.1c9.6-5.4,21.8-1.9,27.1,7.7c0.6,1,1.1,2.1,1.4,3.2l70.9,0.1l-20.3,30.7l-64.2-4.8
	c-10.7,2.9-21.7-3.4-24.6-14.1C466.5,539,470.6,529.6,478.7,525.1L478.7,525.1z"/>
<path class="st5" d="M517.3,566.7L645,579.3l0.3-0.4c0.6-0.8,64.6-82.6,75.3-102.1c6.6-11.7,9-25.3,6.8-38.6l-0.1-0.3l-0.3-0.2
	c-10.7-9-26.3-9.3-37.4-0.8c-25.9,20.1-46.8,45.9-61.1,75.5l-8.1,16.8l-93.7,4L517.3,566.7z"/>
<path class="st7" d="M468.1,797.2l-18.8,43.8c-2.7,0.2-5.4,0.3-8.1,0.5c-2.1,0.1-4.3,0.2-6.4,0.2L434,842l-0.6-0.2
	c-2.9,0.1-5.8,0.1-8.7,0.2c-1.2,0-2.5,0-3.7,0c-0.6,0-1.2,0-1.7,0l1.2-4.3l1.5-5.1l5.8-20.1l8.4-29l12.5,5.4L468.1,797.2z"/>
<path class="st7" d="M603.7,800.4c-9.7,4.7-19.5,9-29.6,12.9l-9.8-16.5l31.7-13.9L603.7,800.4z"/>
<path class="st8" d="M670.6,725.2V760c-5.8,4.3-11.8,8.5-17.9,12.5v-47.4H670.6z"/>
<path class="st9" d="M733.5,703.1c-5,5.6-10.2,11-15.5,16.3c-12.5,12.5-25.9,24.2-39.9,35h-79.8c-4.3,0-8.4-1.8-11.2-5.1l0,0
	c-1.7-1.9-2.8-4.1-3.4-6.6l0,0c-0.2-1.1-0.3-2.1-0.3-3.2V718c0-8.2,6.7-14.9,14.9-14.9H733.5z"/>
<path class="st2" d="M766.4,619.3l-8.7,37.1c0.8,5.4,1.1,10.8,0.8,16.2c-4.1,5.5-8.3,10.9-12.7,16.2c-4,4.9-8.1,9.6-12.4,14.3
	c-5,5.6-10.2,11-15.5,16.3c-13.9,4.4-30.2,6.1-47.3,6.3c-5.9,0-11.9-0.1-17.9-0.4c-24.4-1.3-49-5.2-69.2-9.2
	c-5.3-1.1-10.4-2.1-15-3.2c-8.8-2-16.1-3.8-21.4-5.2c-6-1.6-9.4-2.6-9.4-2.6l-22.7,38l-20.6,34.5l-37.6,62.9
	c-2.5,0.2-5.1,0.4-7.6,0.6c-2.7,0.2-5.4,0.3-8.1,0.5c-2.1,0.1-4.3,0.2-6.4,0.2L434,842l-0.6-0.2l-9.6-3.1l-3.2-1l-11.7-3.7
	c0,0,2.6-8.2,7.2-21.9c1.7-5,3.6-10.8,5.8-17.2c7.9-23.1,18.8-54,31.2-86.5c3.7-9.6,7.5-19.4,11.4-29.2c3.2-8,6.5-16,9.8-23.8
	c5.8-13.6,33.7-21,66.5-24.8c1.7-0.2,3.3-0.4,5-0.6c16.7-1.8,34.5-2.7,51.1-3.1c8.3-0.2,16.3-0.3,23.8-0.3c2.4,0,4.8,0,7,0h0
	c6.2,0,11.8,0.1,16.8,0.2c1,0,1.9,0,2.8,0.1h0c0.6,0,1.2,0,1.8,0c10.9,0.3,17.6,0.6,17.6,0.6l2.6-20.3l0.5-4.1l0.5-3.9v0l0.1-0.5
	l0.4,0l7.2-0.1l60.5-1.2l33.1-0.7L766.4,619.3z"/>
<path class="st2" d="M611.2,796.7c-2.5,1.3-5,2.5-7.5,3.7c-9.7,4.7-19.5,9-29.6,12.9c-2.9,1.1-5.8,2.2-8.7,3.3
	c-0.3-0.5-0.7-0.9-1-1.3c-13.9-19-31.5-44.2-49.4-72.2c-7.5-11.7-15-23.9-22.3-36.4l52.8-24.6l5.9-2.8l17,33.5l15.2,29.9l3.4,6.7
	L611.2,796.7z"/>
<circle class="st7" cx="687.8" cy="331.4" r="48.6"/>
<path class="st2" d="M686.2,377.9c11.4,5.5,25.4,3.6,36.2-2.8s18.8-16.9,24.4-28.2c4.1-8.3,7.1-17.8,4.7-26.7s-11.8-16.4-20.7-13.8
	c6.1-4.9,5.4-14.9,0.5-21s-12.6-9-20.1-11.1c-10.8-3.2-22.2-5.4-33.4-3.8s-22.2,7.7-27.4,17.7c-7.5,1.9-15.4-1.4-19.1-8.2
	c-2.5,6.5-0.3,13.9,5.3,18l-15.1-8.2c-3.9,5.3-0.4,13.5,5.5,16.5s12.9,2.2,19.3,0.6s-1.1,11.9,5.4,12s13.7,3.6,15.6,9.9
	c1,3.3,0.4,6.9,0.7,10.3s1.9,7.3,5.3,8.2c2.1,0.6,4.4-0.2,6.5,0.4c2.6,0.8,4.2,3.6,4.4,6.2s-0.6,5.4-1.5,7.9
	c-3.3,10.2,7.3,4.5,4,14.6L686.2,377.9z"/>
<path class="st5" d="M781.6,521.6c-0.4-40.2-2.2-67.5-5.4-81.4c-8.5-37.2-48-44-54.2-44.8c-2.6-7.1-10.5-10.6-17.6-8
	c-0.3,0.1-0.6,0.2-0.9,0.4l-28,12.8c-11.5,5.3-20.3,15.1-24.3,27.1l-4.2,12.7l-2.1,85.2l6.9,35.8l0,0l4.7,24.2l-3.2,4.8l-18.3,27.4
	l-0.3,0.5l0,0l-0.8,1.2c1.1,0.6,2.2,1.2,3.3,1.8c2.8,1.5,5.5,3,8.2,4.5c0.6,0.4,1.3,0.7,1.9,1.1h0c0.4,0.2,0.8,0.4,1.2,0.7
	c10,5.6,19.1,10.7,27.2,15.5c1.1,0.7,2.3,1.3,3.4,2c37.8,22.1,57,35.7,66.7,43.7c4.4-5.3,8.6-10.7,12.7-16.2c3.7-5,7.3-10,10.8-15.2
	c0.6-4,1-8,1.4-12c0.5-4.7,1-9.7,1.8-14.5c0.4-2.1-1-4.2-2.4-6.1c-1.3-1.8-2.5-3.5-2.2-5.2c0.3-1.7,2.1-3.5,3.9-5.3
	c2-1.9,4-3.9,4.3-6c0.8-5.9,1.5-11.8,2.1-17.7c1-9.6,1.8-19.3,2.3-29C781.4,548.3,781.7,534.9,781.6,521.6z"/>
<path class="st7" d="M596.5,663.3c3.1-10.6,14.2-16.6,24.8-13.5c1.1,0.3,2.2,0.8,3.3,1.3l50.7-49.6l7,36.2L633,679.2
	c-5.6,9.6-17.9,12.8-27.4,7.2C597.5,681.8,593.8,672.2,596.5,663.3L596.5,663.3z"/>
<path class="st5" d="M653.2,666l100.1-80.3l-0.1-0.5c-0.1-1-11.7-104.2-17.7-125.7c-3.5-13-11.3-24.4-22.1-32.3l-0.3-0.2l-0.3,0
	c-14,1.1-25.3,11.7-27.3,25.6c-4.5,32.5-1.3,65.6,9.2,96.7l6,17.7l-64.1,68.4L653.2,666z"/>
<circle class="st10" cx="140.5" cy="335.8" r="43.4"/>
<path class="st9" d="M82.2,666.3l-0.2-0.3c-12.6-17.7,6.4-60.2,9.2-66.4l0,0c-7-2.3-11.5-9.2-10.6-16.5l1.2-10.5l1.3-10.3l-9.2-9.2
	l0-0.2l-5.3-46.5l-7.7-30.9c-5.9-23.8,1.4-48.9,19.2-65.7l17.9-2.8l21.7-20.9h35l12,11.5c23.6,19.3,29.2,10.9,55.8,47.3l-19,50.2
	l10.6,74l0,13.4l5.5,6.2c4,4.5,5.7,10.6,4.5,16.6l-0.7,3.6l0,0c5.7,2.5,9.9,7.5,11.2,13.6l1.9,9.1c1.7,2.2,12.7,16.9,12.7,20.9
	c0,0.6-0.4,1.2-1.4,1.8c-7.5,5.1-48.9,15.4-67.2,8.1c-19.5-7.8-97.1,3.9-97.9,4L82.2,666.3z"/>
<path class="st10" d="M60.2,490.3l36.1-7.1c13.3,19.9,20.5,74.4,20.5,74.4l39.9,82.7c7.7,4.7,10.1,14.6,5.4,22.3
	s-14.6,10.1-22.3,5.4c-5.1-3.1-8.1-8.7-7.8-14.7l-52-98L60.2,490.3z"/>
<path class="st9" d="M60,498.8l-1-53.6l17-22.7c6.8-9.1,18.2-13.5,29.4-11.4l0,0c15.4,3,25.8,17.4,23.8,32.9
	c-2.9,22.7-9.4,51.1-24.2,57.5l-0.1,0.1l15.3,53.6l-56.9,7.9L60,498.8z"/>
<path class="st10" d="M274.2,494.1c0,0-43.3-33.8-66.8-38.7l-20.8,30.3l56.2,34.4l109.4,31.6c6,6.7,16.3,7.2,22.9,1.2
	c6.7-6,7.2-16.3,1.2-22.9c-4-4.4-10-6.3-15.8-4.9L274.2,494.1z"/>
<path class="st9" d="M198.1,500.9l-45.1-29l-9.4-26.7c-3.7-10.7-1.1-22.6,6.9-30.7l0,0c11.1-11.1,28.8-11.7,40.6-1.5
	c17.3,15,39.5,20.1,36.6,35.9l8.3,1.2l42.5,32.3l-25.1,51.7L198.1,500.9z"/>
<path class="st2" d="M91.3,307.3c4.9-7.5,14-12.6,22.9-11.1c2.5-17.1,18.3-28.9,35.4-26.4c6.3,0.9,12.3,3.8,16.9,8.2
	c2.6-2.1,6.4-2.2,9.5-1c3.1,1.4,5.7,3.5,7.7,6.2c10.4,12.9,12.8,30.5,6.3,45.7c1.1-3.9-2.9-7.6-6.9-8.5c-4-0.9-8.2,0-12.2-0.6
	c-5.2-0.7-9.8-3.7-15-4.4c-4.4-0.6-8.7,0.5-13,1.7c-4.3,1.1-8.6,2.3-13,1.7c-4.4-0.5-10,16-9.9,27.7c0,2.2-0.4,5-2.6,5.5
	c-2.7,0.6-4.2-3.1-6.7-4.1c-2.3-0.9-5,0.8-5.7,3.1c-0.6,2.4-0.1,4.9,1.5,6.8c1.6,1.9,3.4,3.5,5.5,4.7l-1,0.9c-1.7,2.3-5.3,2.4-7.8,1
	c-2.5-1.4-4.1-3.9-5.6-6.4c-4.6-7.7-8.7-15.9-10.3-24.7S86.4,314.8,91.3,307.3z"/>
<path class="st11" d="M472.3,380.2c4.4,18.3,6.4,37.2,6,56c-0.4,18.9-3.1,37.6-8.2,55.7c-2.9,10.3-6.5,20.3-10.8,30
	c-0.8,1.7,1.8,3.3,2.6,1.5c7.8-17.5,13.3-36,16.5-54.9c3.1-18.9,3.8-38.2,2.1-57.3c-1-10.7-2.7-21.4-5.3-31.8
	C474.8,377.5,471.9,378.3,472.3,380.2L472.3,380.2z"/>
<path class="st11" d="M752.4,508.5l-25.1,61.2c-4,9.9-8,19.8-12.2,29.5c-3.8,8.8-8.1,17.7-14.5,24.9c-6.4,7.3-15.1,13.3-24.9,14.4
	c-1.9,0.2-1.9,3.2,0,3c9-1.1,17.1-5.5,23.6-11.7c7.1-6.7,12-15.2,16.1-24c4.5-9.8,8.4-19.9,12.5-29.8l12.8-31.3l14.5-35.4
	C756.1,507.5,753.2,506.7,752.4,508.5L752.4,508.5z"/>
<path class="st2" d="M455.2,564.1c0.9,2.6,3.4,4.4,6.2,4.3l26.5-0.7c2.8-0.1,5.2-2,6-4.7l3.7-40.1c1.3,0.6,2.8,0.9,4.2,0.9
	c5.3-0.1,9.5-4.6,9.4-9.9c-0.1-5.3-4.6-9.5-9.9-9.4c-0.6,0-1.2,0.1-1.7,0.2c-1.3-1.4-3-2.1-4.9-2.1l-40.8,1.1c-0.3,0-0.7,0.1-1,0.1
	c-3.5,0.6-5.7,4-5.1,7.4c0.1,0.3,0.1,0.6,0.2,0.8L455.2,564.1z M498.3,520.3l2.7-9.6c0.3-1.1,0.3-2.3,0-3.4c0.1,0,0.2-0.1,0.4-0.1
	c3.8-0.1,7,3,7.1,6.8c0.1,3.8-2.9,7-6.7,7.1C500.5,521.1,499.4,520.8,498.3,520.3z"/>
<path class="st9" d="M453,503.8c0.9,5,10.6,8.5,22.4,7.8c10.8-0.5,19.6-4.3,21.2-8.8c-0.6-0.2-1.2-0.3-1.8-0.2l-40.8,1.1
	C453.6,503.7,453.3,503.7,453,503.8z"/>
<path class="st2" d="M366.9,510c1.1-3.3-0.7-6.9-4-8c-0.3-0.1-0.6-0.2-0.8-0.2c-0.3-0.1-0.7-0.1-1-0.1l-40.8-1.1
	c-1.8,0-3.6,0.7-4.9,2.1c-0.6-0.1-1.2-0.2-1.7-0.2c-5.3-0.1-9.8,4.1-9.9,9.4c-0.1,5.3,4.1,9.8,9.4,9.9l0,0c1.5,0,2.9-0.3,4.2-0.9
	l3.7,40.1c0.7,2.7,3.2,4.6,6,4.7l26.5,0.7c2.8,0,5.3-1.7,6.2-4.3L366.9,510z M313.3,519.1c-3.8-0.1-6.8-3.3-6.7-7.1
	c0.1-3.8,3.2-6.8,7.1-6.7c0.1,0,0.2,0.1,0.4,0.1c-0.3,1.1-0.3,2.3,0,3.4l2.7,9.6C315.6,518.8,314.5,519.1,313.3,519.1z"/>
<path class="st9" d="M362,501.8c-0.9,5-10.6,8.5-22.4,7.8c-10.8-0.5-19.6-4.3-21.2-8.8c0.6-0.2,1.2-0.3,1.8-0.2l40.8,1.1
	C361.4,501.7,361.7,501.7,362,501.8z"/>
<path class="st3" d="M323.4,414.7c7.7-5.6,18.5-3.9,24.2,3.8c0.6,0.8,1.1,1.7,1.6,2.6l61-7.4l-14.3,28.6l-55.8,2.6
	c-8.9,3.6-19-0.6-22.7-9.5C314.5,428,316.9,419.4,323.4,414.7L323.4,414.7z"/>
<path class="st5" d="M522.4,356.5c-1.8,3.5-4,7.6-6.5,12.1c-8.6,15.8-20.5,36.2-29.7,51.7c-7.8,13.2-13.6,22.9-13.8,23.2l-0.2,0.4
	l-53.7,1.2l-11.5,0.3l-3.9,0.1l-42.1,1l0.4-2.5l3.9-24.8l0.4-2.5l36.8-6.1l13.5-2.2l29.9-5l5.2-15.3c9.1-26.9,24.4-51.4,44.6-71.4
	c0.6-0.6,1.2-1.1,1.8-1.6c0.5-0.4,1.1-0.9,1.7-1.2c2.4,3.4,4.6,6.5,6.4,9l4.4,6C516.2,337,520.4,346.5,522.4,356.5z"/>
<path class="st6" d="M299.2,448.1c0.9,2.6,3.4,4.4,6.2,4.3l26.5-0.7c2.8-0.1,5.2-2,6-4.7l3.7-40.1c1.3,0.6,2.8,0.9,4.2,0.9
	c5.3-0.1,9.5-4.6,9.4-9.9s-4.6-9.5-9.9-9.4c-0.6,0-1.2,0.1-1.7,0.2c-1.3-1.4-3-2.1-4.9-2.1l-40.8,1.1c-0.3,0-0.7,0.1-1,0.1
	c-3.5,0.6-5.7,4-5.1,7.4c0.1,0.3,0.1,0.6,0.2,0.8L299.2,448.1z M342.3,404.3l2.7-9.6c0.3-1.1,0.3-2.3,0-3.4c0.1,0,0.2-0.1,0.4-0.1
	c3.8-0.1,7,3,7.1,6.8c0.1,3.8-2.9,7-6.7,7.1C344.5,405.1,343.4,404.8,342.3,404.3z"/>
<path class="st9" d="M297,387.8c0.9,5,10.6,8.5,22.4,7.8c10.8-0.5,19.6-4.3,21.2-8.8c-0.6-0.2-1.2-0.3-1.8-0.2l-40.8,1.1
	C297.6,387.7,297.3,387.7,297,387.8z"/>
</svg>
