<?xml version="1.0" encoding="utf-8"?>
<!-- Generator: Adobe Illustrator 25.4.4, SVG Export Plug-In . SVG Version: 6.00 Build 0)  -->
<svg version="1.1" id="Layer_1" xmlns="http://www.w3.org/2000/svg" xmlns:xlink="http://www.w3.org/1999/xlink" x="0px" y="0px"
	 viewBox="0 0 584 440" style="enable-background:new 0 0 584 440;" xml:space="preserve">
<style type="text/css">
	.st0{fill:#F2F2F2;}
	.st1{fill:#FFB6B6;}
	.st2{fill:#2F2E41;}
	.st3{fill:#3F3D56;}
	.st4{fill:#F89939;}
	.st5{fill:#E6E6E6;}
	.st6{fill:#6C63FF;}
	.st7{fill:#FFFFFF;}
</style>
<rect x="144.5" y="294" class="st0" width="2.1" height="24.9"/>
<path class="st0" d="M155.1,294.7h-19.8c-1.8,0-3.2-1.4-3.2-3.2v-7.4c0-1.8,1.4-3.2,3.2-3.2h19.8c1.8,0,3.2,1.4,3.2,3.2v7.4
	C158.4,293.2,156.9,294.7,155.1,294.7z M142.7,282.3c-5.1,0-9.2,4.1-9.2,9.2l0,0c0,1,0.8,1.8,1.8,1.8h19.8c1,0,1.8-0.8,1.8-1.8v-7.4
	c0-1-0.8-1.8-1.8-1.8H142.7z"/>
<rect x="262.5" y="354" class="st0" width="2.1" height="24.9"/>
<path class="st0" d="M273.1,354.7h-19.8c-1.8,0-3.2-1.4-3.2-3.2v-7.4c0-1.8,1.4-3.2,3.2-3.2h19.8c1.8,0,3.2,1.4,3.2,3.2v7.4
	C276.4,353.2,274.9,354.7,273.1,354.7z M260.7,342.3c-5.1,0-9.2,4.1-9.2,9.2l0,0c0,1,0.8,1.8,1.8,1.8h19.8c1,0,1.8-0.8,1.8-1.8v-7.4
	c0-1-0.8-1.8-1.8-1.8H260.7z"/>
<polygon class="st1" points="478.5,429.6 470.5,429.6 466.7,398.8 478.5,398.8 "/>
<path class="st2" d="M478.8,437.9l-24.5,0v-0.3c0-5.3,4.3-9.5,9.5-9.5h0l4.5-3.4l8.4,3.4l2.1,0L478.8,437.9L478.8,437.9z"/>
<polygon class="st1" points="439.1,429.6 431.2,429.6 427.4,398.8 439.1,398.8 "/>
<path class="st2" d="M439.4,437.9l-24.5,0v-0.3c0-5.3,4.3-9.5,9.5-9.5h0l4.5-3.4l8.4,3.4l2.1,0L439.4,437.9L439.4,437.9z"/>
<polygon class="st2" points="443.4,255.5 497.5,253 502.9,284.5 499.4,295.3 496.5,307.6 487.6,350.9 480.2,414.8 464.6,414.8 
	464.3,354.1 467.9,349.1 467.9,345.7 465.4,301.5 449,344.3 450.5,350.2 446.1,361 440.7,414.8 426.1,414.8 422.9,341.3 
	434.7,296.1 434.7,287.7 436.7,283.8 "/>
<polygon class="st3" points="479,154.4 459.3,154.4 456.9,165.2 437.7,174.1 444.6,224.2 440.7,240.5 440.7,246.9 438.7,252.8 
	437.7,271.6 505.1,276.4 500.7,266.5 502.1,260.6 500.7,257.2 496.7,228.2 499.7,172.1 484.4,166.7 "/>
<path class="st1" d="M377.2,247.6l14.1-11.7l7.8,7.1l-15.4,11.9c-0.1,0.6-0.3,1.2-0.6,1.7c-1.6,3-5.3,4.2-8.3,2.6s-4.2-5.3-2.6-8.3
	C373.3,248.9,375.2,247.8,377.2,247.6z"/>
<path class="st3" d="M450.2,178.1l-7.5-3c-2.3-1.4-5.3-1.1-7.3,0.8c-3.8,3.6-9.3,9.5-9.8,14c0,0-17.9,18.6-18.2,22.1
	s-24.8,30-24.8,30l11.4,8.5l46.3-44.3l4.2-22.4C446.5,180.8,453.2,179.9,450.2,178.1L450.2,178.1z"/>
<circle class="st1" cx="469.9" cy="135.8" r="16.9"/>
<path class="st2" d="M487.9,143.8c-0.4-0.5-0.6-1.1-0.9-1.6c0,0.8,0,1.6,0.1,2.4c0,0.1,0,0.3,0.1,0.5c0,0,0,0.1,0,0.1c0,0,0,0,0,0.1
	c-1.2,2.2-2.5,3.6-3.5,4c-2.4,1-5.7,1.8-5.9,2c0.2-0.4,8.8-13.8,5.9-14.8c-3-1-2.7,0.8-2.7,0.8c-1.3-5.5-4-7.8-8.1-6.8
	c-5.3-0.2-10.5-1.8-13.2,3.8c-0.3-1.3-0.8-2.6-1.3-3.7c-0.1,1.2-0.1,2.6-0.5,3.8c-3.8,3.3-6,2.7-7.5,0.6c0-0.4,0-0.9,0-1.3
	c0-0.3,0.1-0.6,0.1-0.8c0.2-0.8,0.8-1.3,1.1-2c-0.7,0.4-1.4,0.7-2,1.2c-0.1,0.1-0.2,0.2-0.4,0.3c-0.4-2.6-1.7-11.1,2.5-8.2s2-3,2-3
	h5.1c0,0,0.9-1.2,2.4-2.4c0.3,0.1,0.5,0.2,0.8,0.3c0.8,0.3-1.7-2.5-1.1-2.1c-0.2-0.7,2.3,2,2,1.3c-0.1-0.1,0.1-2.1,0-2.3
	c2.9-1.7,16.6-1.7,21,2c5.6,4.7-1.5,2.3,5.6,11.5C492.4,133.2,492.2,136.7,487.9,143.8L487.9,143.8z"/>
<path class="st0" d="M348.1,440H64.9c-7.1,0-12.9-5.8-12.9-12.9V116.9c0-7.1,5.8-12.9,12.9-12.9h283.1c7.1,0,12.9,5.8,12.9,12.9
	v310.1C361,434.2,355.2,440,348.1,440z M137.9,106C91.6,106,54,143.6,54,189.9v237.1c0,6,4.9,10.9,10.9,10.9h283.1
	c6,0,10.9-4.9,10.9-10.9V116.9c0-6-4.9-10.9-10.9-10.9C348.1,106,137.9,106,137.9,106z"/>
<path class="st0" d="M515.1,440H390.9c-7.1,0-12.9-5.8-12.9-12.9V116.9c0-7.1,5.8-12.9,12.9-12.9h124.1c7.1,0,12.9,5.8,12.9,12.9
	v310.1C528,434.2,522.2,440,515.1,440z M390.9,106c-6,0-10.9,4.9-10.9,10.9v310.1c0,6,4.9,10.9,10.9,10.9h124.1
	c6,0,10.9-4.9,10.9-10.9V116.9c0-6-4.9-10.9-10.9-10.9L390.9,106L390.9,106z"/>
<path class="st0" d="M570.9,0H13.1C5.9,0,0,5.9,0,13.1v186.8c0,6.9,5.4,12.6,12.2,13.1c0.3,0,0.6,0,0.9,0h39.1v-2H13.1
	c-0.3,0-0.6,0-0.9,0C6.5,210.5,2,205.7,2,199.9V13.1C2,7,7,2,13.1,2h557.8C577,2,582,7,582,13.1v186.8c0,6.1-5,11.1-11.1,11.1h-44.7
	v2h44.7c7.2,0,13.1-5.9,13.1-13.1V13.1C584,5.9,578.1,0,570.9,0z"/>
<path class="st4" d="M193.8,315.4h-21.6c0-0.2,0-0.5,0.1-0.8c0.6-4.2,5.5-10.5,8.5-11.8c0.6-0.2,1.1-0.3,1.4-0.1
	c0.5,0.2,0.8,0.8,0.8,1.9c0,2.6,1.6,3.9,3.6,4.8c-0.5,0.8-1.1,1.4-2,1.6c1.7,0.4,4.2,0.8,6.2,0.3c1.5,0.8,2.6,1.7,2.9,3.3
	C193.8,314.8,193.8,315.1,193.8,315.4z"/>
<circle class="st3" cx="181.3" cy="301.3" r="1.7"/>
<path class="st5" d="M183,327.6c7.2,0,13-5.8,13-13h-26C170,321.8,175.8,327.6,183,327.6z"/>
<path class="st4" d="M247.8,355.4h-21.6c0-0.2,0-0.5,0.1-0.8c0.2-1.9,1.4-4.2,2.8-6.3c0.7,0.1,1.3,0.3,1.8,0.8
	c-0.2-0.6-0.5-1.3-0.8-2.1c1.6-2,3.3-3.6,4.7-4.2c0.6-0.2,1.1-0.3,1.4-0.1c0.5,0.2,0.8,0.8,0.8,1.9c0,6.3,9.8,5,10.7,10
	C247.8,354.8,247.8,355.1,247.8,355.4z"/>
<circle class="st3" cx="235.3" cy="341.3" r="1.7"/>
<path class="st5" d="M237,367.6c7.2,0,13-5.8,13-13h-26C224,361.8,229.8,367.6,237,367.6z"/>
<path class="st6" d="M234.7,301.9c-5.4,0-9.7,4.4-9.7,9.7h19.5C244.5,306.2,240.1,301.9,234.7,301.9z"/>
<path class="st4" d="M244.5,308.6H225c0-5.4,4.4-9.7,9.7-9.7c1.6,0,3.1,0.4,4.5,1.1c-0.1,0.1-0.1,0.2-0.2,0.4c-0.4,0.9,0.2,2,1.3,2
	c0.3,0,0.7,0,1-0.1l1.2,0.5C243.8,304.4,244.5,306.4,244.5,308.6L244.5,308.6z"/>
<path class="st5" d="M235,322.6c7.2,0,13-5.8,13-13h-26C222,316.8,227.8,322.6,235,322.6z"/>
<path class="st6" d="M441.7,213.9c-5.4,0-9.7,4.4-9.7,9.7h19.5C451.5,218.2,447.1,213.9,441.7,213.9z"/>
<path class="st4" d="M451.5,220.6H432c0-5.4,4.4-9.7,9.7-9.7c1.6,0,3.1,0.4,4.5,1.1c-0.1,0.1-0.1,0.2-0.2,0.4c-0.4,0.9,0.2,2,1.3,2
	c0.3,0,0.7,0,1-0.1l1.2,0.5C450.8,216.4,451.5,218.4,451.5,220.6L451.5,220.6z"/>
<path class="st5" d="M442,234.6c7.2,0,13-5.8,13-13h-26C429,228.8,434.8,234.6,442,234.6z"/>
<ellipse class="st4" cx="140.2" cy="178.8" rx="12.5" ry="12.2"/>
<path class="st0" d="M240.1,174.7H173c-2.3,0-4.2-1.9-4.2-4.2s1.9-4.2,4.2-4.2h67.1c2.3,0,4.2,1.9,4.2,4.2S242.4,174.7,240.1,174.7z
	"/>
<path class="st0" d="M292.5,188.8H173c-2.3,0-4.2-1.9-4.2-4.2s1.9-4.2,4.2-4.2h119.4c2.3,0,4.2,1.9,4.2,4.2S294.8,188.8,292.5,188.8
	z"/>
<path class="st0" d="M240.1,219.7H173c-2.3,0-4.2-1.9-4.2-4.2s1.9-4.2,4.2-4.2h67.1c2.3,0,4.2,1.9,4.2,4.2S242.4,219.7,240.1,219.7z
	"/>
<path class="st0" d="M292.5,233.8H173c-2.3,0-4.2-1.9-4.2-4.2s1.9-4.2,4.2-4.2h119.4c2.3,0,4.2,1.9,4.2,4.2S294.8,233.8,292.5,233.8
	z"/>
<g>
	<ellipse class="st4" cx="136.2" cy="51.8" rx="12.5" ry="12.2"/>
	<path class="st0" d="M236.1,47.7H169c-2.3,0-4.2-1.9-4.2-4.2s1.9-4.2,4.2-4.2h67.1c2.3,0,4.2,1.9,4.2,4.2S238.4,47.7,236.1,47.7z"
		/>
	<path class="st0" d="M288.5,61.8H169c-2.3,0-4.2-1.9-4.2-4.2s1.9-4.2,4.2-4.2h119.4c2.3,0,4.2,1.9,4.2,4.2S290.8,61.8,288.5,61.8z"
		/>
</g>
<path class="st0" d="M286.4,439.9l-1.9-0.6l12.9-41c1.1-3.5-8.8,43.2-11,40.3c-2.2-2.9,3.8-55,0.2-55h-160c-3.4,0-1,51.3-3.2,54
	c-2.2,2.7-8.6-43.7-7.9-40.4l7.9,37.2l-2,0.4l-7.9-37.2c-0.8-3.9,0.1-8,2.7-11.1s6.3-4.9,10.3-4.9h160c4.3,0,8.2,2,10.7,5.4
	c2.5,3.5,3.2,7.8,2,11.9L286.4,439.9L286.4,439.9z"/>
<path class="st0" d="M234,370.2l1.9,0.6l32.9,10.4c4.1,1.3,8.4,0.6,11.9-2c3.5-2.5,5.4-6.4,5.4-10.7l0-39c0-4-1.8-7.8-4.9-10.3
	c-3.1-2.5-7.2-3.5-11.1-2.7l-35.2,7.4l-2,0.4l0,0.1l0.4,1.9l0.3-0.1l2-0.4l34.9-7.4c3.4-0.7,6.8,0.1,9.5,2.3
	c2.7,2.2,4.2,5.4,4.2,8.8l0,39c0,3.6-1.7,7-4.6,9.1c-2.9,2.1-6.6,2.8-10.1,1.7l-33.3-10.5l-2-0.6L234,370.2L234,370.2z"/>
<path class="st0" d="M184.2,327.8l-1.9-0.6l-32.9-10.4c-4.1-1.3-8.4-0.6-11.9,2c-3.4,2.5-5.4,6.4-5.4,10.7l0,39
	c0,4,1.8,7.8,4.9,10.3s7.2,3.5,11.1,2.7l35.2-7.4l2-0.4l0-0.1l-0.4-1.9l-0.3,0.1l-2,0.4l-34.9,7.4c-3.4,0.7-6.8-0.1-9.4-2.3
	c-2.7-2.2-4.2-5.4-4.2-8.8l0-39c0-3.6,1.7-7,4.6-9.1c2.9-2.1,6.6-2.8,10.1-1.7l33.3,10.5l2,0.6L184.2,327.8L184.2,327.8z"/>
<path class="st1" d="M444.7,226l18-3.9l3.6,10l-19.1,3.4c-0.4,0.5-0.8,0.9-1.3,1.2c-2.8,1.9-6.6,1.2-8.6-1.6
	c-1.9-2.8-1.2-6.6,1.6-8.6C440.6,225.4,442.8,225.3,444.7,226L444.7,226z"/>
<path class="st3" d="M498.9,172.8L498.9,172.8c4.3-1,8.6,1.4,10,5.6c2.2,6.5,4.5,16,2.1,22.3l-2,16.2l-2.5,8.9v1.3l-52.6,7.6
	l-2.5-12.8l33.9-5.4l1-5.9l0.9-0.9l1.3-6.7l3.8-23.1C492.9,176.3,495.5,173.6,498.9,172.8L498.9,172.8z"/>
<path class="st6" d="M182.7,348.9c-5.4,0-9.7,4.4-9.7,9.7h19.5C192.5,353.2,188.1,348.9,182.7,348.9z"/>
<path class="st4" d="M192.5,355.6H173c0-5.4,4.4-9.7,9.7-9.7c1.6,0,3.1,0.4,4.5,1.1c-0.1,0.1-0.1,0.2-0.2,0.4c-0.4,0.9,0.2,2,1.3,2
	c0.3,0,0.7,0,1-0.1l1.2,0.5C191.8,351.4,192.5,353.4,192.5,355.6L192.5,355.6z"/>
<path class="st5" d="M183,369.6c7.2,0,13-5.8,13-13h-26C170,363.8,175.8,369.6,183,369.6z"/>
<circle class="st3" cx="177.2" cy="354.5" r="1.7"/>
<circle class="st3" cx="243.2" cy="307.5" r="1.7"/>
<rect x="221.1" y="364.9" class="st0" width="30" height="5"/>
<rect x="168.1" y="367.9" class="st0" width="30" height="5"/>
<rect x="168.1" y="325.9" class="st0" width="30" height="5"/>
<rect x="221.1" y="321.9" class="st0" width="30" height="5"/>
<circle class="st7" cx="139.9" cy="222.9" r="10.5"/>
<path class="st3" d="M139.9,234.1c-6.2,0-11.2-5-11.2-11.2s5-11.2,11.2-11.2s11.2,5,11.2,11.2S146.1,234.1,139.9,234.1z
	 M139.9,212.8c-5.6,0-10.1,4.5-10.1,10.1s4.5,10.1,10.1,10.1s10.1-4.5,10.1-10.1S145.4,212.8,139.9,212.8z"/>
<path class="st4" d="M138.4,228.4c-0.4,0-0.7-0.2-0.9-0.5l-2.9-3.8c-0.4-0.5-0.3-1.3,0.2-1.6c0.5-0.4,1.3-0.3,1.6,0.2l1.9,2.5
	l4.8-7.2c0.4-0.5,1.1-0.7,1.6-0.3c0.5,0.4,0.7,1.1,0.3,1.6l-5.7,8.6C139.2,228.1,138.8,228.3,138.4,228.4L138.4,228.4L138.4,228.4z"
	/>
<path class="st5" d="M236.6,287.8c2.7-6,3.3-12.8,1.9-19.2c-1.4-6.2-4.9-11.9-9.7-16.1c-2.7-2.3-5.8-4.2-9.1-5.5
	c-0.8-0.3-1.4,0.9-0.6,1.2c5.7,2.1,10.6,6.1,14,11.1c3.5,5.2,5.1,11.3,4.8,17.5c-0.2,3.5-1,7.1-2.4,10.3
	C235.1,288,236.3,288.6,236.6,287.8L236.6,287.8L236.6,287.8z"/>
<path class="st5" d="M223.6,243.1l-11.5-0.5c-0.4,0-0.8,0.5-0.6,0.9l4.6,11.8c0.3,0.8,1.6,0.4,1.3-0.4l-4.6-11.8l-0.6,0.9l11.5,0.5
	C224.5,244.5,224.5,243.2,223.6,243.1L223.6,243.1L223.6,243.1z"/>
<g>
	<path class="st5" d="M411.4,78.5c-1.2-6.4-4.6-12.4-9.4-16.8c-4.7-4.3-10.8-7-17.1-7.7c-3.5-0.4-7.1-0.2-10.6,0.7
		c-0.8,0.2-0.7,1.5,0.2,1.3c5.9-1.5,12.1-1.1,17.8,1.1c5.8,2.3,10.7,6.4,13.9,11.6c1.9,3,3.2,6.4,3.9,9.8
		C410.3,79.5,411.6,79.4,411.4,78.5L411.4,78.5L411.4,78.5z"/>
	<path class="st5" d="M375.3,49.2l-9.7,6.1c-0.4,0.2-0.4,0.8,0,1.1l10.5,7c0.7,0.5,1.5-0.6,0.8-1.1l-10.5-7l0,1.1l9.7-6.1
		C376.8,49.8,376,48.8,375.3,49.2C375.3,49.2,375.3,49.2,375.3,49.2z"/>
</g>
</svg>
