<?xml version="1.0" encoding="utf-8"?>
<!-- Generator: Adobe Illustrator 25.4.4, SVG Export Plug-In . SVG Version: 6.00 Build 0)  -->
<svg version="1.1" id="Layer_1" xmlns="http://www.w3.org/2000/svg" xmlns:xlink="http://www.w3.org/1999/xlink" x="0px" y="0px"
	 viewBox="0 0 828.1 484" style="enable-background:new 0 0 828.1 484;" xml:space="preserve">
<style type="text/css">
	.st0{fill:#3F3D56;}
	.st1{fill:#CCCCCC;}
	.st2{fill:#F89939;}
	.st3{fill:#F2F2F2;}
	.st4{fill:#FFFFFF;}
	.st5{fill:#FFB8B8;}
	.st6{fill:#2F2E41;}
	.st7{opacity:0.2;enable-background:new    ;}
</style>
<path class="st0" d="M502.5,269H17c-9.4,0-17-7.6-17-17V17C0,7.6,7.6,0,17,0h485.5c9.4,0,17,7.6,17,17v235
	C519.5,261.4,511.9,269,502.5,269z M17,2C8.7,2,2,8.7,2,17v235c0,8.3,6.7,15,15,15h485.5c8.3,0,15-6.7,15-15V17c0-8.3-6.7-15-15-15
	H17z"/>
<circle class="st1" cx="93.2" cy="49.5" r="9"/>
<circle class="st1" cx="93.2" cy="83.5" r="9"/>
<circle class="st1" cx="93.2" cy="117.5" r="9"/>
<circle class="st1" cx="93.2" cy="151.5" r="9"/>
<circle class="st1" cx="244.8" cy="219.5" r="9"/>
<circle class="st1" cx="179.8" cy="219.5" r="9"/>
<circle class="st1" cx="378.8" cy="219.5" r="9"/>
<circle class="st1" cx="310.8" cy="219.5" r="9"/>
<path class="st1" d="M434.2,50.5h-296c-0.6,0-1-0.4-1-1s0.4-1,1-1h296c0.6,0,1,0.4,1,1S434.8,50.5,434.2,50.5z"/>
<path class="st1" d="M434.2,84.5h-296c-0.6,0-1-0.4-1-1s0.4-1,1-1h296c0.6,0,1,0.4,1,1S434.8,84.5,434.2,84.5z"/>
<path class="st1" d="M434.2,118.5h-296c-0.6,0-1-0.4-1-1s0.4-1,1-1h296c0.6,0,1,0.4,1,1S434.8,118.5,434.2,118.5z"/>
<path class="st1" d="M434.2,152.5h-296c-0.6,0-1-0.4-1-1s0.4-1,1-1h296c0.6,0,1,0.4,1,1S434.8,152.5,434.2,152.5z"/>
<path class="st2" d="M194.2,186.5h-29c-2.8,0-5-2.2-5-5v-27c0-2.8,2.2-5,5-5h29c2.8,0,5,2.2,5,5v27
	C199.2,184.3,197,186.5,194.2,186.5z"/>
<path class="st2" d="M259.2,186.5h-29c-2.8,0-5-2.2-5-5v-61c0-2.8,2.2-5,5-5h29c2.8,0,5,2.2,5,5v61
	C264.2,184.3,262,186.5,259.2,186.5z"/>
<path class="st2" d="M325.2,186.5h-29c-2.8,0-5-2.2-5-5v-95c0-2.8,2.2-5,5-5h29c2.8,0,5,2.2,5,5v95
	C330.2,184.3,328,186.5,325.2,186.5z"/>
<path class="st2" d="M393.2,186.5h-29c-2.8,0-5-2.2-5-5v-128c0-2.8,2.2-5,5-5h29c2.8,0,5,2.2,5,5v128
	C398.2,184.3,396,186.5,393.2,186.5z"/>
<path class="st3" d="M663.5,478.3c-9-7.6-14.5-19.6-13-31.3c1.4-11.7,10.3-22.4,21.8-24.9s24.6,4.4,28.1,15.6
	c1.9-21.7,4.1-44.3,15.7-62.7c10.4-16.7,28.5-28.7,48.1-30.8c19.6-2.1,40.2,5.9,52.4,21.4s15.2,37.9,6.7,55.7
	c-6.3,13.1-17.9,22.8-30.1,30.7c-39.3,25.4-86.5,35.7-132.8,29L663.5,478.3z"/>
<path class="st4" d="M797.2,350.6c-16.2,13.2-31,27.9-44.3,44c-20.8,25.1-37.6,53.2-49.9,83.3c-0.9,2.2,2.7,3.2,3.6,1
	c20.1-49,52.1-92.2,93.2-125.6C801.6,351.7,799,349.1,797.2,350.6L797.2,350.6z"/>
<path class="st0" d="M568.6,203.1c-1.1,0-2.3-0.1-3.4-0.3h0c-0.2,0-0.4-0.1-0.6-0.1l-244.9-57c-2.7-0.6-4.4-2.3-4.1-3.9
	c0.3-1,1.1-1.7,2-1.9c1.2-0.3,2.4-0.4,3.6-0.1l246.4,51.5c5.5,1.2,9.4,4.6,8.8,7.8c-0.3,1.7-1.8,3-4.1,3.6
	C571.1,202.9,569.9,203.1,568.6,203.1z"/>
<path class="st5" d="M516.7,195.2c4.8,2.8,11,1.2,13.8-3.6c0.3-0.5,0.6-1,0.8-1.6l35.7,0.7l-9.9-15.7l-32.4,1.7
	c-5.4-1.6-11,1.5-12.6,6.8C510.8,188,512.7,192.8,516.7,195.2L516.7,195.2z"/>
<path class="st0" d="M532.2,189.5l-0.2-11c0-2.3,1.7-4.3,4.1-4.6l64.2-6.2l53.5-17.5c6.7-2.2,14,1.5,16.2,8.2s-1.5,14-8.2,16.2
	c-0.1,0-0.2,0.1-0.4,0.1l-59.2,17.5l-65.4,1.7c-2,0-3.8-1.3-4.4-3.2C532.3,190.3,532.3,189.9,532.2,189.5z"/>
<polygon class="st5" points="627.3,471.8 615,471.8 609.2,424.5 627.3,424.5 "/>
<path class="st6" d="M630.4,483.7l-39.5,0v-0.5c0-8.5,6.9-15.4,15.4-15.4c0,0,0,0,0,0h0l24.1,0L630.4,483.7z"/>
<polygon class="st5" points="663.3,471.8 651,471.8 645.2,424.5 663.3,424.5 "/>
<path class="st6" d="M666.4,483.7l-39.5,0v-0.5c0-8.5,6.9-15.4,15.4-15.4c0,0,0,0,0,0h0l24.1,0L666.4,483.7z"/>
<path class="st6" d="M671.5,280.7l-2.9,173.7c0,2.2-1.9,4-4.1,3.9c-0.1,0-0.2,0-0.3,0l-14.3-1.3c-1.9-0.2-3.5-1.7-3.6-3.7L637.8,345
	c0-0.6-0.5-1-1.1-0.9c-0.5,0-0.9,0.5-0.9,1l-4.2,110.8c-0.1,2.1-1.8,3.8-4,3.8h-15.4c-2.1,0-3.9-1.6-4-3.8l-10.8-176.2l64-16
	L671.5,280.7z"/>
<circle class="st5" cx="625.1" cy="93" r="24.6"/>
<path class="st0" d="M595.3,285.8c-0.9-0.8-1.4-2-1.4-3.2l-1.7-118.4c-0.2-12.4,7.6-23.4,19.3-27.4c2.3-10.4,14.5-11.7,21.7-11.6
	c3.6,0.1,7,1.9,9,4.9l5.1,7.7l11.3,6.6c10.7,6.3,16.2,18.7,13.5,30.8l-1.7,7.9c-6.1,28-5.5,57,1.7,84.7l3.5,13.3
	c0.6,2.4-0.8,4.9-3.2,5.5c-0.5,0.1-1,0.2-1.5,0.1l-4.1-0.3c-2.2-0.2-3.9-1.9-4.1-4l-0.7-6.7c0-0.3-0.3-0.5-0.5-0.4
	c-0.2,0-0.4,0.2-0.4,0.4l-0.7,6.5c-0.2,2.3-2.1,4-4.4,4.1l-57.4,0.9c0,0,0,0-0.1,0C597.3,287.1,596.1,286.7,595.3,285.8z"/>
<path class="st6" d="M627,107.2c0.1,3.5,2.5,5.5,5.5,7.3s6.4,2.6,9.8,3.4c1.5,0.8,3.3,0.2,4.1-1.2c0.2-0.4,0.3-0.9,0.4-1.4l3.1-11.8
	c1.1-3.8,1.9-7.6,2.4-11.5c0.7-7.5-1-15.6-6.3-21s-14.3-7.4-20.6-3.2c-7.5-9.5-41.5,11.5-33.1,18.1c1.5,1.2,3.8-0.3,5.7-0.5
	c1.9-0.1,4,0.2,5.2,1.7c1.6,1.9,0.9,4.8,1.5,7.2c1.1,3.5,4.9,5.5,8.4,4.4c0,0,0,0,0.1,0c1.6-0.8,3-1.7,4.4-2.8
	c1.5-1,3.3-1.7,4.9-1.1c2.2,0.8,2.9,3.5,3.1,5.7C625.9,102.7,626.4,104.9,627,107.2z"/>
<path class="st0" d="M808.9,484h-381c-0.6,0-1-0.4-1-1s0.4-1,1-1h381c0.6,0,1,0.4,1,1S809.5,484,808.9,484z"/>
<polygon class="st7" points="621.2,173 617.2,222 596.2,273 627.2,223 "/>
<path class="st5" d="M591.3,292c4.3-3.5,5-9.8,1.5-14.1c-0.4-0.5-0.8-0.9-1.2-1.3l13.4-33.1l-18.2,3.7l-9.9,30.9
	c-3.4,4.4-2.5,10.8,1.9,14.2C582.5,295,587.7,294.9,591.3,292L591.3,292z"/>
<path class="st0" d="M590.4,277.4l-10.3-3.7c-2.2-0.8-3.4-3.2-2.8-5.4l17-62.2l2.6-56.2c0.3-7.1,6.3-12.5,13.4-12.2
	c7.1,0.3,12.5,6.3,12.2,13.4c0,0.1,0,0.2,0,0.4l-4.6,61.6l-21.7,61.7c-0.7,1.9-2.5,3.1-4.6,3C591.2,277.6,590.8,277.5,590.4,277.4z"
	/>
<path class="st0" d="M434.2,186.5h-296c-0.6,0-1-0.4-1-1s0.4-1,1-1h296c0.6,0,1,0.4,1,1S434.8,186.5,434.2,186.5z"/>
</svg>
