<?xml version="1.0" encoding="utf-8"?>
<!-- Generator: Adobe Illustrator 25.4.4, SVG Export Plug-In . SVG Version: 6.00 Build 0)  -->
<svg version="1.1" id="Layer_1" xmlns="http://www.w3.org/2000/svg" xmlns:xlink="http://www.w3.org/1999/xlink" x="0px" y="0px"
	 viewBox="0 0 552.9 367.9" style="enable-background:new 0 0 552.9 367.9;" xml:space="preserve">
<style type="text/css">
	.st0{fill:#E6E7E8;}
	.st1{fill:#3F3D56;}
	.st2{fill:#F89939;}
	.st3{fill:#2F2E41;}
	.st4{fill:#FFB6B6;}
	.st5{fill:#A0616A;}
</style>
<path class="st0" d="M213.8,33.2h-67.1c-2.3,0-4.2-1.9-4.2-4.2s1.9-4.2,4.2-4.2h67.1c2.3,0,4.2,1.9,4.2,4.2S216.1,33.2,213.8,33.2z"
	/>
<path class="st0" d="M266.1,47.4H146.7c-2.3,0-4.2-1.9-4.2-4.2s1.9-4.2,4.2-4.2h119.4c2.3,0,4.2,1.9,4.2,4.2S268.4,47.4,266.1,47.4
	L266.1,47.4z"/>
<path class="st0" d="M266.1,61.4H146.7c-2.3,0-4.2-1.9-4.2-4.2s1.9-4.2,4.2-4.2h119.4c2.3,0,4.2,1.9,4.2,4.2S268.4,61.4,266.1,61.4
	L266.1,61.4z"/>
<path class="st1" d="M278.8,134v-2c-23.1,0-43.2-18.9-48.6-45.1l8.7,2.2c-4.2-4-8.5-10.7-11.1-16.1c-1.6,5.9-4.5,13.2-7.8,17.9
	l8.2-3.9C233.6,114.4,254.7,134,278.8,134z"/>
<path class="st2" d="M270.1,57.5c0,2.2-1.8,4-4,4h-52c-2.2,0-4-1.8-4-4s1.8-4,4-4h52C268.3,53.5,270.1,55.3,270.1,57.5z"/>
<g>
	<path class="st2" d="M35.9,280.3c-0.8-2.8-2.1-5.1-3.8-6.8l-5.9-26.7l-12.8,3.1l7.3,26.8c-0.5,2.3-0.4,5,0.4,7.7
		c1.8,6.3,6.6,10.5,10.6,9.3C35.9,292.6,37.7,286.6,35.9,280.3L35.9,280.3z"/>
	<path class="st2" d="M34.1,105c0,0-13.8-0.5-21.8,8.5c-9.2,11.2-15.4,55.1-10.7,58L14.3,262l18.2-2.5l-4.7-108.6L34.1,105L34.1,105
		L34.1,105z"/>
</g>
<polygon class="st3" points="127.3,257.5 124,367.9 76.5,367.9 74.6,325.3 66.2,367.9 15.3,367.9 21.6,294.7 28.2,279.3 32.6,268.9 
	"/>
<path class="st2" d="M89.6,86.9l-33-2l-11,14c-9.5,2-18.1,4.7-24,9c1.4,41.9-1.7,96.4,11,107l-11.3,79.6c0,0,4.5-3.9,12.1-2.5
	c2.6,0.5,5.8,6.4,9,6.7c24.8,2.8,64.9-0.1,84.8-41.2l-7.7-59.6l2-87c-6.3-4.9-14-8.2-23-10L89.6,86.9L89.6,86.9L89.6,86.9z"/>
<g>
	<path class="st2" d="M153.1,62.6c0.4,3.5-0.1,6.7-1.1,9.3l5.5,32.8l-15.7,2.2l-3.9-33.5c-1.6-2.3-2.7-5.4-3-8.9
		c-0.8-7.9,2.6-14.8,7.6-15.3S152.3,54.7,153.1,62.6L153.1,62.6L153.1,62.6z"/>
	<path class="st2" d="M101,113.4c-1.6,2.4-1.2,5.1-1.6,8.4c-1.7,13.9,25,55,43.4,59.7c2.4,0.6,3.8,3.2,6.2,3.8h0
		c7.2,1.6,14-4.2,13.6-11.6l-5-94.7l-21,7.2l1.3,49.2c-0.1-10.2-9.5-20.6-16.6-24.9C121.3,110.5,107,104.6,101,113.4L101,113.4z"/>
</g>
<g>
	<circle class="st4" cx="76.5" cy="53.3" r="29.1"/>
	<path class="st3" d="M103.6,31.9c-0.2,0.1,3.8-3.9,4-4c4-2-0.1,17.6-3,17c-7.1-1.4-10.2-4-12.9,2.7c-0.8,1.9-1.2,4-2.8,5.3
		c-2.1,1.8-5.5,1.7-7.2,3.8c-1.4,1.7-1,4.3,0,6.3c1,2,2.5,3.6,3.4,5.7c1,2.3-3.3,9.5-5,13.5v0l0,0c-0.4,1.1-1.5-2-2.6-2.3
		c-1.3-0.4-3.3,2.8-5.4,2.2c0,0,0,0,0,0c-2-0.6-4.2-1.2-6.5-1.8h0c-6.2-1.7-7.8,0.7-8.1,0.7l-3.9-4.1c-1.3-1-1.2-4.1-2.1-4.9
		c-0.8-0.7-2.7,0.9-3.2,0.2c-2.8-3.2-3.4-6.5-5-12.9c-1.5-5.8-4.6-23.4,1.8-24.2c6-0.8,1.6-9.1,7.6-8.8c-0.4-1.5,0.3-3.2,1.4-4.3
		c1.1-1.1,2.5-1.8,4-2.4c7.2-2.9,6-5.4,13.5-3.7c0.8-1,10.4-3.8,11.7-3.4c0.1,0-2.1,4.3,3.3,3.4c-0.2,1.2,2.7-1.4,3,3
		c5.7-3.4,8.8,4.8,9,6c0.2,1.5-2,0.7-0.5,1c0.9,0.1,2.4,2,2.3,2.9c0.6-0.9,1.3-1.8,2-2.6c0.1,0,0.2,0,0.4,0c3,0.6-0.4,10.5-0.3,7.4
		C102.6,27.9,106.6,31.2,103.6,31.9L103.6,31.9L103.6,31.9z"/>
</g>
<path class="st3" d="M474.4,26c-1.1,8.8-2.2,17.6-3.5,26.4c-0.5,3.6-1.1,7.2-2.5,10.5c-1,2.3-2.4,4.3-3.7,6.4
	c-1.6,2.4-3.3,4.9-5.5,6.8s-5,3.3-7.9,3c7.7-5.2,12.9-14,13.7-23.2c0.4-4.3-0.1-8.7-0.2-13.1c-0.1-4.4,0.3-8.9,2.3-12.8
	s6-7,10.4-6.9L474.4,26C474.4,26,474.4,26,474.4,26z"/>
<path class="st5" d="M396.3,214.2L396.3,214.2c-6.3,5.1-14,6-17.2,2s-0.8-11.3,5.5-16.4c2.7-2.2,5.8-3.6,8.6-4.2l26.8-21.2l9.7,12.8
	l-27.5,19.6C401,209.3,399,212,396.3,214.2L396.3,214.2L396.3,214.2z"/>
<path class="st2" d="M401.3,185.4l40-37.9l4-3c0,0,23-22.4,28.9-22.9c2.5-0.2,5,0.4,7.2,1.8c3.4,2.2,5.2,5.9,5.2,9.6
	c0,3.1-1.2,6.2-3.8,8.5l-36.6,32.9l-15.6,14l-19.4,17.4l-2-4l-6.7-13.6L401.3,185.4L401.3,185.4L401.3,185.4z"/>
<path class="st5" d="M486.9,159.7l-40,12.3c6.7,1.9,9.5,42.7,3.3,44c0,0,66.4,4.7,62.7,0c-4.4-5.8,1.5-44,4.3-44L486.9,159.7z"/>
<path class="st3" d="M540.1,367.9l-3.5-42.2c0-15.1-1-28.8-2.5-40.9c-6.3-48.9-22.1-73.9-22.1-73.9h-59c-0.1,0.1-0.2,0.2-0.2,0.2
	l0,0c-13.9,14.6-21.2,51.4-24.4,73.6c-1.5,10.6-2.2,17.8-2.2,17.8l-5.8,51.3l4.2,14H459l-0.5-3l22.1-80.2l0.3-1l0.2,1l20.5,83.2
	L540.1,367.9L540.1,367.9z"/>
<path class="st2" d="M454.2,135.4l12.5-25.2l10.5-18.3l8.5-8.7H509l2.2,8.7l13,7.2l4.6,36.1l-16.4,78.3
	c-19.5-15.9-59.6-20.3-59.6-20.3l-6.5-18.9l-4.3-22.8l-0.5-2.7L454.2,135.4L454.2,135.4L454.2,135.4L454.2,135.4z"/>
<g>
	<path class="st2" d="M452.7,180.9L452.7,180.9c-8.1-0.2-14.5-4.6-14.3-9.7c0.1-5.1,6.8-9.1,14.9-8.9c3.5,0.1,6.7,1,9.2,2.4
		l34.2,1.4l-1,16l-33.6-3.1C459.5,180.3,456.3,181,452.7,180.9L452.7,180.9L452.7,180.9L452.7,180.9z"/>
	<path class="st2" d="M496.5,126.2l32.2,32l-56.2,5.8l-13.1,18.4l78.3,2.6c7.1,2.5,14.6-2.4,15.2-9.8v0c0.2-2.5-15.9-66.6-25.6-72.5
		C515.9,95.6,496.5,126.2,496.5,126.2l6.4-10.6L496.5,126.2L496.5,126.2z"/>
</g>
<circle class="st5" cx="492.5" cy="51.4" r="26.3"/>
<path class="st3" d="M550.3,133.5c-0.7,2.5-5.8,3.8-7,7c-3.8,2.2-1.8-15.6-3.3-16.8c-1.2-0.9-1.5,1.3-1.8-0.6
	c-1-6.9-7.7-5.4-12.6-6.5c-0.6-1.1-1-2.1-1.3-3.2c-0.5-1.9-2.8-2.5-4.1-1.1c-0.6-0.5-1.1-2.5-1.5-4.4c-0.3-1.4-0.6-2.8-1-3.7
	l-3.4-7.8l1.1,5.8c-2.2-0.8-4.5,0-5.8-2.8c-1.7-3.6-2.4-7.8-1.1-11.5c1.1-3.4,3-10.2,5.1-15.8c-2.4,1.7-5.3,3-8.6,3.6
	c1.2-2.2,2.4-4.5,2.9-7c0.5-2.5,0.2-5.3-1.4-7.2c-1.3-1.6-3.2-1.2-4.8-2.5c-1.3-1-2.3-3.6-3.1-5.1c3.2,10.8,5.7,22.2,1.6,32.5
	c-2.9,7.1-8.9,12.9-16,15.5c3.8-2.7,7.6-5.7,10.4-9.4c3.1-4,5.1-9,4.5-14c-1-7.8-15.5-32.7-17.3-37.6c1,4.8,0.6,8.5-2,10.5
	c-0.7-6.9-8.2-6.3-12.3-9.1c0,0-3.2-18,4.3-18.1c3.6,0,7.4-8.5,10.6-10c5.2-2.4,8.4-0.8,14.2-0.6c5.8,0.2,11.3,2.7,14.9,7.2
	c1.9,2.4,2.5,0.5,5.3,2c2.6,1.4,4.4,0.1,7.4,0.2c6,0.2,11.8,3.4,15.2,8.3c3.4,5,5.4,4.5,4.1,12.2c0,0.1,0,0.3,0,0.5
	c0.7,12.1-1.1,24.2-5.9,35.3c-1.5,3.4,5.8,6.9,5.7,11.2c0,5-8,9.5-7.3,11.6c2.1,10.2,14,7.9,11.2,25
	C546.9,128.8,550.8,131.8,550.3,133.5L550.3,133.5z"/>
<path class="st3" d="M477.4,102.2c0.2-0.1,0.4-0.1,0.7-0.2c-0.3,0.2-0.5,0.4-0.8,0.6L477.4,102.2z"/>
<path class="st2" d="M514.5,18c-2.9,0.4-5.8-4.3-4.1-10.9c3.5,5.4,5.4,11.5,5.6,18.2l-1.9,0.6L514.5,18L514.5,18z"/>
<path class="st2" d="M529.1,11.8c-2,6.9-11.9,11.6-13.6,9.2l-0.2,4.1l-1.2-1.6C517.6,18.2,522.5,14.2,529.1,11.8
	C529.1,11.8,529.1,11.8,529.1,11.8z"/>
<g>
	<path class="st0" d="M311.1,198.6c0-2.3,1.9-4.2,4.2-4.2h67.1c2.3,0,4.2,1.9,4.2,4.2s-1.9,4.2-4.2,4.2h-67.1
		C313,202.8,311.1,200.9,311.1,198.6z"/>
	<path class="st0" d="M311.1,226.6c0-2.3,1.9-4.2,4.2-4.2h67.1c2.3,0,4.2,1.9,4.2,4.2s-1.9,4.2-4.2,4.2h-67.1
		C313,230.8,311.1,228.9,311.1,226.6z"/>
	<path class="st0" d="M262.9,216.9c-2.3,0-4.2-1.9-4.2-4.2s1.9-4.2,4.2-4.2h119.4c2.3,0,4.2,1.9,4.2,4.2s-1.9,4.2-4.2,4.2H262.9z"/>
</g>
<g>
	<path class="st2" d="M254.1,176.9l-8.2-3.9c3.4,4.7,6.3,12.1,7.8,17.9c2.6-5.5,6.9-12.1,11.1-16.1l-8.7,2.2
		c5.4-26.3,25.5-45.1,48.6-45.1v-2C280.6,130,259.5,149.6,254.1,176.9L254.1,176.9z"/>
	<path class="st2" d="M291.9,217h-52c-2.2,0-4-1.8-4-4s1.8-4,4-4h52c2.2,0,4,1.8,4,4S294.1,217,291.9,217z"/>
</g>
<ellipse transform="matrix(0.1602 -0.9871 0.9871 0.1602 114.008 399.3151)" class="st1" cx="291.7" cy="132.7" rx="15.7" ry="15.7"/>
<circle class="st0" cx="206.7" cy="9.7" r="9.7"/>
<circle class="st0" cx="319.7" cy="176.7" r="9.7"/>
</svg>
